<?xml version="1.0" encoding="UTF-8" standalone="no"?>
<!DOCTYPE svg PUBLIC "-//W3C//DTD SVG 1.1//EN"
 "http://www.w3.org/Graphics/SVG/1.1/DTD/svg11.dtd">
<!-- Generated by graphviz version 2.38.0 (20140413.2041)
 -->
<!-- Title: ADB_mod.cpp Pages: 1 -->
<svg width="276pt" height="84pt"
 viewBox="0.00 0.00 276.00 84.00" xmlns="http://www.w3.org/2000/svg" xmlns:xlink="http://www.w3.org/1999/xlink">
<g id="graph0" class="graph" transform="scale(1 1) rotate(0) translate(4 80)">
<title>ADB_mod.cpp</title>
<polygon fill="white" stroke="none" points="-4,4 -4,-80 272,-80 272,4 -4,4"/>
<!-- Node173 -->
<g id="node1" class="node"><title>Node173</title>
<polygon fill="#bfbfbf" stroke="black" points="102.5,-56.5 102.5,-75.5 182.5,-75.5 182.5,-56.5 102.5,-56.5"/>
<text text-anchor="middle" x="142.5" y="-63.5" font-family="Helvetica,sans-Serif" font-size="10.00">ADB_mod.cpp</text>
</g>
<!-- Node174 -->
<g id="node2" class="node"><title>Node174</title>
<polygon fill="white" stroke="#bfbfbf" points="0,-0.5 0,-19.5 65,-19.5 65,-0.5 0,-0.5"/>
<text text-anchor="middle" x="32.5" y="-7.5" font-family="Helvetica,sans-Serif" font-size="10.00">Windows.h</text>
</g>
<!-- Node173&#45;&gt;Node174 -->
<g id="edge1" class="edge"><title>Node173&#45;&gt;Node174</title>
<path fill="none" stroke="midnightblue" d="M124.827,-56.324C107.106,-47.6247 79.5968,-34.1202 59.2116,-24.113"/>
<polygon fill="midnightblue" stroke="midnightblue" points="60.6486,-20.9195 50.1295,-19.6545 57.5639,-27.2031 60.6486,-20.9195"/>
</g>
<!-- Node175 -->
<g id="node3" class="node"><title>Node175</title>
<polygon fill="white" stroke="#bfbfbf" points="83,-0.5 83,-19.5 132,-19.5 132,-0.5 83,-0.5"/>
<text text-anchor="middle" x="107.5" y="-7.5" font-family="Helvetica,sans-Serif" font-size="10.00">string.h</text>
</g>
<!-- Node173&#45;&gt;Node175 -->
<g id="edge2" class="edge"><title>Node173&#45;&gt;Node175</title>
<path fill="none" stroke="midnightblue" d="M136.72,-56.083C131.828,-48.5341 124.673,-37.4948 118.667,-28.2298"/>
<polygon fill="midnightblue" stroke="midnightblue" points="121.548,-26.239 113.172,-19.7511 115.674,-30.0463 121.548,-26.239"/>
</g>
<!-- Node176 -->
<g id="node4" class="node"><title>Node176</title>
<polygon fill="white" stroke="#bfbfbf" points="150.5,-0.5 150.5,-19.5 204.5,-19.5 204.5,-0.5 150.5,-0.5"/>
<text text-anchor="middle" x="177.5" y="-7.5" font-family="Helvetica,sans-Serif" font-size="10.00">iostream</text>
</g>
<!-- Node173&#45;&gt;Node176 -->
<g id="edge3" class="edge"><title>Node173&#45;&gt;Node176</title>
<path fill="none" stroke="midnightblue" d="M148.28,-56.083C153.172,-48.5341 160.327,-37.4948 166.333,-28.2298"/>
<polygon fill="midnightblue" stroke="midnightblue" points="169.326,-30.0463 171.828,-19.7511 163.452,-26.239 169.326,-30.0463"/>
</g>
<!-- Node177 -->
<g id="node5" class="node"><title>Node177</title>
<polygon fill="white" stroke="#bfbfbf" points="223,-0.5 223,-19.5 268,-19.5 268,-0.5 223,-0.5"/>
<text text-anchor="middle" x="245.5" y="-7.5" font-family="Helvetica,sans-Serif" font-size="10.00">cstdlib</text>
</g>
<!-- Node173&#45;&gt;Node177 -->
<g id="edge4" class="edge"><title>Node173&#45;&gt;Node177</title>
<path fill="none" stroke="midnightblue" d="M159.049,-56.324C175.492,-47.7034 200.935,-34.3643 219.968,-24.3855"/>
<polygon fill="midnightblue" stroke="midnightblue" points="221.761,-27.3977 228.992,-19.6545 218.511,-21.198 221.761,-27.3977"/>
</g>
</g>
</svg>
