<?xml version="1.0" encoding="UTF-8" standalone="no"?>
<!DOCTYPE svg PUBLIC "-//W3C//DTD SVG 1.1//EN"
 "http://www.w3.org/Graphics/SVG/1.1/DTD/svg11.dtd">
<!-- Generated by graphviz version 2.38.0 (20140413.2041)
 -->
<!-- Title: ADB_mod.cpp Pages: 1 -->
<svg width="387pt" height="140pt"
 viewBox="0.00 0.00 387.46 140.00" xmlns="http://www.w3.org/2000/svg" xmlns:xlink="http://www.w3.org/1999/xlink">
<g id="graph0" class="graph" transform="scale(1 1) rotate(0) translate(4 136)">
<title>ADB_mod.cpp</title>
<polygon fill="white" stroke="none" points="-4,4 -4,-136 383.46,-136 383.46,4 -4,4"/>
<!-- Node127 -->
<g id="node1" class="node"><title>Node127</title>
<polygon fill="#bfbfbf" stroke="black" points="103.46,-112.5 103.46,-131.5 183.46,-131.5 183.46,-112.5 103.46,-112.5"/>
<text text-anchor="middle" x="143.46" y="-119.5" font-family="Helvetica,sans-Serif" font-size="10.00">ADB_mod.cpp</text>
</g>
<!-- Node128 -->
<g id="node2" class="node"><title>Node128</title>
<polygon fill="white" stroke="#bfbfbf" points="86.9599,-0.5 86.9599,-19.5 151.96,-19.5 151.96,-0.5 86.9599,-0.5"/>
<text text-anchor="middle" x="119.46" y="-7.5" font-family="Helvetica,sans-Serif" font-size="10.00">Windows.h</text>
</g>
<!-- Node127&#45;&gt;Node128 -->
<g id="edge1" class="edge"><title>Node127&#45;&gt;Node128</title>
<path fill="none" stroke="midnightblue" d="M103.17,-119.947C70.9344,-116.716 27.588,-106.491 5.45991,-76 -16.4214,-45.8495 36.161,-27.6963 77.0085,-18.5153"/>
<polygon fill="midnightblue" stroke="midnightblue" points="77.7728,-21.9311 86.8248,-16.4256 76.3152,-15.0845 77.7728,-21.9311"/>
</g>
<!-- Node129 -->
<g id="node3" class="node"><title>Node129</title>
<polygon fill="white" stroke="#bfbfbf" points="14.9599,-56.5 14.9599,-75.5 63.9599,-75.5 63.9599,-56.5 14.9599,-56.5"/>
<text text-anchor="middle" x="39.4599" y="-63.5" font-family="Helvetica,sans-Serif" font-size="10.00">string.h</text>
</g>
<!-- Node127&#45;&gt;Node129 -->
<g id="edge2" class="edge"><title>Node127&#45;&gt;Node129</title>
<path fill="none" stroke="midnightblue" d="M126.751,-112.324C110.148,-103.703 84.4578,-90.3643 65.2394,-80.3855"/>
<polygon fill="midnightblue" stroke="midnightblue" points="66.6157,-77.1565 56.1278,-75.6545 63.3899,-83.3689 66.6157,-77.1565"/>
</g>
<!-- Node130 -->
<g id="node4" class="node"><title>Node130</title>
<polygon fill="white" stroke="#bfbfbf" points="82.4599,-56.5 82.4599,-75.5 136.46,-75.5 136.46,-56.5 82.4599,-56.5"/>
<text text-anchor="middle" x="109.46" y="-63.5" font-family="Helvetica,sans-Serif" font-size="10.00">iostream</text>
</g>
<!-- Node127&#45;&gt;Node130 -->
<g id="edge3" class="edge"><title>Node127&#45;&gt;Node130</title>
<path fill="none" stroke="midnightblue" d="M137.845,-112.083C133.092,-104.534 126.142,-93.4948 120.308,-84.2298"/>
<polygon fill="midnightblue" stroke="midnightblue" points="123.26,-82.3486 114.97,-75.7511 117.336,-86.0783 123.26,-82.3486"/>
</g>
<!-- Node131 -->
<g id="node5" class="node"><title>Node131</title>
<polygon fill="white" stroke="#bfbfbf" points="154.96,-56.5 154.96,-75.5 199.96,-75.5 199.96,-56.5 154.96,-56.5"/>
<text text-anchor="middle" x="177.46" y="-63.5" font-family="Helvetica,sans-Serif" font-size="10.00">cstdlib</text>
</g>
<!-- Node127&#45;&gt;Node131 -->
<g id="edge4" class="edge"><title>Node127&#45;&gt;Node131</title>
<path fill="none" stroke="midnightblue" d="M149.074,-112.083C153.827,-104.534 160.778,-93.4948 166.612,-84.2298"/>
<polygon fill="midnightblue" stroke="midnightblue" points="169.584,-86.0783 171.95,-75.7511 163.66,-82.3486 169.584,-86.0783"/>
</g>
<!-- Node132 -->
<g id="node6" class="node"><title>Node132</title>
<g id="a_node6"><a xlink:href="$_a_d_b__mod_8h.html" xlink:title="Заголовочный файл с подключением модуля работы с adb. ">
<polygon fill="white" stroke="black" points="217.96,-56.5 217.96,-75.5 286.96,-75.5 286.96,-56.5 217.96,-56.5"/>
<text text-anchor="middle" x="252.46" y="-63.5" font-family="Helvetica,sans-Serif" font-size="10.00">ADB_mod.h</text>
</a>
</g>
</g>
<!-- Node127&#45;&gt;Node132 -->
<g id="edge5" class="edge"><title>Node127&#45;&gt;Node132</title>
<path fill="none" stroke="midnightblue" d="M160.973,-112.324C178.532,-103.625 205.791,-90.1202 225.991,-80.113"/>
<polygon fill="midnightblue" stroke="midnightblue" points="227.584,-83.23 234.991,-75.6545 224.476,-76.9575 227.584,-83.23"/>
</g>
<!-- Node133 -->
<g id="node7" class="node"><title>Node133</title>
<g id="a_node7"><a xlink:href="$_logger_8h.html" xlink:title="Заголовочный файл с подключением модуля логирования. ">
<polygon fill="white" stroke="black" points="305.46,-56.5 305.46,-75.5 379.46,-75.5 379.46,-56.5 305.46,-56.5"/>
<text text-anchor="middle" x="342.46" y="-63.5" font-family="Helvetica,sans-Serif" font-size="10.00">..\io\Logger.h</text>
</a>
</g>
</g>
<!-- Node127&#45;&gt;Node133 -->
<g id="edge7" class="edge"><title>Node127&#45;&gt;Node133</title>
<path fill="none" stroke="midnightblue" d="M174.992,-112.444C209.052,-103.201 263.466,-88.4356 300.975,-78.2572"/>
<polygon fill="midnightblue" stroke="midnightblue" points="302.341,-81.5132 311.075,-75.5164 300.508,-74.7575 302.341,-81.5132"/>
</g>
<!-- Node132&#45;&gt;Node128 -->
<g id="edge6" class="edge"><title>Node132&#45;&gt;Node128</title>
<path fill="none" stroke="midnightblue" d="M231.386,-56.4435C209.4,-47.5171 174.726,-33.4387 149.796,-23.3168"/>
<polygon fill="midnightblue" stroke="midnightblue" points="151.018,-20.0355 140.436,-19.5164 148.384,-26.5213 151.018,-20.0355"/>
</g>
<!-- Node134 -->
<g id="node8" class="node"><title>Node134</title>
<polygon fill="white" stroke="#bfbfbf" points="321.96,-0.5 321.96,-19.5 362.96,-19.5 362.96,-0.5 321.96,-0.5"/>
<text text-anchor="middle" x="342.46" y="-7.5" font-family="Helvetica,sans-Serif" font-size="10.00">string</text>
</g>
<!-- Node133&#45;&gt;Node134 -->
<g id="edge8" class="edge"><title>Node133&#45;&gt;Node134</title>
<path fill="none" stroke="midnightblue" d="M342.46,-56.083C342.46,-49.0059 342.46,-38.8611 342.46,-29.9865"/>
<polygon fill="midnightblue" stroke="midnightblue" points="345.96,-29.751 342.46,-19.7511 338.96,-29.7511 345.96,-29.751"/>
</g>
</g>
</svg>
