<?xml version="1.0" encoding="UTF-8" standalone="no"?>
<!DOCTYPE svg PUBLIC "-//W3C//DTD SVG 1.1//EN"
 "http://www.w3.org/Graphics/SVG/1.1/DTD/svg11.dtd">
<!-- Generated by graphviz version 2.38.0 (20140413.2041)
 -->
<!-- Title: ADB_mod.h Pages: 1 -->
<svg width="186pt" height="140pt"
 viewBox="0.00 0.00 185.50 140.00" xmlns="http://www.w3.org/2000/svg" xmlns:xlink="http://www.w3.org/1999/xlink">
<g id="graph0" class="graph" transform="scale(1 1) rotate(0) translate(4 136)">
<title>ADB_mod.h</title>
<polygon fill="white" stroke="none" points="-4,4 -4,-136 181.5,-136 181.5,4 -4,4"/>
<!-- Node181 -->
<g id="node1" class="node"><title>Node181</title>
<polygon fill="#bfbfbf" stroke="black" points="55,-112.5 55,-131.5 124,-131.5 124,-112.5 55,-112.5"/>
<text text-anchor="middle" x="89.5" y="-119.5" font-family="Helvetica,sans-Serif" font-size="10.00">ADB_mod.h</text>
</g>
<!-- Node182 -->
<g id="node2" class="node"><title>Node182</title>
<g id="a_node2"><a xlink:href="$_a_d_b__slave_8cpp.html" xlink:title="ADB_slave.cpp">
<polygon fill="white" stroke="black" points="0,-56.5 0,-75.5 83,-75.5 83,-56.5 0,-56.5"/>
<text text-anchor="middle" x="41.5" y="-63.5" font-family="Helvetica,sans-Serif" font-size="10.00">ADB_slave.cpp</text>
</a>
</g>
</g>
<!-- Node181&#45;&gt;Node182 -->
<g id="edge1" class="edge"><title>Node181&#45;&gt;Node182</title>
<path fill="none" stroke="midnightblue" d="M74.7723,-104.431C66.3599,-94.9673 56.1513,-83.4827 49.2787,-75.7511"/>
<polygon fill="midnightblue" stroke="midnightblue" points="72.3142,-106.934 81.5738,-112.083 77.546,-102.284 72.3142,-106.934"/>
</g>
<!-- Node183 -->
<g id="node3" class="node"><title>Node183</title>
<g id="a_node3"><a xlink:href="$_a_d_b__slave_8h.html" xlink:title="Заголовочный файл с подключением модуля работы с adb. ">
<polygon fill="white" stroke="black" points="101.5,-56.5 101.5,-75.5 173.5,-75.5 173.5,-56.5 101.5,-56.5"/>
<text text-anchor="middle" x="137.5" y="-63.5" font-family="Helvetica,sans-Serif" font-size="10.00">ADB_slave.h</text>
</a>
</g>
</g>
<!-- Node181&#45;&gt;Node183 -->
<g id="edge2" class="edge"><title>Node181&#45;&gt;Node183</title>
<path fill="none" stroke="midnightblue" d="M104.228,-104.431C112.64,-94.9673 122.849,-83.4827 129.721,-75.7511"/>
<polygon fill="midnightblue" stroke="midnightblue" points="101.454,-102.284 97.4262,-112.083 106.686,-106.934 101.454,-102.284"/>
</g>
<!-- Node184 -->
<g id="node4" class="node"><title>Node184</title>
<g id="a_node4"><a xlink:href="$_main_menu_8cpp.html" xlink:title="Модуль вывода главного меню программы. ">
<polygon fill="white" stroke="black" points="97.5,-0.5 97.5,-19.5 177.5,-19.5 177.5,-0.5 97.5,-0.5"/>
<text text-anchor="middle" x="137.5" y="-7.5" font-family="Helvetica,sans-Serif" font-size="10.00">MainMenu.cpp</text>
</a>
</g>
</g>
<!-- Node183&#45;&gt;Node184 -->
<g id="edge3" class="edge"><title>Node183&#45;&gt;Node184</title>
<path fill="none" stroke="midnightblue" d="M137.5,-45.8045C137.5,-36.9102 137.5,-26.7798 137.5,-19.7511"/>
<polygon fill="midnightblue" stroke="midnightblue" points="134,-46.083 137.5,-56.083 141,-46.083 134,-46.083"/>
</g>
</g>
</svg>
