<?xml version="1.0" encoding="UTF-8" standalone="no"?>
<!DOCTYPE svg PUBLIC "-//W3C//DTD SVG 1.1//EN"
 "http://www.w3.org/Graphics/SVG/1.1/DTD/svg11.dtd">
<!-- Generated by graphviz version 2.38.0 (20140413.2041)
 -->
<!-- Title: ADB_slave.h Pages: 1 -->
<svg width="108pt" height="140pt"
 viewBox="0.00 0.00 108.00 140.00" xmlns="http://www.w3.org/2000/svg" xmlns:xlink="http://www.w3.org/1999/xlink">
<g id="graph0" class="graph" transform="scale(1 1) rotate(0) translate(4 136)">
<title>ADB_slave.h</title>
<polygon fill="white" stroke="none" points="-4,4 -4,-136 104,-136 104,4 -4,4"/>
<!-- Node189 -->
<g id="node1" class="node"><title>Node189</title>
<polygon fill="#bfbfbf" stroke="black" points="14,-112.5 14,-131.5 86,-131.5 86,-112.5 14,-112.5"/>
<text text-anchor="middle" x="50" y="-119.5" font-family="Helvetica,sans-Serif" font-size="10.00">ADB_slave.h</text>
</g>
<!-- Node190 -->
<g id="node2" class="node"><title>Node190</title>
<g id="a_node2"><a xlink:href="$_a_d_b__mod_8h.html" xlink:title="Заголовочный файл с подключением модуля работы с adb. ">
<polygon fill="white" stroke="black" points="0,-56.5 0,-75.5 100,-75.5 100,-56.5 0,-56.5"/>
<text text-anchor="middle" x="50" y="-63.5" font-family="Helvetica,sans-Serif" font-size="10.00">..\core\ADB_mod.h</text>
</a>
</g>
</g>
<!-- Node189&#45;&gt;Node190 -->
<g id="edge1" class="edge"><title>Node189&#45;&gt;Node190</title>
<path fill="none" stroke="midnightblue" d="M50,-112.083C50,-105.006 50,-94.8611 50,-85.9865"/>
<polygon fill="midnightblue" stroke="midnightblue" points="53.5001,-85.751 50,-75.7511 46.5001,-85.7511 53.5001,-85.751"/>
</g>
<!-- Node191 -->
<g id="node3" class="node"><title>Node191</title>
<polygon fill="white" stroke="#bfbfbf" points="17.5,-0.5 17.5,-19.5 82.5,-19.5 82.5,-0.5 17.5,-0.5"/>
<text text-anchor="middle" x="50" y="-7.5" font-family="Helvetica,sans-Serif" font-size="10.00">Windows.h</text>
</g>
<!-- Node190&#45;&gt;Node191 -->
<g id="edge2" class="edge"><title>Node190&#45;&gt;Node191</title>
<path fill="none" stroke="midnightblue" d="M50,-56.083C50,-49.0059 50,-38.8611 50,-29.9865"/>
<polygon fill="midnightblue" stroke="midnightblue" points="53.5001,-29.751 50,-19.7511 46.5001,-29.7511 53.5001,-29.751"/>
</g>
</g>
</svg>
