<?xml version="1.0" encoding="UTF-8" standalone="no"?>
<!DOCTYPE svg PUBLIC "-//W3C//DTD SVG 1.1//EN"
 "http://www.w3.org/Graphics/SVG/1.1/DTD/svg11.dtd">
<!-- Generated by graphviz version 2.38.0 (20140413.2041)
 -->
<!-- Title: CheckAgreement.cpp Pages: 1 -->
<svg width="604pt" height="140pt"
 viewBox="0.00 0.00 603.50 140.00" xmlns="http://www.w3.org/2000/svg" xmlns:xlink="http://www.w3.org/1999/xlink">
<g id="graph0" class="graph" transform="scale(1 1) rotate(0) translate(4 136)">
<title>CheckAgreement.cpp</title>
<polygon fill="white" stroke="none" points="-4,4 -4,-136 599.5,-136 599.5,4 -4,4"/>
<!-- Node194 -->
<g id="node1" class="node"><title>Node194</title>
<polygon fill="#bfbfbf" stroke="black" points="160,-112.5 160,-131.5 270,-131.5 270,-112.5 160,-112.5"/>
<text text-anchor="middle" x="215" y="-119.5" font-family="Helvetica,sans-Serif" font-size="10.00">CheckAgreement.cpp</text>
</g>
<!-- Node195 -->
<g id="node2" class="node"><title>Node195</title>
<polygon fill="white" stroke="#bfbfbf" points="0,-56.5 0,-75.5 54,-75.5 54,-56.5 0,-56.5"/>
<text text-anchor="middle" x="27" y="-63.5" font-family="Helvetica,sans-Serif" font-size="10.00">iostream</text>
</g>
<!-- Node194&#45;&gt;Node195 -->
<g id="edge1" class="edge"><title>Node194&#45;&gt;Node195</title>
<path fill="none" stroke="midnightblue" d="M185.211,-112.444C152.417,-103.024 99.6511,-87.8679 64.1732,-77.6774"/>
<polygon fill="midnightblue" stroke="midnightblue" points="64.7858,-74.2119 54.2081,-74.8151 62.8532,-80.9399 64.7858,-74.2119"/>
</g>
<!-- Node196 -->
<g id="node3" class="node"><title>Node196</title>
<polygon fill="white" stroke="#bfbfbf" points="72,-56.5 72,-75.5 120,-75.5 120,-56.5 72,-56.5"/>
<text text-anchor="middle" x="96" y="-63.5" font-family="Helvetica,sans-Serif" font-size="10.00">conio.h</text>
</g>
<!-- Node194&#45;&gt;Node196 -->
<g id="edge2" class="edge"><title>Node194&#45;&gt;Node196</title>
<path fill="none" stroke="midnightblue" d="M196.144,-112.444C176.734,-103.636 146.27,-89.8116 124.035,-79.722"/>
<polygon fill="midnightblue" stroke="midnightblue" points="125.32,-76.4615 114.768,-75.5164 122.428,-82.836 125.32,-76.4615"/>
</g>
<!-- Node197 -->
<g id="node4" class="node"><title>Node197</title>
<polygon fill="white" stroke="#bfbfbf" points="349.5,-0.5 349.5,-19.5 390.5,-19.5 390.5,-0.5 349.5,-0.5"/>
<text text-anchor="middle" x="370" y="-7.5" font-family="Helvetica,sans-Serif" font-size="10.00">string</text>
</g>
<!-- Node194&#45;&gt;Node197 -->
<g id="edge3" class="edge"><title>Node194&#45;&gt;Node197</title>
<path fill="none" stroke="midnightblue" d="M200.641,-112.422C181.346,-99.8274 151.195,-75.6925 167,-56 188.253,-29.5199 287.889,-17.6575 339.233,-13.2285"/>
<polygon fill="midnightblue" stroke="midnightblue" points="339.731,-16.6995 349.411,-12.3936 339.159,-9.72295 339.731,-16.6995"/>
</g>
<!-- Node198 -->
<g id="node5" class="node"><title>Node198</title>
<g id="a_node5"><a xlink:href="$_color_8h.html" xlink:title="Заголовочный файл с цветами и модулем смены цвета в консоли. ">
<polygon fill="white" stroke="black" points="176,-56.5 176,-75.5 254,-75.5 254,-56.5 176,-56.5"/>
<text text-anchor="middle" x="215" y="-63.5" font-family="Helvetica,sans-Serif" font-size="10.00">..\core\Color.h</text>
</a>
</g>
</g>
<!-- Node194&#45;&gt;Node198 -->
<g id="edge4" class="edge"><title>Node194&#45;&gt;Node198</title>
<path fill="none" stroke="midnightblue" d="M215,-112.083C215,-105.006 215,-94.8611 215,-85.9865"/>
<polygon fill="midnightblue" stroke="midnightblue" points="218.5,-85.751 215,-75.7511 211.5,-85.7511 218.5,-85.751"/>
</g>
<!-- Node199 -->
<g id="node6" class="node"><title>Node199</title>
<g id="a_node6"><a xlink:href="$_logo_8h.html" xlink:title="Заголовочный файл с логотипами. ">
<polygon fill="white" stroke="black" points="272.5,-56.5 272.5,-75.5 349.5,-75.5 349.5,-56.5 272.5,-56.5"/>
<text text-anchor="middle" x="311" y="-63.5" font-family="Helvetica,sans-Serif" font-size="10.00">..\core\Logo.h</text>
</a>
</g>
</g>
<!-- Node194&#45;&gt;Node199 -->
<g id="edge5" class="edge"><title>Node194&#45;&gt;Node199</title>
<path fill="none" stroke="midnightblue" d="M230.424,-112.324C245.54,-103.822 268.815,-90.7288 286.471,-80.7975"/>
<polygon fill="midnightblue" stroke="midnightblue" points="288.614,-83.6077 295.614,-75.6545 285.183,-77.5066 288.614,-83.6077"/>
</g>
<!-- Node200 -->
<g id="node7" class="node"><title>Node200</title>
<g id="a_node7"><a xlink:href="$_constants_menu_8h.html" xlink:title="Заголовочный файл с константами меню. ">
<polygon fill="white" stroke="black" points="368,-56.5 368,-75.5 492,-75.5 492,-56.5 368,-56.5"/>
<text text-anchor="middle" x="430" y="-63.5" font-family="Helvetica,sans-Serif" font-size="10.00">..\core\ConstantsMenu.h</text>
</a>
</g>
</g>
<!-- Node194&#45;&gt;Node200 -->
<g id="edge7" class="edge"><title>Node194&#45;&gt;Node200</title>
<path fill="none" stroke="midnightblue" d="M249.067,-112.444C286.18,-103.122 345.661,-88.1828 386.215,-77.9972"/>
<polygon fill="midnightblue" stroke="midnightblue" points="387.246,-81.347 396.092,-75.5164 385.541,-74.5579 387.246,-81.347"/>
</g>
<!-- Node201 -->
<g id="node8" class="node"><title>Node201</title>
<g id="a_node8"><a xlink:href="$_rules_list_8h.html" xlink:title="Заголовочный файл с подключением модуля чтения правил. ">
<polygon fill="white" stroke="black" points="510.5,-56.5 510.5,-75.5 595.5,-75.5 595.5,-56.5 510.5,-56.5"/>
<text text-anchor="middle" x="553" y="-63.5" font-family="Helvetica,sans-Serif" font-size="10.00">..\io\RulesList.h</text>
</a>
</g>
</g>
<!-- Node194&#45;&gt;Node201 -->
<g id="edge9" class="edge"><title>Node194&#45;&gt;Node201</title>
<path fill="none" stroke="midnightblue" d="M270.135,-112.581C325.622,-104.051 413.93,-90.3177 500.449,-76.0698"/>
<polygon fill="midnightblue" stroke="midnightblue" points="501.145,-79.5023 510.442,-74.4205 500.005,-72.5957 501.145,-79.5023"/>
</g>
<!-- Node199&#45;&gt;Node197 -->
<g id="edge6" class="edge"><title>Node199&#45;&gt;Node197</title>
<path fill="none" stroke="midnightblue" d="M320.479,-56.324C329.201,-48.3414 342.343,-36.3128 352.898,-26.6529"/>
<polygon fill="midnightblue" stroke="midnightblue" points="355.334,-29.1674 360.348,-19.8339 350.608,-24.0036 355.334,-29.1674"/>
</g>
<!-- Node200&#45;&gt;Node197 -->
<g id="edge8" class="edge"><title>Node200&#45;&gt;Node197</title>
<path fill="none" stroke="midnightblue" d="M420.36,-56.324C411.49,-48.3414 398.125,-36.3128 387.392,-26.6529"/>
<polygon fill="midnightblue" stroke="midnightblue" points="389.59,-23.922 379.815,-19.8339 384.907,-29.1251 389.59,-23.922"/>
</g>
<!-- Node201&#45;&gt;Node197 -->
<g id="edge10" class="edge"><title>Node201&#45;&gt;Node197</title>
<path fill="none" stroke="midnightblue" d="M524.003,-56.4435C490.301,-46.4985 434.927,-30.1587 400.568,-20.02"/>
<polygon fill="midnightblue" stroke="midnightblue" points="401.208,-16.5598 390.626,-17.0865 399.227,-23.2736 401.208,-16.5598"/>
</g>
</g>
</svg>
