<?xml version="1.0" encoding="UTF-8" standalone="no"?>
<!DOCTYPE svg PUBLIC "-//W3C//DTD SVG 1.1//EN"
 "http://www.w3.org/Graphics/SVG/1.1/DTD/svg11.dtd">
<!-- Generated by graphviz version 2.38.0 (20140413.2041)
 -->
<!-- Title: Color.h Pages: 1 -->
<svg width="463pt" height="84pt"
 viewBox="0.00 0.00 463.00 84.00" xmlns="http://www.w3.org/2000/svg" xmlns:xlink="http://www.w3.org/1999/xlink">
<g id="graph0" class="graph" transform="scale(1 1) rotate(0) translate(4 80)">
<title>Color.h</title>
<polygon fill="white" stroke="none" points="-4,4 -4,-80 459,-80 459,4 -4,4"/>
<!-- Node212 -->
<g id="node1" class="node"><title>Node212</title>
<polygon fill="#bfbfbf" stroke="black" points="207.5,-56.5 207.5,-75.5 254.5,-75.5 254.5,-56.5 207.5,-56.5"/>
<text text-anchor="middle" x="231" y="-63.5" font-family="Helvetica,sans-Serif" font-size="10.00">Color.h</text>
</g>
<!-- Node213 -->
<g id="node2" class="node"><title>Node213</title>
<g id="a_node2"><a xlink:href="$_color_8cpp.html" xlink:title="Модуль работы с цветом в консоли. ">
<polygon fill="white" stroke="black" points="0,-0.5 0,-19.5 58,-19.5 58,-0.5 0,-0.5"/>
<text text-anchor="middle" x="29" y="-7.5" font-family="Helvetica,sans-Serif" font-size="10.00">Color.cpp</text>
</a>
</g>
</g>
<!-- Node212&#45;&gt;Node213 -->
<g id="edge1" class="edge"><title>Node212&#45;&gt;Node213</title>
<path fill="none" stroke="midnightblue" d="M197.65,-56.0847C158.816,-45.7033 95.2838,-28.7194 58.2814,-18.8277"/>
<polygon fill="midnightblue" stroke="midnightblue" points="196.868,-59.4984 207.433,-58.6998 198.676,-52.7359 196.868,-59.4984"/>
</g>
<!-- Node214 -->
<g id="node3" class="node"><title>Node214</title>
<g id="a_node3"><a xlink:href="$_check_agreement_8cpp.html" xlink:title="Модуль проверки согласия пользователя с правилами. ">
<polygon fill="white" stroke="black" points="76,-0.5 76,-19.5 186,-19.5 186,-0.5 76,-0.5"/>
<text text-anchor="middle" x="131" y="-7.5" font-family="Helvetica,sans-Serif" font-size="10.00">CheckAgreement.cpp</text>
</a>
</g>
</g>
<!-- Node212&#45;&gt;Node214 -->
<g id="edge2" class="edge"><title>Node212&#45;&gt;Node214</title>
<path fill="none" stroke="midnightblue" d="M205.912,-51.4526C187.451,-41.4835 162.903,-28.2279 147.027,-19.6545"/>
<polygon fill="midnightblue" stroke="midnightblue" points="204.471,-54.6521 214.933,-56.324 207.797,-48.4928 204.471,-54.6521"/>
</g>
<!-- Node215 -->
<g id="node4" class="node"><title>Node215</title>
<g id="a_node4"><a xlink:href="$_exit_8cpp.html" xlink:title="Модуль выхода из программы. ">
<polygon fill="white" stroke="black" points="204.5,-0.5 204.5,-19.5 257.5,-19.5 257.5,-0.5 204.5,-0.5"/>
<text text-anchor="middle" x="231" y="-7.5" font-family="Helvetica,sans-Serif" font-size="10.00">Exit.cpp</text>
</a>
</g>
</g>
<!-- Node212&#45;&gt;Node215 -->
<g id="edge3" class="edge"><title>Node212&#45;&gt;Node215</title>
<path fill="none" stroke="midnightblue" d="M231,-45.8045C231,-36.9102 231,-26.7798 231,-19.7511"/>
<polygon fill="midnightblue" stroke="midnightblue" points="227.5,-46.083 231,-56.083 234.5,-46.083 227.5,-46.083"/>
</g>
<!-- Node216 -->
<g id="node5" class="node"><title>Node216</title>
<g id="a_node5"><a xlink:href="$_load_scale_8cpp.html" xlink:title="Модуль вывода шкалы загрузки. ">
<polygon fill="white" stroke="black" points="275.5,-0.5 275.5,-19.5 356.5,-19.5 356.5,-0.5 275.5,-0.5"/>
<text text-anchor="middle" x="316" y="-7.5" font-family="Helvetica,sans-Serif" font-size="10.00">LoadScale.cpp</text>
</a>
</g>
</g>
<!-- Node212&#45;&gt;Node216 -->
<g id="edge4" class="edge"><title>Node212&#45;&gt;Node216</title>
<path fill="none" stroke="midnightblue" d="M253.194,-50.9005C268.78,-40.9986 289.13,-28.0705 302.377,-19.6545"/>
<polygon fill="midnightblue" stroke="midnightblue" points="251.221,-48.0073 244.657,-56.324 254.974,-53.9158 251.221,-48.0073"/>
</g>
<!-- Node217 -->
<g id="node6" class="node"><title>Node217</title>
<g id="a_node6"><a xlink:href="$_main_menu_8cpp.html" xlink:title="Модуль вывода главного меню программы. ">
<polygon fill="white" stroke="black" points="375,-0.5 375,-19.5 455,-19.5 455,-0.5 375,-0.5"/>
<text text-anchor="middle" x="415" y="-7.5" font-family="Helvetica,sans-Serif" font-size="10.00">MainMenu.cpp</text>
</a>
</g>
</g>
<!-- Node212&#45;&gt;Node217 -->
<g id="edge5" class="edge"><title>Node212&#45;&gt;Node217</title>
<path fill="none" stroke="midnightblue" d="M264.365,-55.208C299.093,-45.0162 352.931,-29.2159 385.96,-19.5225"/>
<polygon fill="midnightblue" stroke="midnightblue" points="263.288,-51.8765 254.678,-58.051 265.259,-58.5933 263.288,-51.8765"/>
</g>
</g>
</svg>
