<?xml version="1.0" encoding="UTF-8" standalone="no"?>
<!DOCTYPE svg PUBLIC "-//W3C//DTD SVG 1.1//EN"
 "http://www.w3.org/Graphics/SVG/1.1/DTD/svg11.dtd">
<!-- Generated by graphviz version 2.38.0 (20140413.2041)
 -->
<!-- Title: Exit.cpp Pages: 1 -->
<svg width="396pt" height="140pt"
 viewBox="0.00 0.00 396.00 140.00" xmlns="http://www.w3.org/2000/svg" xmlns:xlink="http://www.w3.org/1999/xlink">
<g id="graph0" class="graph" transform="scale(1 1) rotate(0) translate(4 136)">
<title>Exit.cpp</title>
<polygon fill="white" stroke="none" points="-4,4 -4,-136 392,-136 392,4 -4,4"/>
<!-- Node290 -->
<g id="node1" class="node"><title>Node290</title>
<polygon fill="#bfbfbf" stroke="black" points="132.5,-112.5 132.5,-131.5 185.5,-131.5 185.5,-112.5 132.5,-112.5"/>
<text text-anchor="middle" x="159" y="-119.5" font-family="Helvetica,sans-Serif" font-size="10.00">Exit.cpp</text>
</g>
<!-- Node291 -->
<g id="node2" class="node"><title>Node291</title>
<polygon fill="white" stroke="#bfbfbf" points="0,-56.5 0,-75.5 54,-75.5 54,-56.5 0,-56.5"/>
<text text-anchor="middle" x="27" y="-63.5" font-family="Helvetica,sans-Serif" font-size="10.00">iostream</text>
</g>
<!-- Node290&#45;&gt;Node291 -->
<g id="edge1" class="edge"><title>Node290&#45;&gt;Node291</title>
<path fill="none" stroke="midnightblue" d="M138.084,-112.444C116.264,-103.517 81.8502,-89.4387 57.1078,-79.3168"/>
<polygon fill="midnightblue" stroke="midnightblue" points="58.3987,-76.0634 47.8179,-75.5164 55.7482,-82.5422 58.3987,-76.0634"/>
</g>
<!-- Node292 -->
<g id="node3" class="node"><title>Node292</title>
<g id="a_node3"><a xlink:href="$_color_8h.html" xlink:title="Заголовочный файл с цветами и модулем смены цвета в консоли. ">
<polygon fill="white" stroke="black" points="72,-56.5 72,-75.5 150,-75.5 150,-56.5 72,-56.5"/>
<text text-anchor="middle" x="111" y="-63.5" font-family="Helvetica,sans-Serif" font-size="10.00">..\core\Color.h</text>
</a>
</g>
</g>
<!-- Node290&#45;&gt;Node292 -->
<g id="edge2" class="edge"><title>Node290&#45;&gt;Node292</title>
<path fill="none" stroke="midnightblue" d="M151.074,-112.083C144.154,-104.298 133.935,-92.8015 125.548,-83.3665"/>
<polygon fill="midnightblue" stroke="midnightblue" points="128.038,-80.8999 118.779,-75.7511 122.806,-85.5505 128.038,-80.8999"/>
</g>
<!-- Node293 -->
<g id="node4" class="node"><title>Node293</title>
<g id="a_node4"><a xlink:href="$_logo_8h.html" xlink:title="Заголовочный файл с логотипами. ">
<polygon fill="white" stroke="black" points="168.5,-56.5 168.5,-75.5 245.5,-75.5 245.5,-56.5 168.5,-56.5"/>
<text text-anchor="middle" x="207" y="-63.5" font-family="Helvetica,sans-Serif" font-size="10.00">..\core\Logo.h</text>
</a>
</g>
</g>
<!-- Node290&#45;&gt;Node293 -->
<g id="edge3" class="edge"><title>Node290&#45;&gt;Node293</title>
<path fill="none" stroke="midnightblue" d="M166.926,-112.083C173.846,-104.298 184.065,-92.8015 192.452,-83.3665"/>
<polygon fill="midnightblue" stroke="midnightblue" points="195.194,-85.5505 199.221,-75.7511 189.962,-80.8999 195.194,-85.5505"/>
</g>
<!-- Node295 -->
<g id="node6" class="node"><title>Node295</title>
<g id="a_node6"><a xlink:href="$_constants_menu_8h.html" xlink:title="Заголовочный файл с константами меню. ">
<polygon fill="white" stroke="black" points="264,-56.5 264,-75.5 388,-75.5 388,-56.5 264,-56.5"/>
<text text-anchor="middle" x="326" y="-63.5" font-family="Helvetica,sans-Serif" font-size="10.00">..\core\ConstantsMenu.h</text>
</a>
</g>
</g>
<!-- Node290&#45;&gt;Node295 -->
<g id="edge5" class="edge"><title>Node290&#45;&gt;Node295</title>
<path fill="none" stroke="midnightblue" d="M185.462,-112.444C213.678,-103.32 258.54,-88.8133 289.968,-78.6509"/>
<polygon fill="midnightblue" stroke="midnightblue" points="291.224,-81.9234 299.662,-75.5164 289.07,-75.263 291.224,-81.9234"/>
</g>
<!-- Node294 -->
<g id="node5" class="node"><title>Node294</title>
<polygon fill="white" stroke="#bfbfbf" points="245.5,-0.5 245.5,-19.5 286.5,-19.5 286.5,-0.5 245.5,-0.5"/>
<text text-anchor="middle" x="266" y="-7.5" font-family="Helvetica,sans-Serif" font-size="10.00">string</text>
</g>
<!-- Node293&#45;&gt;Node294 -->
<g id="edge4" class="edge"><title>Node293&#45;&gt;Node294</title>
<path fill="none" stroke="midnightblue" d="M216.479,-56.324C225.201,-48.3414 238.343,-36.3128 248.898,-26.6529"/>
<polygon fill="midnightblue" stroke="midnightblue" points="251.334,-29.1674 256.348,-19.8339 246.608,-24.0036 251.334,-29.1674"/>
</g>
<!-- Node295&#45;&gt;Node294 -->
<g id="edge6" class="edge"><title>Node295&#45;&gt;Node294</title>
<path fill="none" stroke="midnightblue" d="M316.36,-56.324C307.49,-48.3414 294.125,-36.3128 283.392,-26.6529"/>
<polygon fill="midnightblue" stroke="midnightblue" points="285.59,-23.922 275.815,-19.8339 280.907,-29.1251 285.59,-23.922"/>
</g>
</g>
</svg>
