<?xml version="1.0" encoding="UTF-8" standalone="no"?>
<!DOCTYPE svg PUBLIC "-//W3C//DTD SVG 1.1//EN"
 "http://www.w3.org/Graphics/SVG/1.1/DTD/svg11.dtd">
<!-- Generated by graphviz version 2.38.0 (20140413.2041)
 -->
<!-- Title: Initialization.cpp Pages: 1 -->
<svg width="453pt" height="140pt"
 viewBox="0.00 0.00 452.50 140.00" xmlns="http://www.w3.org/2000/svg" xmlns:xlink="http://www.w3.org/1999/xlink">
<g id="graph0" class="graph" transform="scale(1 1) rotate(0) translate(4 136)">
<title>Initialization.cpp</title>
<polygon fill="white" stroke="none" points="-4,4 -4,-136 448.5,-136 448.5,4 -4,4"/>
<!-- Node300 -->
<g id="node1" class="node"><title>Node300</title>
<polygon fill="#bfbfbf" stroke="black" points="168.5,-112.5 168.5,-131.5 254.5,-131.5 254.5,-112.5 168.5,-112.5"/>
<text text-anchor="middle" x="211.5" y="-119.5" font-family="Helvetica,sans-Serif" font-size="10.00">Initialization.cpp</text>
</g>
<!-- Node301 -->
<g id="node2" class="node"><title>Node301</title>
<polygon fill="white" stroke="#bfbfbf" points="0,-56.5 0,-75.5 49,-75.5 49,-56.5 0,-56.5"/>
<text text-anchor="middle" x="24.5" y="-63.5" font-family="Helvetica,sans-Serif" font-size="10.00">fstream</text>
</g>
<!-- Node300&#45;&gt;Node301 -->
<g id="edge1" class="edge"><title>Node300&#45;&gt;Node301</title>
<path fill="none" stroke="midnightblue" d="M181.869,-112.444C148.5,-102.808 94.341,-87.168 59.0695,-76.9826"/>
<polygon fill="midnightblue" stroke="midnightblue" points="59.793,-73.5486 49.2146,-74.1368 57.851,-80.2738 59.793,-73.5486"/>
</g>
<!-- Node302 -->
<g id="node3" class="node"><title>Node302</title>
<g id="a_node3"><a xlink:href="$_templates_8h.html" xlink:title="Заголовочный файл с подключением модуля создания стандартных файлов программы. ">
<polygon fill="white" stroke="black" points="67,-56.5 67,-75.5 156,-75.5 156,-56.5 67,-56.5"/>
<text text-anchor="middle" x="111.5" y="-63.5" font-family="Helvetica,sans-Serif" font-size="10.00">..\io\Templates.h</text>
</a>
</g>
</g>
<!-- Node300&#45;&gt;Node302 -->
<g id="edge2" class="edge"><title>Node300&#45;&gt;Node302</title>
<path fill="none" stroke="midnightblue" d="M195.433,-112.324C179.542,-103.743 154.993,-90.486 136.542,-80.5224"/>
<polygon fill="midnightblue" stroke="midnightblue" points="137.989,-77.3264 127.527,-75.6545 134.663,-83.4857 137.989,-77.3264"/>
</g>
<!-- Node303 -->
<g id="node4" class="node"><title>Node303</title>
<g id="a_node4"><a xlink:href="$_logger_8h.html" xlink:title="Заголовочный файл с подключением модуля логирования. ">
<polygon fill="white" stroke="black" points="174.5,-56.5 174.5,-75.5 248.5,-75.5 248.5,-56.5 174.5,-56.5"/>
<text text-anchor="middle" x="211.5" y="-63.5" font-family="Helvetica,sans-Serif" font-size="10.00">..\io\Logger.h</text>
</a>
</g>
</g>
<!-- Node300&#45;&gt;Node303 -->
<g id="edge3" class="edge"><title>Node300&#45;&gt;Node303</title>
<path fill="none" stroke="midnightblue" d="M211.5,-112.083C211.5,-105.006 211.5,-94.8611 211.5,-85.9865"/>
<polygon fill="midnightblue" stroke="midnightblue" points="215,-85.751 211.5,-75.7511 208,-85.7511 215,-85.751"/>
</g>
<!-- Node305 -->
<g id="node6" class="node"><title>Node305</title>
<g id="a_node6"><a xlink:href="$_constants_8h.html" xlink:title="Заголовочный файл с константами. ">
<polygon fill="white" stroke="black" points="267,-56.5 267,-75.5 336,-75.5 336,-56.5 267,-56.5"/>
<text text-anchor="middle" x="301.5" y="-63.5" font-family="Helvetica,sans-Serif" font-size="10.00">Constants.h</text>
</a>
</g>
</g>
<!-- Node300&#45;&gt;Node305 -->
<g id="edge5" class="edge"><title>Node300&#45;&gt;Node305</title>
<path fill="none" stroke="midnightblue" d="M225.96,-112.324C240,-103.9 261.548,-90.9709 278.043,-81.0741"/>
<polygon fill="midnightblue" stroke="midnightblue" points="280.302,-83.8007 287.076,-75.6545 276.7,-77.7983 280.302,-83.8007"/>
</g>
<!-- Node306 -->
<g id="node7" class="node"><title>Node306</title>
<g id="a_node7"><a xlink:href="$_load_scale_8h.html" xlink:title="Заголовочный файл с подключением модуля вывода шкалы загрузки. ">
<polygon fill="white" stroke="black" points="354.5,-56.5 354.5,-75.5 444.5,-75.5 444.5,-56.5 354.5,-56.5"/>
<text text-anchor="middle" x="399.5" y="-63.5" font-family="Helvetica,sans-Serif" font-size="10.00">..\ui\LoadScale.h</text>
</a>
</g>
</g>
<!-- Node300&#45;&gt;Node306 -->
<g id="edge6" class="edge"><title>Node300&#45;&gt;Node306</title>
<path fill="none" stroke="midnightblue" d="M241.289,-112.444C273.329,-103.241 324.433,-88.5617 359.853,-78.3879"/>
<polygon fill="midnightblue" stroke="midnightblue" points="361.205,-81.6412 369.85,-75.5164 359.273,-74.9132 361.205,-81.6412"/>
</g>
<!-- Node304 -->
<g id="node5" class="node"><title>Node304</title>
<polygon fill="white" stroke="#bfbfbf" points="191,-0.5 191,-19.5 232,-19.5 232,-0.5 191,-0.5"/>
<text text-anchor="middle" x="211.5" y="-7.5" font-family="Helvetica,sans-Serif" font-size="10.00">string</text>
</g>
<!-- Node303&#45;&gt;Node304 -->
<g id="edge4" class="edge"><title>Node303&#45;&gt;Node304</title>
<path fill="none" stroke="midnightblue" d="M211.5,-56.083C211.5,-49.0059 211.5,-38.8611 211.5,-29.9865"/>
<polygon fill="midnightblue" stroke="midnightblue" points="215,-29.751 211.5,-19.7511 208,-29.7511 215,-29.751"/>
</g>
</g>
</svg>
