<?xml version="1.0" encoding="UTF-8" standalone="no"?>
<!DOCTYPE svg PUBLIC "-//W3C//DTD SVG 1.1//EN"
 "http://www.w3.org/Graphics/SVG/1.1/DTD/svg11.dtd">
<!-- Generated by graphviz version 2.38.0 (20140413.2041)
 -->
<!-- Title: Items.cpp Pages: 1 -->
<svg width="446pt" height="140pt"
 viewBox="0.00 0.00 446.00 140.00" xmlns="http://www.w3.org/2000/svg" xmlns:xlink="http://www.w3.org/1999/xlink">
<g id="graph0" class="graph" transform="scale(1 1) rotate(0) translate(4 136)">
<title>Items.cpp</title>
<polygon fill="white" stroke="none" points="-4,4 -4,-136 442,-136 442,4 -4,4"/>
<!-- Node157 -->
<g id="node1" class="node"><title>Node157</title>
<polygon fill="#bfbfbf" stroke="black" points="176.5,-112.5 176.5,-131.5 235.5,-131.5 235.5,-112.5 176.5,-112.5"/>
<text text-anchor="middle" x="206" y="-119.5" font-family="Helvetica,sans-Serif" font-size="10.00">Items.cpp</text>
</g>
<!-- Node158 -->
<g id="node2" class="node"><title>Node158</title>
<polygon fill="white" stroke="#bfbfbf" points="0,-56.5 0,-75.5 54,-75.5 54,-56.5 0,-56.5"/>
<text text-anchor="middle" x="27" y="-63.5" font-family="Helvetica,sans-Serif" font-size="10.00">iostream</text>
</g>
<!-- Node157&#45;&gt;Node158 -->
<g id="edge1" class="edge"><title>Node157&#45;&gt;Node158</title>
<path fill="none" stroke="midnightblue" d="M177.637,-112.444C146.904,-103.172 97.7496,-88.3435 64.0005,-78.1622"/>
<polygon fill="midnightblue" stroke="midnightblue" points="64.6434,-74.7004 54.0587,-75.1629 62.6216,-81.4021 64.6434,-74.7004"/>
</g>
<!-- Node159 -->
<g id="node3" class="node"><title>Node159</title>
<polygon fill="white" stroke="#bfbfbf" points="72.5,-56.5 72.5,-75.5 137.5,-75.5 137.5,-56.5 72.5,-56.5"/>
<text text-anchor="middle" x="105" y="-63.5" font-family="Helvetica,sans-Serif" font-size="10.00">Windows.h</text>
</g>
<!-- Node157&#45;&gt;Node159 -->
<g id="edge2" class="edge"><title>Node157&#45;&gt;Node159</title>
<path fill="none" stroke="midnightblue" d="M189.773,-112.324C173.649,-103.703 148.7,-90.3643 130.036,-80.3855"/>
<polygon fill="midnightblue" stroke="midnightblue" points="131.656,-77.283 121.187,-75.6545 128.356,-83.456 131.656,-77.283"/>
</g>
<!-- Node160 -->
<g id="node4" class="node"><title>Node160</title>
<g id="a_node4"><a xlink:href="$_constants_8h.html" xlink:title="Заголовочный файл с константами. ">
<polygon fill="white" stroke="black" points="156,-56.5 156,-75.5 256,-75.5 256,-56.5 156,-56.5"/>
<text text-anchor="middle" x="206" y="-63.5" font-family="Helvetica,sans-Serif" font-size="10.00">..\core\Constants.h</text>
</a>
</g>
</g>
<!-- Node157&#45;&gt;Node160 -->
<g id="edge3" class="edge"><title>Node157&#45;&gt;Node160</title>
<path fill="none" stroke="midnightblue" d="M206,-112.083C206,-105.006 206,-94.8611 206,-85.9865"/>
<polygon fill="midnightblue" stroke="midnightblue" points="209.5,-85.751 206,-75.7511 202.5,-85.7511 209.5,-85.751"/>
</g>
<!-- Node162 -->
<g id="node6" class="node"><title>Node162</title>
<g id="a_node6"><a xlink:href="$_color_8h.html" xlink:title="Заголовочный файл с цветами и модулем смены цвета в консоли. ">
<polygon fill="white" stroke="black" points="274,-56.5 274,-75.5 352,-75.5 352,-56.5 274,-56.5"/>
<text text-anchor="middle" x="313" y="-63.5" font-family="Helvetica,sans-Serif" font-size="10.00">..\core\Color.h</text>
</a>
</g>
</g>
<!-- Node157&#45;&gt;Node162 -->
<g id="edge5" class="edge"><title>Node157&#45;&gt;Node162</title>
<path fill="none" stroke="midnightblue" d="M223.191,-112.324C240.351,-103.664 266.946,-90.2424 286.747,-80.249"/>
<polygon fill="midnightblue" stroke="midnightblue" points="288.501,-83.2847 295.851,-75.6545 285.347,-77.0354 288.501,-83.2847"/>
</g>
<!-- Node163 -->
<g id="node7" class="node"><title>Node163</title>
<g id="a_node7"><a xlink:href="$_menu_8h.html" xlink:title="Заголовочный файл с подключением модуля создания меню. ">
<polygon fill="white" stroke="black" points="370,-56.5 370,-75.5 438,-75.5 438,-56.5 370,-56.5"/>
<text text-anchor="middle" x="404" y="-63.5" font-family="Helvetica,sans-Serif" font-size="10.00">..\ui\Menu.h</text>
</a>
</g>
</g>
<!-- Node157&#45;&gt;Node163 -->
<g id="edge6" class="edge"><title>Node157&#45;&gt;Node163</title>
<path fill="none" stroke="midnightblue" d="M235.643,-112.916C269.412,-103.706 324.82,-88.5946 362.784,-78.2407"/>
<polygon fill="midnightblue" stroke="midnightblue" points="363.789,-81.5945 372.516,-75.5865 361.947,-74.8411 363.789,-81.5945"/>
</g>
<!-- Node161 -->
<g id="node5" class="node"><title>Node161</title>
<polygon fill="white" stroke="#bfbfbf" points="254.5,-0.5 254.5,-19.5 295.5,-19.5 295.5,-0.5 254.5,-0.5"/>
<text text-anchor="middle" x="275" y="-7.5" font-family="Helvetica,sans-Serif" font-size="10.00">string</text>
</g>
<!-- Node160&#45;&gt;Node161 -->
<g id="edge4" class="edge"><title>Node160&#45;&gt;Node161</title>
<path fill="none" stroke="midnightblue" d="M217.086,-56.324C227.486,-48.1849 243.261,-35.8395 255.722,-26.0874"/>
<polygon fill="midnightblue" stroke="midnightblue" points="257.994,-28.7533 263.712,-19.8339 253.68,-23.2407 257.994,-28.7533"/>
</g>
<!-- Node163&#45;&gt;Node161 -->
<g id="edge7" class="edge"><title>Node163&#45;&gt;Node161</title>
<path fill="none" stroke="midnightblue" d="M383.56,-56.4435C362.33,-47.5566 328.901,-33.5632 304.745,-23.4514"/>
<polygon fill="midnightblue" stroke="midnightblue" points="305.921,-20.1493 295.345,-19.5164 303.218,-26.6064 305.921,-20.1493"/>
</g>
<!-- Node164 -->
<g id="node8" class="node"><title>Node164</title>
<polygon fill="white" stroke="#bfbfbf" points="383,-0.5 383,-19.5 425,-19.5 425,-0.5 383,-0.5"/>
<text text-anchor="middle" x="404" y="-7.5" font-family="Helvetica,sans-Serif" font-size="10.00">vector</text>
</g>
<!-- Node163&#45;&gt;Node164 -->
<g id="edge8" class="edge"><title>Node163&#45;&gt;Node164</title>
<path fill="none" stroke="midnightblue" d="M404,-56.083C404,-49.0059 404,-38.8611 404,-29.9865"/>
<polygon fill="midnightblue" stroke="midnightblue" points="407.5,-29.751 404,-19.7511 400.5,-29.7511 407.5,-29.751"/>
</g>
</g>
</svg>
