<?xml version="1.0" encoding="UTF-8" standalone="no"?>
<!DOCTYPE svg PUBLIC "-//W3C//DTD SVG 1.1//EN"
 "http://www.w3.org/Graphics/SVG/1.1/DTD/svg11.dtd">
<!-- Generated by graphviz version 2.38.0 (20140413.2041)
 -->
<!-- Title: Logger.h Pages: 1 -->
<svg width="424pt" height="84pt"
 viewBox="0.00 0.00 423.50 84.00" xmlns="http://www.w3.org/2000/svg" xmlns:xlink="http://www.w3.org/1999/xlink">
<g id="graph0" class="graph" transform="scale(1 1) rotate(0) translate(4 80)">
<title>Logger.h</title>
<polygon fill="white" stroke="none" points="-4,4 -4,-80 419.5,-80 419.5,4 -4,4"/>
<!-- Node182 -->
<g id="node1" class="node"><title>Node182</title>
<polygon fill="#bfbfbf" stroke="black" points="187,-56.5 187,-75.5 241,-75.5 241,-56.5 187,-56.5"/>
<text text-anchor="middle" x="214" y="-63.5" font-family="Helvetica,sans-Serif" font-size="10.00">Logger.h</text>
</g>
<!-- Node183 -->
<g id="node2" class="node"><title>Node183</title>
<g id="a_node2"><a xlink:href="$_a_d_b__mod_8cpp.html" xlink:title="Модуль работы с adb. ">
<polygon fill="white" stroke="black" points="0,-0.5 0,-19.5 80,-19.5 80,-0.5 0,-0.5"/>
<text text-anchor="middle" x="40" y="-7.5" font-family="Helvetica,sans-Serif" font-size="10.00">ADB_mod.cpp</text>
</a>
</g>
</g>
<!-- Node182&#45;&gt;Node183 -->
<g id="edge1" class="edge"><title>Node182&#45;&gt;Node183</title>
<path fill="none" stroke="midnightblue" d="M177.139,-53.5604C144.364,-43.3887 97.1745,-28.7438 67.5708,-19.5565"/>
<polygon fill="midnightblue" stroke="midnightblue" points="176.224,-56.9412 186.813,-56.5625 178.299,-50.2557 176.224,-56.9412"/>
</g>
<!-- Node184 -->
<g id="node3" class="node"><title>Node184</title>
<g id="a_node3"><a xlink:href="$_main_8cpp.html" xlink:title="Главный файл программы ">
<polygon fill="white" stroke="black" points="98,-0.5 98,-19.5 154,-19.5 154,-0.5 98,-0.5"/>
<text text-anchor="middle" x="126" y="-7.5" font-family="Helvetica,sans-Serif" font-size="10.00">Main.cpp</text>
</a>
</g>
</g>
<!-- Node182&#45;&gt;Node184 -->
<g id="edge2" class="edge"><title>Node182&#45;&gt;Node184</title>
<path fill="none" stroke="midnightblue" d="M191.023,-50.9005C174.887,-40.9986 153.819,-28.0705 140.104,-19.6545"/>
<polygon fill="midnightblue" stroke="midnightblue" points="189.507,-54.0769 199.861,-56.324 193.169,-48.1106 189.507,-54.0769"/>
</g>
<!-- Node185 -->
<g id="node4" class="node"><title>Node185</title>
<g id="a_node4"><a xlink:href="$_operations_8cpp.html" xlink:title="Модуль проверки стандартных файлов программы и вызова алгоритма рутирования. ">
<polygon fill="white" stroke="black" points="172.5,-0.5 172.5,-19.5 255.5,-19.5 255.5,-0.5 172.5,-0.5"/>
<text text-anchor="middle" x="214" y="-7.5" font-family="Helvetica,sans-Serif" font-size="10.00">Operations.cpp</text>
</a>
</g>
</g>
<!-- Node182&#45;&gt;Node185 -->
<g id="edge3" class="edge"><title>Node182&#45;&gt;Node185</title>
<path fill="none" stroke="midnightblue" d="M214,-45.8045C214,-36.9102 214,-26.7798 214,-19.7511"/>
<polygon fill="midnightblue" stroke="midnightblue" points="210.5,-46.083 214,-56.083 217.5,-46.083 210.5,-46.083"/>
</g>
<!-- Node186 -->
<g id="node5" class="node"><title>Node186</title>
<g id="a_node5"><a xlink:href="$_logger_8cpp.html" xlink:title="Модуль логирования ">
<polygon fill="white" stroke="black" points="273.5,-0.5 273.5,-19.5 338.5,-19.5 338.5,-0.5 273.5,-0.5"/>
<text text-anchor="middle" x="306" y="-7.5" font-family="Helvetica,sans-Serif" font-size="10.00">Logger.cpp</text>
</a>
</g>
</g>
<!-- Node182&#45;&gt;Node186 -->
<g id="edge4" class="edge"><title>Node182&#45;&gt;Node186</title>
<path fill="none" stroke="midnightblue" d="M237.55,-51.1774C254.479,-41.2407 276.783,-28.1492 291.255,-19.6545"/>
<polygon fill="midnightblue" stroke="midnightblue" points="235.634,-48.2435 228.781,-56.324 239.177,-54.2804 235.634,-48.2435"/>
</g>
<!-- Node187 -->
<g id="node6" class="node"><title>Node187</title>
<g id="a_node6"><a xlink:href="$_menu_8cpp.html" xlink:title="Модуль создания меню. ">
<polygon fill="white" stroke="black" points="356.5,-0.5 356.5,-19.5 415.5,-19.5 415.5,-0.5 356.5,-0.5"/>
<text text-anchor="middle" x="386" y="-7.5" font-family="Helvetica,sans-Serif" font-size="10.00">Menu.cpp</text>
</a>
</g>
</g>
<!-- Node182&#45;&gt;Node187 -->
<g id="edge5" class="edge"><title>Node182&#45;&gt;Node187</title>
<path fill="none" stroke="midnightblue" d="M250.832,-53.4363C283.262,-43.2551 329.737,-28.664 358.874,-19.5164"/>
<polygon fill="midnightblue" stroke="midnightblue" points="249.746,-50.1088 241.254,-56.4435 251.843,-56.7874 249.746,-50.1088"/>
</g>
</g>
</svg>
