<?xml version="1.0" encoding="UTF-8" standalone="no"?>
<!DOCTYPE svg PUBLIC "-//W3C//DTD SVG 1.1//EN"
 "http://www.w3.org/Graphics/SVG/1.1/DTD/svg11.dtd">
<!-- Generated by graphviz version 2.38.0 (20140413.2041)
 -->
<!-- Title: Logger.h Pages: 1 -->
<svg width="252pt" height="84pt"
 viewBox="0.00 0.00 251.50 84.00" xmlns="http://www.w3.org/2000/svg" xmlns:xlink="http://www.w3.org/1999/xlink">
<g id="graph0" class="graph" transform="scale(1 1) rotate(0) translate(4 80)">
<title>Logger.h</title>
<polygon fill="white" stroke="none" points="-4,4 -4,-80 247.5,-80 247.5,4 -4,4"/>
<!-- Node274 -->
<g id="node1" class="node"><title>Node274</title>
<polygon fill="#bfbfbf" stroke="black" points="105,-56.5 105,-75.5 159,-75.5 159,-56.5 105,-56.5"/>
<text text-anchor="middle" x="132" y="-63.5" font-family="Helvetica,sans-Serif" font-size="10.00">Logger.h</text>
</g>
<!-- Node275 -->
<g id="node2" class="node"><title>Node275</title>
<g id="a_node2"><a xlink:href="$_initialization_8cpp.html" xlink:title="Модуль проверки стандартных файлов программы. ">
<polygon fill="white" stroke="black" points="0,-0.5 0,-19.5 86,-19.5 86,-0.5 0,-0.5"/>
<text text-anchor="middle" x="43" y="-7.5" font-family="Helvetica,sans-Serif" font-size="10.00">Initialization.cpp</text>
</a>
</g>
</g>
<!-- Node274&#45;&gt;Node275 -->
<g id="edge1" class="edge"><title>Node274&#45;&gt;Node275</title>
<path fill="none" stroke="midnightblue" d="M108.762,-50.9005C92.4422,-40.9986 71.1348,-28.0705 57.2639,-19.6545"/>
<polygon fill="midnightblue" stroke="midnightblue" points="107.336,-54.1289 117.701,-56.324 110.967,-48.1444 107.336,-54.1289"/>
</g>
<!-- Node276 -->
<g id="node3" class="node"><title>Node276</title>
<g id="a_node3"><a xlink:href="$_main_8cpp.html" xlink:title="Главный файл программы ">
<polygon fill="white" stroke="black" points="104,-0.5 104,-19.5 160,-19.5 160,-0.5 104,-0.5"/>
<text text-anchor="middle" x="132" y="-7.5" font-family="Helvetica,sans-Serif" font-size="10.00">Main.cpp</text>
</a>
</g>
</g>
<!-- Node274&#45;&gt;Node276 -->
<g id="edge2" class="edge"><title>Node274&#45;&gt;Node276</title>
<path fill="none" stroke="midnightblue" d="M132,-45.8045C132,-36.9102 132,-26.7798 132,-19.7511"/>
<polygon fill="midnightblue" stroke="midnightblue" points="128.5,-46.083 132,-56.083 135.5,-46.083 128.5,-46.083"/>
</g>
<!-- Node277 -->
<g id="node4" class="node"><title>Node277</title>
<g id="a_node4"><a xlink:href="$_logger_8cpp.html" xlink:title="Модуль логирования ">
<polygon fill="white" stroke="black" points="178.5,-0.5 178.5,-19.5 243.5,-19.5 243.5,-0.5 178.5,-0.5"/>
<text text-anchor="middle" x="211" y="-7.5" font-family="Helvetica,sans-Serif" font-size="10.00">Logger.cpp</text>
</a>
</g>
</g>
<!-- Node274&#45;&gt;Node277 -->
<g id="edge3" class="edge"><title>Node274&#45;&gt;Node277</title>
<path fill="none" stroke="midnightblue" d="M153.034,-50.6221C167.466,-40.7574 186.141,-27.9919 198.339,-19.6545"/>
<polygon fill="midnightblue" stroke="midnightblue" points="150.973,-47.7914 144.693,-56.324 154.923,-53.5703 150.973,-47.7914"/>
</g>
</g>
</svg>
