<?xml version="1.0" encoding="UTF-8" standalone="no"?>
<!DOCTYPE svg PUBLIC "-//W3C//DTD SVG 1.1//EN"
 "http://www.w3.org/Graphics/SVG/1.1/DTD/svg11.dtd">
<!-- Generated by graphviz version 2.38.0 (20140413.2041)
 -->
<!-- Title: Logo.h Pages: 1 -->
<svg width="577pt" height="84pt"
 viewBox="0.00 0.00 577.00 84.00" xmlns="http://www.w3.org/2000/svg" xmlns:xlink="http://www.w3.org/1999/xlink">
<g id="graph0" class="graph" transform="scale(1 1) rotate(0) translate(4 80)">
<title>Logo.h</title>
<polygon fill="white" stroke="none" points="-4,4 -4,-80 573,-80 573,4 -4,4"/>
<!-- Node343 -->
<g id="node1" class="node"><title>Node343</title>
<polygon fill="#bfbfbf" stroke="black" points="266,-56.5 266,-75.5 312,-75.5 312,-56.5 266,-56.5"/>
<text text-anchor="middle" x="289" y="-63.5" font-family="Helvetica,sans-Serif" font-size="10.00">Logo.h</text>
</g>
<!-- Node344 -->
<g id="node2" class="node"><title>Node344</title>
<g id="a_node2"><a xlink:href="$_check_agreement_8cpp.html" xlink:title="Модуль проверки согласия пользователя с правилами. ">
<polygon fill="white" stroke="black" points="0,-0.5 0,-19.5 110,-19.5 110,-0.5 0,-0.5"/>
<text text-anchor="middle" x="55" y="-7.5" font-family="Helvetica,sans-Serif" font-size="10.00">CheckAgreement.cpp</text>
</a>
</g>
</g>
<!-- Node343&#45;&gt;Node344 -->
<g id="edge1" class="edge"><title>Node343&#45;&gt;Node344</title>
<path fill="none" stroke="midnightblue" d="M255.959,-57.3751C212.694,-47.391 137.066,-29.9384 91.9489,-19.5267"/>
<polygon fill="midnightblue" stroke="midnightblue" points="255.177,-60.7866 265.708,-59.6249 256.751,-53.9658 255.177,-60.7866"/>
</g>
<!-- Node345 -->
<g id="node3" class="node"><title>Node345</title>
<g id="a_node3"><a xlink:href="$_exit_8cpp.html" xlink:title="Модуль выхода из программы. ">
<polygon fill="white" stroke="black" points="128.5,-0.5 128.5,-19.5 181.5,-19.5 181.5,-0.5 128.5,-0.5"/>
<text text-anchor="middle" x="155" y="-7.5" font-family="Helvetica,sans-Serif" font-size="10.00">Exit.cpp</text>
</a>
</g>
</g>
<!-- Node343&#45;&gt;Node345 -->
<g id="edge2" class="edge"><title>Node343&#45;&gt;Node345</title>
<path fill="none" stroke="midnightblue" d="M258.323,-52.6377C233.177,-42.504 198.246,-28.4274 176.133,-19.5164"/>
<polygon fill="midnightblue" stroke="midnightblue" points="257.184,-55.952 267.767,-56.4435 259.8,-49.4594 257.184,-55.952"/>
</g>
<!-- Node346 -->
<g id="node4" class="node"><title>Node346</title>
<g id="a_node4"><a xlink:href="$_load_scale_8cpp.html" xlink:title="Модуль вывода шкалы загрузки. ">
<polygon fill="white" stroke="black" points="199.5,-0.5 199.5,-19.5 280.5,-19.5 280.5,-0.5 199.5,-0.5"/>
<text text-anchor="middle" x="240" y="-7.5" font-family="Helvetica,sans-Serif" font-size="10.00">LoadScale.cpp</text>
</a>
</g>
</g>
<!-- Node343&#45;&gt;Node346 -->
<g id="edge3" class="edge"><title>Node343&#45;&gt;Node346</title>
<path fill="none" stroke="midnightblue" d="M273.966,-48.4314C265.378,-38.9673 254.957,-27.4827 247.941,-19.7511"/>
<polygon fill="midnightblue" stroke="midnightblue" points="271.597,-51.0293 280.909,-56.083 276.781,-46.3254 271.597,-51.0293"/>
</g>
<!-- Node347 -->
<g id="node5" class="node"><title>Node347</title>
<g id="a_node5"><a xlink:href="$_main_menu_8cpp.html" xlink:title="Модуль вывода главного меню программы. ">
<polygon fill="white" stroke="black" points="299,-0.5 299,-19.5 379,-19.5 379,-0.5 299,-0.5"/>
<text text-anchor="middle" x="339" y="-7.5" font-family="Helvetica,sans-Serif" font-size="10.00">MainMenu.cpp</text>
</a>
</g>
</g>
<!-- Node343&#45;&gt;Node347 -->
<g id="edge4" class="edge"><title>Node343&#45;&gt;Node347</title>
<path fill="none" stroke="midnightblue" d="M304.076,-48.7175C312.889,-39.1997 323.666,-27.5608 330.897,-19.7511"/>
<polygon fill="midnightblue" stroke="midnightblue" points="301.482,-46.3674 297.256,-56.083 306.619,-51.1233 301.482,-46.3674"/>
</g>
<!-- Node348 -->
<g id="node6" class="node"><title>Node348</title>
<g id="a_node6"><a xlink:href="$_manual_8cpp.html" xlink:title="Модуль инструкции. ">
<polygon fill="white" stroke="black" points="397.5,-0.5 397.5,-19.5 464.5,-19.5 464.5,-0.5 397.5,-0.5"/>
<text text-anchor="middle" x="431" y="-7.5" font-family="Helvetica,sans-Serif" font-size="10.00">Manual.cpp</text>
</a>
</g>
</g>
<!-- Node343&#45;&gt;Node348 -->
<g id="edge5" class="edge"><title>Node343&#45;&gt;Node348</title>
<path fill="none" stroke="midnightblue" d="M321.155,-52.772C347.828,-42.6287 385.069,-28.4669 408.605,-19.5164"/>
<polygon fill="midnightblue" stroke="midnightblue" points="319.603,-49.6176 311.5,-56.4435 322.091,-56.1604 319.603,-49.6176"/>
</g>
<!-- Node349 -->
<g id="node7" class="node"><title>Node349</title>
<g id="a_node7"><a xlink:href="$_query_menu_8cpp.html" xlink:title="Модуль сообщения с вопросом для пользователя. ">
<polygon fill="white" stroke="black" points="483,-0.5 483,-19.5 569,-19.5 569,-0.5 483,-0.5"/>
<text text-anchor="middle" x="526" y="-7.5" font-family="Helvetica,sans-Serif" font-size="10.00">QueryMenu.cpp</text>
</a>
</g>
</g>
<!-- Node343&#45;&gt;Node349 -->
<g id="edge6" class="edge"><title>Node343&#45;&gt;Node349</title>
<path fill="none" stroke="midnightblue" d="M321.99,-57.4832C365.677,-47.5292 442.533,-30.0177 488.414,-19.5639"/>
<polygon fill="midnightblue" stroke="midnightblue" points="321.129,-54.0898 312.156,-59.7239 322.684,-60.9149 321.129,-54.0898"/>
</g>
</g>
</svg>
