<?xml version="1.0" encoding="UTF-8" standalone="no"?>
<!DOCTYPE svg PUBLIC "-//W3C//DTD SVG 1.1//EN"
 "http://www.w3.org/Graphics/SVG/1.1/DTD/svg11.dtd">
<!-- Generated by graphviz version 2.38.0 (20140413.2041)
 -->
<!-- Title: Logger.cpp Pages: 1 -->
<svg width="431pt" height="140pt"
 viewBox="0.00 0.00 431.22 140.00" xmlns="http://www.w3.org/2000/svg" xmlns:xlink="http://www.w3.org/1999/xlink">
<g id="graph0" class="graph" transform="scale(1 1) rotate(0) translate(4 136)">
<title>Logger.cpp</title>
<polygon fill="white" stroke="none" points="-4,4 -4,-136 427.217,-136 427.217,4 -4,4"/>
<!-- Node323 -->
<g id="node1" class="node"><title>Node323</title>
<polygon fill="#bfbfbf" stroke="black" points="144.217,-112.5 144.217,-131.5 209.217,-131.5 209.217,-112.5 144.217,-112.5"/>
<text text-anchor="middle" x="176.717" y="-119.5" font-family="Helvetica,sans-Serif" font-size="10.00">Logger.cpp</text>
</g>
<!-- Node324 -->
<g id="node2" class="node"><title>Node324</title>
<polygon fill="white" stroke="#bfbfbf" points="131.217,-0.5 131.217,-19.5 172.217,-19.5 172.217,-0.5 131.217,-0.5"/>
<text text-anchor="middle" x="151.717" y="-7.5" font-family="Helvetica,sans-Serif" font-size="10.00">string</text>
</g>
<!-- Node323&#45;&gt;Node324 -->
<g id="edge1" class="edge"><title>Node323&#45;&gt;Node324</title>
<path fill="none" stroke="midnightblue" d="M143.979,-117.061C99.4306,-110.952 23.3374,-97.5924 6.71694,-76 -25.0953,-34.6712 69.156,-18.9354 120.627,-13.5316"/>
<polygon fill="midnightblue" stroke="midnightblue" points="121.288,-16.9839 130.901,-12.5298 120.608,-10.0169 121.288,-16.9839"/>
</g>
<!-- Node325 -->
<g id="node3" class="node"><title>Node325</title>
<polygon fill="white" stroke="#bfbfbf" points="16.2169,-56.5 16.2169,-75.5 65.2169,-75.5 65.2169,-56.5 16.2169,-56.5"/>
<text text-anchor="middle" x="40.7169" y="-63.5" font-family="Helvetica,sans-Serif" font-size="10.00">fstream</text>
</g>
<!-- Node323&#45;&gt;Node325 -->
<g id="edge2" class="edge"><title>Node323&#45;&gt;Node325</title>
<path fill="none" stroke="midnightblue" d="M155.167,-112.444C132.686,-103.517 97.2293,-89.4387 71.7371,-79.3168"/>
<polygon fill="midnightblue" stroke="midnightblue" points="72.7515,-75.9539 62.1657,-75.5164 70.1683,-82.4598 72.7515,-75.9539"/>
</g>
<!-- Node326 -->
<g id="node4" class="node"><title>Node326</title>
<polygon fill="white" stroke="#bfbfbf" points="83.7169,-56.5 83.7169,-75.5 127.717,-75.5 127.717,-56.5 83.7169,-56.5"/>
<text text-anchor="middle" x="105.717" y="-63.5" font-family="Helvetica,sans-Serif" font-size="10.00">thread</text>
</g>
<!-- Node323&#45;&gt;Node326 -->
<g id="edge3" class="edge"><title>Node323&#45;&gt;Node326</title>
<path fill="none" stroke="midnightblue" d="M165.31,-112.324C154.608,-104.185 138.376,-91.8395 125.554,-82.0874"/>
<polygon fill="midnightblue" stroke="midnightblue" points="127.41,-79.1018 117.332,-75.8339 123.173,-84.6734 127.41,-79.1018"/>
</g>
<!-- Node327 -->
<g id="node5" class="node"><title>Node327</title>
<polygon fill="white" stroke="#bfbfbf" points="145.717,-56.5 145.717,-75.5 207.717,-75.5 207.717,-56.5 145.717,-56.5"/>
<text text-anchor="middle" x="176.717" y="-63.5" font-family="Helvetica,sans-Serif" font-size="10.00">windows.h</text>
</g>
<!-- Node323&#45;&gt;Node327 -->
<g id="edge4" class="edge"><title>Node323&#45;&gt;Node327</title>
<path fill="none" stroke="midnightblue" d="M176.717,-112.083C176.717,-105.006 176.717,-94.8611 176.717,-85.9865"/>
<polygon fill="midnightblue" stroke="midnightblue" points="180.217,-85.751 176.717,-75.7511 173.217,-85.7511 180.217,-85.751"/>
</g>
<!-- Node328 -->
<g id="node6" class="node"><title>Node328</title>
<polygon fill="white" stroke="#bfbfbf" points="225.717,-56.5 225.717,-75.5 271.717,-75.5 271.717,-56.5 225.717,-56.5"/>
<text text-anchor="middle" x="248.717" y="-63.5" font-family="Helvetica,sans-Serif" font-size="10.00">stdio.h</text>
</g>
<!-- Node323&#45;&gt;Node328 -->
<g id="edge5" class="edge"><title>Node323&#45;&gt;Node328</title>
<path fill="none" stroke="midnightblue" d="M188.285,-112.324C199.137,-104.185 215.598,-91.8395 228.6,-82.0874"/>
<polygon fill="midnightblue" stroke="midnightblue" points="231.038,-84.6339 236.938,-75.8339 226.838,-79.0339 231.038,-84.6339"/>
</g>
<!-- Node329 -->
<g id="node7" class="node"><title>Node329</title>
<g id="a_node7"><a xlink:href="$_logger_8h.html" xlink:title="Заголовочный файл с подключением модуля логирования. ">
<polygon fill="white" stroke="black" points="289.717,-56.5 289.717,-75.5 343.717,-75.5 343.717,-56.5 289.717,-56.5"/>
<text text-anchor="middle" x="316.717" y="-63.5" font-family="Helvetica,sans-Serif" font-size="10.00">Logger.h</text>
</a>
</g>
</g>
<!-- Node323&#45;&gt;Node329 -->
<g id="edge6" class="edge"><title>Node323&#45;&gt;Node329</title>
<path fill="none" stroke="midnightblue" d="M198.9,-112.444C222.145,-103.478 258.866,-89.314 285.132,-79.1827"/>
<polygon fill="midnightblue" stroke="midnightblue" points="286.567,-82.3807 294.637,-75.5164 284.048,-75.8497 286.567,-82.3807"/>
</g>
<!-- Node330 -->
<g id="node8" class="node"><title>Node330</title>
<g id="a_node8"><a xlink:href="$_settings_8h.html" xlink:title="Заголовочный файл с подключением модуля настроек. ">
<polygon fill="white" stroke="black" points="362.217,-56.5 362.217,-75.5 423.217,-75.5 423.217,-56.5 362.217,-56.5"/>
<text text-anchor="middle" x="392.717" y="-63.5" font-family="Helvetica,sans-Serif" font-size="10.00">Settings.h</text>
</a>
</g>
</g>
<!-- Node323&#45;&gt;Node330 -->
<g id="edge8" class="edge"><title>Node323&#45;&gt;Node330</title>
<path fill="none" stroke="midnightblue" d="M209.523,-112.799C247.792,-103.231 311.067,-87.4125 352.324,-77.0981"/>
<polygon fill="midnightblue" stroke="midnightblue" points="353.202,-80.4866 362.054,-74.6657 351.504,-73.6956 353.202,-80.4866"/>
</g>
<!-- Node329&#45;&gt;Node324 -->
<g id="edge7" class="edge"><title>Node329&#45;&gt;Node324</title>
<path fill="none" stroke="midnightblue" d="M290.572,-56.4435C261.181,-46.8247 213.512,-31.2238 182.386,-21.0372"/>
<polygon fill="midnightblue" stroke="midnightblue" points="183.108,-17.5907 172.515,-17.8067 180.93,-24.2435 183.108,-17.5907"/>
</g>
</g>
</svg>
