<?xml version="1.0" encoding="UTF-8" standalone="no"?>
<!DOCTYPE svg PUBLIC "-//W3C//DTD SVG 1.1//EN"
 "http://www.w3.org/Graphics/SVG/1.1/DTD/svg11.dtd">
<!-- Generated by graphviz version 2.38.0 (20140413.2041)
 -->
<!-- Title: MainMenu.cpp Pages: 1 -->
<svg width="840pt" height="140pt"
 viewBox="0.00 0.00 839.50 140.00" xmlns="http://www.w3.org/2000/svg" xmlns:xlink="http://www.w3.org/1999/xlink">
<g id="graph0" class="graph" transform="scale(1 1) rotate(0) translate(4 136)">
<title>MainMenu.cpp</title>
<polygon fill="white" stroke="none" points="-4,4 -4,-136 835.5,-136 835.5,4 -4,4"/>
<!-- Node355 -->
<g id="node1" class="node"><title>Node355</title>
<polygon fill="#bfbfbf" stroke="black" points="259,-112.5 259,-131.5 339,-131.5 339,-112.5 259,-112.5"/>
<text text-anchor="middle" x="299" y="-119.5" font-family="Helvetica,sans-Serif" font-size="10.00">MainMenu.cpp</text>
</g>
<!-- Node356 -->
<g id="node2" class="node"><title>Node356</title>
<polygon fill="white" stroke="#bfbfbf" points="0,-56.5 0,-75.5 54,-75.5 54,-56.5 0,-56.5"/>
<text text-anchor="middle" x="27" y="-63.5" font-family="Helvetica,sans-Serif" font-size="10.00">iostream</text>
</g>
<!-- Node355&#45;&gt;Node356 -->
<g id="edge1" class="edge"><title>Node355&#45;&gt;Node356</title>
<path fill="none" stroke="midnightblue" d="M258.772,-114.044C213.709,-106.095 138.27,-92.3153 64.0718,-76.1394"/>
<polygon fill="midnightblue" stroke="midnightblue" points="64.6062,-72.6734 54.0881,-73.9464 63.1043,-79.5104 64.6062,-72.6734"/>
</g>
<!-- Node357 -->
<g id="node3" class="node"><title>Node357</title>
<polygon fill="white" stroke="#bfbfbf" points="72,-56.5 72,-75.5 120,-75.5 120,-56.5 72,-56.5"/>
<text text-anchor="middle" x="96" y="-63.5" font-family="Helvetica,sans-Serif" font-size="10.00">conio.h</text>
</g>
<!-- Node355&#45;&gt;Node357 -->
<g id="edge2" class="edge"><title>Node355&#45;&gt;Node357</title>
<path fill="none" stroke="midnightblue" d="M266.834,-112.444C229.535,-102.522 168.307,-86.2343 130.173,-76.0904"/>
<polygon fill="midnightblue" stroke="midnightblue" points="130.633,-72.591 120.069,-73.4026 128.833,-79.3557 130.633,-72.591"/>
</g>
<!-- Node358 -->
<g id="node4" class="node"><title>Node358</title>
<polygon fill="white" stroke="#bfbfbf" points="397.5,-0.5 397.5,-19.5 438.5,-19.5 438.5,-0.5 397.5,-0.5"/>
<text text-anchor="middle" x="418" y="-7.5" font-family="Helvetica,sans-Serif" font-size="10.00">string</text>
</g>
<!-- Node355&#45;&gt;Node358 -->
<g id="edge3" class="edge"><title>Node355&#45;&gt;Node358</title>
<path fill="none" stroke="midnightblue" d="M258.686,-115.826C210.119,-107.969 138.397,-90.1875 167,-56 194.737,-22.8477 326.205,-14.0887 387.013,-11.7987"/>
<polygon fill="midnightblue" stroke="midnightblue" points="387.29,-15.2914 397.165,-11.4523 387.051,-8.29545 387.29,-15.2914"/>
</g>
<!-- Node359 -->
<g id="node5" class="node"><title>Node359</title>
<polygon fill="white" stroke="#bfbfbf" points="176.5,-56.5 176.5,-75.5 241.5,-75.5 241.5,-56.5 176.5,-56.5"/>
<text text-anchor="middle" x="209" y="-63.5" font-family="Helvetica,sans-Serif" font-size="10.00">Windows.h</text>
</g>
<!-- Node355&#45;&gt;Node359 -->
<g id="edge4" class="edge"><title>Node355&#45;&gt;Node359</title>
<path fill="none" stroke="midnightblue" d="M284.54,-112.324C270.5,-103.9 248.952,-90.9709 232.457,-81.0741"/>
<polygon fill="midnightblue" stroke="midnightblue" points="233.8,-77.7983 223.424,-75.6545 230.198,-83.8007 233.8,-77.7983"/>
</g>
<!-- Node360 -->
<g id="node6" class="node"><title>Node360</title>
<g id="a_node6"><a xlink:href="$_color_8h.html" xlink:title="Заголовочный файл с цветами и модулем смены цвета в консоли. ">
<polygon fill="white" stroke="black" points="260,-56.5 260,-75.5 338,-75.5 338,-56.5 260,-56.5"/>
<text text-anchor="middle" x="299" y="-63.5" font-family="Helvetica,sans-Serif" font-size="10.00">..\core\Color.h</text>
</a>
</g>
</g>
<!-- Node355&#45;&gt;Node360 -->
<g id="edge5" class="edge"><title>Node355&#45;&gt;Node360</title>
<path fill="none" stroke="midnightblue" d="M299,-112.083C299,-105.006 299,-94.8611 299,-85.9865"/>
<polygon fill="midnightblue" stroke="midnightblue" points="302.5,-85.751 299,-75.7511 295.5,-85.7511 302.5,-85.751"/>
</g>
<!-- Node361 -->
<g id="node7" class="node"><title>Node361</title>
<g id="a_node7"><a xlink:href="$_constants_menu_8h.html" xlink:title="Заголовочный файл с константами меню. ">
<polygon fill="white" stroke="black" points="356,-56.5 356,-75.5 480,-75.5 480,-56.5 356,-56.5"/>
<text text-anchor="middle" x="418" y="-63.5" font-family="Helvetica,sans-Serif" font-size="10.00">..\core\ConstantsMenu.h</text>
</a>
</g>
</g>
<!-- Node355&#45;&gt;Node361 -->
<g id="edge6" class="edge"><title>Node355&#45;&gt;Node361</title>
<path fill="none" stroke="midnightblue" d="M317.856,-112.444C337.266,-103.636 367.73,-89.8116 389.965,-79.722"/>
<polygon fill="midnightblue" stroke="midnightblue" points="391.572,-82.836 399.232,-75.5164 388.68,-76.4615 391.572,-82.836"/>
</g>
<!-- Node362 -->
<g id="node8" class="node"><title>Node362</title>
<g id="a_node8"><a xlink:href="$_logo_8h.html" xlink:title="Заголовочный файл с логотипами. ">
<polygon fill="white" stroke="black" points="498.5,-56.5 498.5,-75.5 575.5,-75.5 575.5,-56.5 498.5,-56.5"/>
<text text-anchor="middle" x="537" y="-63.5" font-family="Helvetica,sans-Serif" font-size="10.00">..\core\Logo.h</text>
</a>
</g>
</g>
<!-- Node355&#45;&gt;Node362 -->
<g id="edge8" class="edge"><title>Node355&#45;&gt;Node362</title>
<path fill="none" stroke="midnightblue" d="M336.712,-112.444C378.143,-103.043 444.757,-87.9291 489.667,-77.7393"/>
<polygon fill="midnightblue" stroke="midnightblue" points="490.487,-81.1424 499.465,-75.5164 488.938,-74.3159 490.487,-81.1424"/>
</g>
<!-- Node363 -->
<g id="node9" class="node"><title>Node363</title>
<g id="a_node9"><a xlink:href="$_a_d_b__slave_8h.html" xlink:title="Заголовочный файл с подключением модуля работы с adb. ">
<polygon fill="white" stroke="black" points="593.5,-56.5 593.5,-75.5 696.5,-75.5 696.5,-56.5 593.5,-56.5"/>
<text text-anchor="middle" x="645" y="-63.5" font-family="Helvetica,sans-Serif" font-size="10.00">..\core\ADB_slave.h</text>
</a>
</g>
</g>
<!-- Node355&#45;&gt;Node363 -->
<g id="edge10" class="edge"><title>Node355&#45;&gt;Node363</title>
<path fill="none" stroke="midnightblue" d="M339.029,-114.753C398.964,-105.399 512.518,-87.6765 583.166,-76.6504"/>
<polygon fill="midnightblue" stroke="midnightblue" points="583.926,-80.0743 593.266,-75.074 582.846,-73.158 583.926,-80.0743"/>
</g>
<!-- Node364 -->
<g id="node10" class="node"><title>Node364</title>
<g id="a_node10"><a xlink:href="$_checking_files_8h.html" xlink:title="Заголовочный файл с вызовом модуля проверки файлов для рутирования телефона. ">
<polygon fill="white" stroke="black" points="714.5,-56.5 714.5,-75.5 831.5,-75.5 831.5,-56.5 714.5,-56.5"/>
<text text-anchor="middle" x="773" y="-63.5" font-family="Helvetica,sans-Serif" font-size="10.00">..\core\CheckingFiles.h</text>
</a>
</g>
</g>
<!-- Node355&#45;&gt;Node364 -->
<g id="edge11" class="edge"><title>Node355&#45;&gt;Node364</title>
<path fill="none" stroke="midnightblue" d="M339.185,-116.872C410.545,-109.473 564.324,-93.221 704.142,-76.2062"/>
<polygon fill="midnightblue" stroke="midnightblue" points="704.682,-79.6664 714.184,-74.9799 703.833,-72.718 704.682,-79.6664"/>
</g>
<!-- Node361&#45;&gt;Node358 -->
<g id="edge7" class="edge"><title>Node361&#45;&gt;Node358</title>
<path fill="none" stroke="midnightblue" d="M418,-56.083C418,-49.0059 418,-38.8611 418,-29.9865"/>
<polygon fill="midnightblue" stroke="midnightblue" points="421.5,-29.751 418,-19.7511 414.5,-29.7511 421.5,-29.751"/>
</g>
<!-- Node362&#45;&gt;Node358 -->
<g id="edge9" class="edge"><title>Node362&#45;&gt;Node358</title>
<path fill="none" stroke="midnightblue" d="M518.144,-56.4435C498.734,-47.6356 468.27,-33.8116 446.035,-23.722"/>
<polygon fill="midnightblue" stroke="midnightblue" points="447.32,-20.4615 436.768,-19.5164 444.428,-26.836 447.32,-20.4615"/>
</g>
</g>
</svg>
