<?xml version="1.0" encoding="UTF-8" standalone="no"?>
<!DOCTYPE svg PUBLIC "-//W3C//DTD SVG 1.1//EN"
 "http://www.w3.org/Graphics/SVG/1.1/DTD/svg11.dtd">
<!-- Generated by graphviz version 2.38.0 (20140413.2041)
 -->
<!-- Title: Main.cpp Pages: 1 -->
<svg width="393pt" height="140pt"
 viewBox="0.00 0.00 392.81 140.00" xmlns="http://www.w3.org/2000/svg" xmlns:xlink="http://www.w3.org/1999/xlink">
<g id="graph0" class="graph" transform="scale(1 1) rotate(0) translate(4 136)">
<title>Main.cpp</title>
<polygon fill="white" stroke="none" points="-4,4 -4,-136 388.814,-136 388.814,4 -4,4"/>
<!-- Node191 -->
<g id="node1" class="node"><title>Node191</title>
<polygon fill="#bfbfbf" stroke="black" points="147.814,-112.5 147.814,-131.5 203.814,-131.5 203.814,-112.5 147.814,-112.5"/>
<text text-anchor="middle" x="175.814" y="-119.5" font-family="Helvetica,sans-Serif" font-size="10.00">Main.cpp</text>
</g>
<!-- Node192 -->
<g id="node2" class="node"><title>Node192</title>
<polygon fill="white" stroke="#bfbfbf" points="199.314,-0.5 199.314,-19.5 240.314,-19.5 240.314,-0.5 199.314,-0.5"/>
<text text-anchor="middle" x="219.814" y="-7.5" font-family="Helvetica,sans-Serif" font-size="10.00">string</text>
</g>
<!-- Node191&#45;&gt;Node192 -->
<g id="edge1" class="edge"><title>Node191&#45;&gt;Node192</title>
<path fill="none" stroke="midnightblue" d="M147.415,-119.887C90.0377,-116.623 -31.0629,-103.995 7.81406,-56 30.2472,-28.3053 135.579,-16.9564 188.829,-12.9274"/>
<polygon fill="midnightblue" stroke="midnightblue" points="189.324,-16.401 199.049,-12.1959 188.824,-9.41884 189.324,-16.401"/>
</g>
<!-- Node193 -->
<g id="node3" class="node"><title>Node193</title>
<g id="a_node3"><a xlink:href="$_operations_8h.html" xlink:title="Заголовочный файл с вызовом модуля проверки стандартных файлов программы и вызова алгоритма рутирован...">
<polygon fill="white" stroke="black" points="17.3141,-56.5 17.3141,-75.5 120.314,-75.5 120.314,-56.5 17.3141,-56.5"/>
<text text-anchor="middle" x="68.8141" y="-63.5" font-family="Helvetica,sans-Serif" font-size="10.00">..\core\Operations.h</text>
</a>
</g>
</g>
<!-- Node191&#45;&gt;Node193 -->
<g id="edge2" class="edge"><title>Node191&#45;&gt;Node193</title>
<path fill="none" stroke="midnightblue" d="M158.623,-112.324C141.463,-103.664 114.868,-90.2424 95.0668,-80.249"/>
<polygon fill="midnightblue" stroke="midnightblue" points="96.4673,-77.0354 85.9628,-75.6545 93.3134,-83.2847 96.4673,-77.0354"/>
</g>
<!-- Node194 -->
<g id="node4" class="node"><title>Node194</title>
<g id="a_node4"><a xlink:href="$_logger_8h.html" xlink:title="Заголовочный файл с подключением модуля логирования. ">
<polygon fill="white" stroke="black" points="138.814,-56.5 138.814,-75.5 212.814,-75.5 212.814,-56.5 138.814,-56.5"/>
<text text-anchor="middle" x="175.814" y="-63.5" font-family="Helvetica,sans-Serif" font-size="10.00">..\io\Logger.h</text>
</a>
</g>
</g>
<!-- Node191&#45;&gt;Node194 -->
<g id="edge3" class="edge"><title>Node191&#45;&gt;Node194</title>
<path fill="none" stroke="midnightblue" d="M175.814,-112.083C175.814,-105.006 175.814,-94.8611 175.814,-85.9865"/>
<polygon fill="midnightblue" stroke="midnightblue" points="179.314,-85.751 175.814,-75.7511 172.314,-85.7511 179.314,-85.751"/>
</g>
<!-- Node195 -->
<g id="node5" class="node"><title>Node195</title>
<g id="a_node5"><a xlink:href="$_menu_8h.html" xlink:title="Заголовочный файл с подключением модуля создания меню. ">
<polygon fill="white" stroke="black" points="316.814,-56.5 316.814,-75.5 384.814,-75.5 384.814,-56.5 316.814,-56.5"/>
<text text-anchor="middle" x="350.814" y="-63.5" font-family="Helvetica,sans-Serif" font-size="10.00">..\ui\Menu.h</text>
</a>
</g>
</g>
<!-- Node191&#45;&gt;Node195 -->
<g id="edge5" class="edge"><title>Node191&#45;&gt;Node195</title>
<path fill="none" stroke="midnightblue" d="M203.543,-112.444C233.24,-103.28 280.53,-88.6876 313.483,-78.5192"/>
<polygon fill="midnightblue" stroke="midnightblue" points="314.691,-81.8094 323.215,-75.5164 312.627,-75.1206 314.691,-81.8094"/>
</g>
<!-- Node197 -->
<g id="node7" class="node"><title>Node197</title>
<g id="a_node7"><a xlink:href="$_items_8h.html" xlink:title="Заголовочный файл с подключением меню. ">
<polygon fill="white" stroke="black" points="230.814,-56.5 230.814,-75.5 298.814,-75.5 298.814,-56.5 230.814,-56.5"/>
<text text-anchor="middle" x="264.814" y="-63.5" font-family="Helvetica,sans-Serif" font-size="10.00">..\ui\Items.h</text>
</a>
</g>
</g>
<!-- Node191&#45;&gt;Node197 -->
<g id="edge8" class="edge"><title>Node191&#45;&gt;Node197</title>
<path fill="none" stroke="midnightblue" d="M190.113,-112.324C203.997,-103.9 225.306,-90.9709 241.618,-81.0741"/>
<polygon fill="midnightblue" stroke="midnightblue" points="243.816,-83.8341 250.55,-75.6545 240.185,-77.8495 243.816,-83.8341"/>
</g>
<!-- Node194&#45;&gt;Node192 -->
<g id="edge4" class="edge"><title>Node194&#45;&gt;Node192</title>
<path fill="none" stroke="midnightblue" d="M183.08,-56.083C189.359,-48.3768 198.602,-37.0333 206.245,-27.6531"/>
<polygon fill="midnightblue" stroke="midnightblue" points="209.08,-29.7143 212.684,-19.7511 203.653,-25.2926 209.08,-29.7143"/>
</g>
<!-- Node195&#45;&gt;Node192 -->
<g id="edge6" class="edge"><title>Node195&#45;&gt;Node192</title>
<path fill="none" stroke="midnightblue" d="M330.057,-56.4435C308.498,-47.5566 274.551,-33.5632 250.02,-23.4514"/>
<polygon fill="midnightblue" stroke="midnightblue" points="251.053,-20.0917 240.474,-19.5164 248.386,-26.5634 251.053,-20.0917"/>
</g>
<!-- Node196 -->
<g id="node6" class="node"><title>Node196</title>
<polygon fill="white" stroke="#bfbfbf" points="329.814,-0.5 329.814,-19.5 371.814,-19.5 371.814,-0.5 329.814,-0.5"/>
<text text-anchor="middle" x="350.814" y="-7.5" font-family="Helvetica,sans-Serif" font-size="10.00">vector</text>
</g>
<!-- Node195&#45;&gt;Node196 -->
<g id="edge7" class="edge"><title>Node195&#45;&gt;Node196</title>
<path fill="none" stroke="midnightblue" d="M350.814,-56.083C350.814,-49.0059 350.814,-38.8611 350.814,-29.9865"/>
<polygon fill="midnightblue" stroke="midnightblue" points="354.314,-29.751 350.814,-19.7511 347.314,-29.7511 354.314,-29.751"/>
</g>
<!-- Node197&#45;&gt;Node192 -->
<g id="edge9" class="edge"><title>Node197&#45;&gt;Node192</title>
<path fill="none" stroke="midnightblue" d="M257.383,-56.083C250.961,-48.3768 241.509,-37.0333 233.692,-27.6531"/>
<polygon fill="midnightblue" stroke="midnightblue" points="236.197,-25.1927 227.107,-19.7511 230.82,-29.674 236.197,-25.1927"/>
</g>
</g>
</svg>
