<?xml version="1.0" encoding="UTF-8" standalone="no"?>
<!DOCTYPE svg PUBLIC "-//W3C//DTD SVG 1.1//EN"
 "http://www.w3.org/Graphics/SVG/1.1/DTD/svg11.dtd">
<!-- Generated by graphviz version 2.38.0 (20140413.2041)
 -->
<!-- Title: QueryMenu.cpp Pages: 1 -->
<svg width="584pt" height="140pt"
 viewBox="0.00 0.00 584.00 140.00" xmlns="http://www.w3.org/2000/svg" xmlns:xlink="http://www.w3.org/1999/xlink">
<g id="graph0" class="graph" transform="scale(1 1) rotate(0) translate(4 136)">
<title>QueryMenu.cpp</title>
<polygon fill="white" stroke="none" points="-4,4 -4,-136 580,-136 580,4 -4,4"/>
<!-- Node381 -->
<g id="node1" class="node"><title>Node381</title>
<polygon fill="#bfbfbf" stroke="black" points="166,-112.5 166,-131.5 252,-131.5 252,-112.5 166,-112.5"/>
<text text-anchor="middle" x="209" y="-119.5" font-family="Helvetica,sans-Serif" font-size="10.00">QueryMenu.cpp</text>
</g>
<!-- Node382 -->
<g id="node2" class="node"><title>Node382</title>
<polygon fill="white" stroke="#bfbfbf" points="0,-56.5 0,-75.5 54,-75.5 54,-56.5 0,-56.5"/>
<text text-anchor="middle" x="27" y="-63.5" font-family="Helvetica,sans-Serif" font-size="10.00">iostream</text>
</g>
<!-- Node381&#45;&gt;Node382 -->
<g id="edge1" class="edge"><title>Node381&#45;&gt;Node382</title>
<path fill="none" stroke="midnightblue" d="M180.162,-112.444C148.688,-103.105 98.2117,-88.1287 63.8788,-77.9421"/>
<polygon fill="midnightblue" stroke="midnightblue" points="64.7998,-74.5646 54.2173,-75.0755 62.8086,-81.2754 64.7998,-74.5646"/>
</g>
<!-- Node383 -->
<g id="node3" class="node"><title>Node383</title>
<polygon fill="white" stroke="#bfbfbf" points="72,-56.5 72,-75.5 120,-75.5 120,-56.5 72,-56.5"/>
<text text-anchor="middle" x="96" y="-63.5" font-family="Helvetica,sans-Serif" font-size="10.00">conio.h</text>
</g>
<!-- Node381&#45;&gt;Node383 -->
<g id="edge2" class="edge"><title>Node381&#45;&gt;Node383</title>
<path fill="none" stroke="midnightblue" d="M191.095,-112.444C172.746,-103.675 143.995,-89.9355 122.906,-79.8579"/>
<polygon fill="midnightblue" stroke="midnightblue" points="124.353,-76.6703 113.821,-75.5164 121.335,-82.9862 124.353,-76.6703"/>
</g>
<!-- Node384 -->
<g id="node4" class="node"><title>Node384</title>
<polygon fill="white" stroke="#bfbfbf" points="374.5,-0.5 374.5,-19.5 415.5,-19.5 415.5,-0.5 374.5,-0.5"/>
<text text-anchor="middle" x="395" y="-7.5" font-family="Helvetica,sans-Serif" font-size="10.00">string</text>
</g>
<!-- Node381&#45;&gt;Node384 -->
<g id="edge3" class="edge"><title>Node381&#45;&gt;Node384</title>
<path fill="none" stroke="midnightblue" d="M196.322,-112.369C178.948,-99.501 151.559,-74.7868 167,-56 191.609,-26.0588 307.69,-15.7134 364.091,-12.4146"/>
<polygon fill="midnightblue" stroke="midnightblue" points="364.417,-15.9021 374.211,-11.8613 364.035,-8.91252 364.417,-15.9021"/>
</g>
<!-- Node385 -->
<g id="node5" class="node"><title>Node385</title>
<polygon fill="white" stroke="#bfbfbf" points="176.5,-56.5 176.5,-75.5 241.5,-75.5 241.5,-56.5 176.5,-56.5"/>
<text text-anchor="middle" x="209" y="-63.5" font-family="Helvetica,sans-Serif" font-size="10.00">Windows.h</text>
</g>
<!-- Node381&#45;&gt;Node385 -->
<g id="edge4" class="edge"><title>Node381&#45;&gt;Node385</title>
<path fill="none" stroke="midnightblue" d="M209,-112.083C209,-105.006 209,-94.8611 209,-85.9865"/>
<polygon fill="midnightblue" stroke="midnightblue" points="212.5,-85.751 209,-75.7511 205.5,-85.7511 212.5,-85.751"/>
</g>
<!-- Node386 -->
<g id="node6" class="node"><title>Node386</title>
<g id="a_node6"><a xlink:href="$_color_8h.html" xlink:title="Заголовочный файл с цветами и модулем смены цвета в консоли. ">
<polygon fill="white" stroke="black" points="260,-56.5 260,-75.5 338,-75.5 338,-56.5 260,-56.5"/>
<text text-anchor="middle" x="299" y="-63.5" font-family="Helvetica,sans-Serif" font-size="10.00">..\core\Color.h</text>
</a>
</g>
</g>
<!-- Node381&#45;&gt;Node386 -->
<g id="edge5" class="edge"><title>Node381&#45;&gt;Node386</title>
<path fill="none" stroke="midnightblue" d="M223.46,-112.324C237.5,-103.9 259.048,-90.9709 275.543,-81.0741"/>
<polygon fill="midnightblue" stroke="midnightblue" points="277.802,-83.8007 284.576,-75.6545 274.2,-77.7983 277.802,-83.8007"/>
</g>
<!-- Node387 -->
<g id="node7" class="node"><title>Node387</title>
<g id="a_node7"><a xlink:href="$_logo_8h.html" xlink:title="Заголовочный файл с логотипами. ">
<polygon fill="white" stroke="black" points="356.5,-56.5 356.5,-75.5 433.5,-75.5 433.5,-56.5 356.5,-56.5"/>
<text text-anchor="middle" x="395" y="-63.5" font-family="Helvetica,sans-Serif" font-size="10.00">..\core\Logo.h</text>
</a>
</g>
</g>
<!-- Node381&#45;&gt;Node387 -->
<g id="edge6" class="edge"><title>Node381&#45;&gt;Node387</title>
<path fill="none" stroke="midnightblue" d="M238.472,-112.444C270.171,-103.241 320.732,-88.5617 355.775,-78.3879"/>
<polygon fill="midnightblue" stroke="midnightblue" points="357.038,-81.6658 365.666,-75.5164 355.086,-74.9434 357.038,-81.6658"/>
</g>
<!-- Node388 -->
<g id="node8" class="node"><title>Node388</title>
<g id="a_node8"><a xlink:href="$_constants_menu_8h.html" xlink:title="Заголовочный файл с константами меню. ">
<polygon fill="white" stroke="black" points="452,-56.5 452,-75.5 576,-75.5 576,-56.5 452,-56.5"/>
<text text-anchor="middle" x="514" y="-63.5" font-family="Helvetica,sans-Serif" font-size="10.00">..\core\ConstantsMenu.h</text>
</a>
</g>
</g>
<!-- Node381&#45;&gt;Node388 -->
<g id="edge8" class="edge"><title>Node381&#45;&gt;Node388</title>
<path fill="none" stroke="midnightblue" d="M252.052,-113.378C305.372,-103.937 396.421,-87.8173 455.896,-77.2872"/>
<polygon fill="midnightblue" stroke="midnightblue" points="456.651,-80.708 465.888,-75.5182 455.431,-73.8152 456.651,-80.708"/>
</g>
<!-- Node387&#45;&gt;Node384 -->
<g id="edge7" class="edge"><title>Node387&#45;&gt;Node384</title>
<path fill="none" stroke="midnightblue" d="M395,-56.083C395,-49.0059 395,-38.8611 395,-29.9865"/>
<polygon fill="midnightblue" stroke="midnightblue" points="398.5,-29.751 395,-19.7511 391.5,-29.7511 398.5,-29.751"/>
</g>
<!-- Node388&#45;&gt;Node384 -->
<g id="edge9" class="edge"><title>Node388&#45;&gt;Node384</title>
<path fill="none" stroke="midnightblue" d="M495.144,-56.4435C475.734,-47.6356 445.27,-33.8116 423.035,-23.722"/>
<polygon fill="midnightblue" stroke="midnightblue" points="424.32,-20.4615 413.768,-19.5164 421.428,-26.836 424.32,-20.4615"/>
</g>
</g>
</svg>
