<?xml version="1.0" encoding="UTF-8" standalone="no"?>
<!DOCTYPE svg PUBLIC "-//W3C//DTD SVG 1.1//EN"
 "http://www.w3.org/Graphics/SVG/1.1/DTD/svg11.dtd">
<!-- Generated by graphviz version 2.38.0 (20140413.2041)
 -->
<!-- Title: Settings.cpp Pages: 1 -->
<svg width="235pt" height="84pt"
 viewBox="0.00 0.00 234.50 84.00" xmlns="http://www.w3.org/2000/svg" xmlns:xlink="http://www.w3.org/1999/xlink">
<g id="graph0" class="graph" transform="scale(1 1) rotate(0) translate(4 80)">
<title>Settings.cpp</title>
<polygon fill="white" stroke="none" points="-4,4 -4,-80 230.5,-80 230.5,4 -4,4"/>
<!-- Node326 -->
<g id="node1" class="node"><title>Node326</title>
<polygon fill="#bfbfbf" stroke="black" points="52,-56.5 52,-75.5 123,-75.5 123,-56.5 52,-56.5"/>
<text text-anchor="middle" x="87.5" y="-63.5" font-family="Helvetica,sans-Serif" font-size="10.00">Settings.cpp</text>
</g>
<!-- Node327 -->
<g id="node2" class="node"><title>Node327</title>
<polygon fill="white" stroke="#bfbfbf" points="0,-0.5 0,-19.5 49,-19.5 49,-0.5 0,-0.5"/>
<text text-anchor="middle" x="24.5" y="-7.5" font-family="Helvetica,sans-Serif" font-size="10.00">fstream</text>
</g>
<!-- Node326&#45;&gt;Node327 -->
<g id="edge1" class="edge"><title>Node326&#45;&gt;Node327</title>
<path fill="none" stroke="midnightblue" d="M77.378,-56.324C67.9736,-48.2631 53.7559,-36.0765 42.431,-26.3695"/>
<polygon fill="midnightblue" stroke="midnightblue" points="44.6766,-23.6844 34.8062,-19.8339 40.121,-28.9993 44.6766,-23.6844"/>
</g>
<!-- Node328 -->
<g id="node3" class="node"><title>Node328</title>
<polygon fill="white" stroke="#bfbfbf" points="67,-0.5 67,-19.5 108,-19.5 108,-0.5 67,-0.5"/>
<text text-anchor="middle" x="87.5" y="-7.5" font-family="Helvetica,sans-Serif" font-size="10.00">string</text>
</g>
<!-- Node326&#45;&gt;Node328 -->
<g id="edge2" class="edge"><title>Node326&#45;&gt;Node328</title>
<path fill="none" stroke="midnightblue" d="M87.5,-56.083C87.5,-49.0059 87.5,-38.8611 87.5,-29.9865"/>
<polygon fill="midnightblue" stroke="midnightblue" points="91.0001,-29.751 87.5,-19.7511 84.0001,-29.7511 91.0001,-29.751"/>
</g>
<!-- Node329 -->
<g id="node4" class="node"><title>Node329</title>
<g id="a_node4"><a xlink:href="$_constants_8h.html" xlink:title="Заголовочный файл с константами. ">
<polygon fill="white" stroke="black" points="126.5,-0.5 126.5,-19.5 226.5,-19.5 226.5,-0.5 126.5,-0.5"/>
<text text-anchor="middle" x="176.5" y="-7.5" font-family="Helvetica,sans-Serif" font-size="10.00">../core/Constants.h</text>
</a>
</g>
</g>
<!-- Node326&#45;&gt;Node329 -->
<g id="edge3" class="edge"><title>Node326&#45;&gt;Node329</title>
<path fill="none" stroke="midnightblue" d="M101.799,-56.324C115.683,-47.9002 136.992,-34.9709 153.304,-25.0741"/>
<polygon fill="midnightblue" stroke="midnightblue" points="155.502,-27.8341 162.236,-19.6545 151.871,-21.8495 155.502,-27.8341"/>
</g>
</g>
</svg>
