<?xml version="1.0" encoding="UTF-8" standalone="no"?>
<!DOCTYPE svg PUBLIC "-//W3C//DTD SVG 1.1//EN"
 "http://www.w3.org/Graphics/SVG/1.1/DTD/svg11.dtd">
<!-- Generated by graphviz version 2.38.0 (20140413.2041)
 -->
<!-- Title: Settings.cpp Pages: 1 -->
<svg width="214pt" height="140pt"
 viewBox="0.00 0.00 213.50 140.00" xmlns="http://www.w3.org/2000/svg" xmlns:xlink="http://www.w3.org/1999/xlink">
<g id="graph0" class="graph" transform="scale(1 1) rotate(0) translate(4 136)">
<title>Settings.cpp</title>
<polygon fill="white" stroke="none" points="-4,4 -4,-136 209.5,-136 209.5,4 -4,4"/>
<!-- Node235 -->
<g id="node1" class="node"><title>Node235</title>
<polygon fill="#bfbfbf" stroke="black" points="42,-112.5 42,-131.5 113,-131.5 113,-112.5 42,-112.5"/>
<text text-anchor="middle" x="77.5" y="-119.5" font-family="Helvetica,sans-Serif" font-size="10.00">Settings.cpp</text>
</g>
<!-- Node236 -->
<g id="node2" class="node"><title>Node236</title>
<polygon fill="white" stroke="#bfbfbf" points="0,-56.5 0,-75.5 49,-75.5 49,-56.5 0,-56.5"/>
<text text-anchor="middle" x="24.5" y="-63.5" font-family="Helvetica,sans-Serif" font-size="10.00">fstream</text>
</g>
<!-- Node235&#45;&gt;Node236 -->
<g id="edge1" class="edge"><title>Node235&#45;&gt;Node236</title>
<path fill="none" stroke="midnightblue" d="M68.7481,-112.083C61.0303,-104.22 49.5953,-92.5688 40.2835,-83.0813"/>
<polygon fill="midnightblue" stroke="midnightblue" points="42.5916,-80.4363 33.089,-75.7511 37.5958,-85.3396 42.5916,-80.4363"/>
</g>
<!-- Node237 -->
<g id="node3" class="node"><title>Node237</title>
<polygon fill="white" stroke="#bfbfbf" points="96,-0.5 96,-19.5 137,-19.5 137,-0.5 96,-0.5"/>
<text text-anchor="middle" x="116.5" y="-7.5" font-family="Helvetica,sans-Serif" font-size="10.00">string</text>
</g>
<!-- Node235&#45;&gt;Node237 -->
<g id="edge2" class="edge"><title>Node235&#45;&gt;Node237</title>
<path fill="none" stroke="midnightblue" d="M79.6039,-112.469C82.7827,-99.9328 89.2175,-75.87 96.5,-56 99.8098,-46.9694 104.073,-37.1855 107.812,-29.0543"/>
<polygon fill="midnightblue" stroke="midnightblue" points="111.067,-30.3585 112.158,-19.8199 104.733,-27.378 111.067,-30.3585"/>
</g>
<!-- Node238 -->
<g id="node4" class="node"><title>Node238</title>
<g id="a_node4"><a xlink:href="$_constants_8h.html" xlink:title="Заголовочный файл с константами. ">
<polygon fill="white" stroke="black" points="105.5,-56.5 105.5,-75.5 205.5,-75.5 205.5,-56.5 105.5,-56.5"/>
<text text-anchor="middle" x="155.5" y="-63.5" font-family="Helvetica,sans-Serif" font-size="10.00">../core/Constants.h</text>
</a>
</g>
</g>
<!-- Node235&#45;&gt;Node238 -->
<g id="edge3" class="edge"><title>Node235&#45;&gt;Node238</title>
<path fill="none" stroke="midnightblue" d="M90.032,-112.324C102.086,-103.979 120.527,-91.2122 134.769,-81.3524"/>
<polygon fill="midnightblue" stroke="midnightblue" points="136.769,-84.2243 142.999,-75.6545 132.785,-78.469 136.769,-84.2243"/>
</g>
<!-- Node238&#45;&gt;Node237 -->
<g id="edge4" class="edge"><title>Node238&#45;&gt;Node237</title>
<path fill="none" stroke="midnightblue" d="M149.06,-56.083C143.551,-48.4554 135.469,-37.2645 128.735,-27.9408"/>
<polygon fill="midnightblue" stroke="midnightblue" points="131.513,-25.8087 122.82,-19.7511 125.838,-29.9071 131.513,-25.8087"/>
</g>
</g>
</svg>
