<?xml version="1.0" encoding="UTF-8" standalone="no"?>
<!DOCTYPE svg PUBLIC "-//W3C//DTD SVG 1.1//EN"
 "http://www.w3.org/Graphics/SVG/1.1/DTD/svg11.dtd">
<!-- Generated by graphviz version 2.38.0 (20140413.2041)
 -->
<!-- Title: Templates.cpp Pages: 1 -->
<svg width="264pt" height="84pt"
 viewBox="0.00 0.00 263.50 84.00" xmlns="http://www.w3.org/2000/svg" xmlns:xlink="http://www.w3.org/1999/xlink">
<g id="graph0" class="graph" transform="scale(1 1) rotate(0) translate(4 80)">
<title>Templates.cpp</title>
<polygon fill="white" stroke="none" points="-4,4 -4,-80 259.5,-80 259.5,4 -4,4"/>
<!-- Node423 -->
<g id="node1" class="node"><title>Node423</title>
<polygon fill="#bfbfbf" stroke="black" points="62.5,-56.5 62.5,-75.5 142.5,-75.5 142.5,-56.5 62.5,-56.5"/>
<text text-anchor="middle" x="102.5" y="-63.5" font-family="Helvetica,sans-Serif" font-size="10.00">Templates.cpp</text>
</g>
<!-- Node424 -->
<g id="node2" class="node"><title>Node424</title>
<polygon fill="white" stroke="#bfbfbf" points="0,-0.5 0,-19.5 49,-19.5 49,-0.5 0,-0.5"/>
<text text-anchor="middle" x="24.5" y="-7.5" font-family="Helvetica,sans-Serif" font-size="10.00">fstream</text>
</g>
<!-- Node423&#45;&gt;Node424 -->
<g id="edge1" class="edge"><title>Node423&#45;&gt;Node424</title>
<path fill="none" stroke="midnightblue" d="M89.968,-56.324C77.9141,-47.979 59.4732,-35.2122 45.2313,-25.3524"/>
<polygon fill="midnightblue" stroke="midnightblue" points="47.2151,-22.469 37.0009,-19.6545 43.2306,-28.2243 47.2151,-22.469"/>
</g>
<!-- Node425 -->
<g id="node3" class="node"><title>Node425</title>
<g id="a_node3"><a xlink:href="$_templates_8h.html" xlink:title="Заголовочный файл с подключением модуля создания стандартных файлов программы. ">
<polygon fill="white" stroke="black" points="67.5,-0.5 67.5,-19.5 137.5,-19.5 137.5,-0.5 67.5,-0.5"/>
<text text-anchor="middle" x="102.5" y="-7.5" font-family="Helvetica,sans-Serif" font-size="10.00">Templates.h</text>
</a>
</g>
</g>
<!-- Node423&#45;&gt;Node425 -->
<g id="edge2" class="edge"><title>Node423&#45;&gt;Node425</title>
<path fill="none" stroke="midnightblue" d="M102.5,-56.083C102.5,-49.0059 102.5,-38.8611 102.5,-29.9865"/>
<polygon fill="midnightblue" stroke="midnightblue" points="106,-29.751 102.5,-19.7511 99.0001,-29.7511 106,-29.751"/>
</g>
<!-- Node426 -->
<g id="node4" class="node"><title>Node426</title>
<g id="a_node4"><a xlink:href="$_constants_8h.html" xlink:title="Заголовочный файл с константами. ">
<polygon fill="white" stroke="black" points="155.5,-0.5 155.5,-19.5 255.5,-19.5 255.5,-0.5 155.5,-0.5"/>
<text text-anchor="middle" x="205.5" y="-7.5" font-family="Helvetica,sans-Serif" font-size="10.00">..\core\Constants.h</text>
</a>
</g>
</g>
<!-- Node423&#45;&gt;Node426 -->
<g id="edge3" class="edge"><title>Node423&#45;&gt;Node426</title>
<path fill="none" stroke="midnightblue" d="M119.049,-56.324C135.492,-47.7034 160.935,-34.3643 179.968,-24.3855"/>
<polygon fill="midnightblue" stroke="midnightblue" points="181.761,-27.3977 188.992,-19.6545 178.511,-21.198 181.761,-27.3977"/>
</g>
</g>
</svg>
