<?xml version="1.0" encoding="UTF-8" standalone="no"?>
<!DOCTYPE svg PUBLIC "-//W3C//DTD SVG 1.1//EN"
 "http://www.w3.org/Graphics/SVG/1.1/DTD/svg11.dtd">
<!-- Generated by graphviz version 2.38.0 (20140413.2041)
 -->
<!-- Title: Templates.h Pages: 1 -->
<svg width="192pt" height="84pt"
 viewBox="0.00 0.00 192.00 84.00" xmlns="http://www.w3.org/2000/svg" xmlns:xlink="http://www.w3.org/1999/xlink">
<g id="graph0" class="graph" transform="scale(1 1) rotate(0) translate(4 80)">
<title>Templates.h</title>
<polygon fill="white" stroke="none" points="-4,4 -4,-80 188,-80 188,4 -4,4"/>
<!-- Node429 -->
<g id="node1" class="node"><title>Node429</title>
<polygon fill="#bfbfbf" stroke="black" points="58,-56.5 58,-75.5 128,-75.5 128,-56.5 58,-56.5"/>
<text text-anchor="middle" x="93" y="-63.5" font-family="Helvetica,sans-Serif" font-size="10.00">Templates.h</text>
</g>
<!-- Node430 -->
<g id="node2" class="node"><title>Node430</title>
<g id="a_node2"><a xlink:href="$_initialization_8cpp.html" xlink:title="Модуль проверки стандартных файлов программы. ">
<polygon fill="white" stroke="black" points="0,-0.5 0,-19.5 86,-19.5 86,-0.5 0,-0.5"/>
<text text-anchor="middle" x="43" y="-7.5" font-family="Helvetica,sans-Serif" font-size="10.00">Initialization.cpp</text>
</a>
</g>
</g>
<!-- Node429&#45;&gt;Node430 -->
<g id="edge1" class="edge"><title>Node429&#45;&gt;Node430</title>
<path fill="none" stroke="midnightblue" d="M77.9237,-48.7175C69.1109,-39.1997 58.3341,-27.5608 51.1028,-19.7511"/>
<polygon fill="midnightblue" stroke="midnightblue" points="75.3812,-51.1233 84.7435,-56.083 80.5176,-46.3674 75.3812,-51.1233"/>
</g>
<!-- Node431 -->
<g id="node3" class="node"><title>Node431</title>
<g id="a_node3"><a xlink:href="$_templates_8cpp.html" xlink:title="Функции для создания стандартных файлов программы. ">
<polygon fill="white" stroke="black" points="104,-0.5 104,-19.5 184,-19.5 184,-0.5 104,-0.5"/>
<text text-anchor="middle" x="144" y="-7.5" font-family="Helvetica,sans-Serif" font-size="10.00">Templates.cpp</text>
</a>
</g>
</g>
<!-- Node429&#45;&gt;Node431 -->
<g id="edge2" class="edge"><title>Node429&#45;&gt;Node431</title>
<path fill="none" stroke="midnightblue" d="M108.378,-48.7175C117.367,-39.1997 128.359,-27.5608 135.735,-19.7511"/>
<polygon fill="midnightblue" stroke="midnightblue" points="105.743,-46.4096 101.422,-56.083 110.832,-51.216 105.743,-46.4096"/>
</g>
</g>
</svg>
