<?xml version="1.0" encoding="UTF-8" standalone="no"?>
<!DOCTYPE svg PUBLIC "-//W3C//DTD SVG 1.1//EN"
 "http://www.w3.org/Graphics/SVG/1.1/DTD/svg11.dtd">
<!-- Generated by graphviz version 2.38.0 (20140413.2041)
 -->
<!-- Title: src Pages: 1 -->
<svg width="166pt" height="220pt"
 viewBox="0.00 0.00 166.00 220.00" xmlns="http://www.w3.org/2000/svg" xmlns:xlink="http://www.w3.org/1999/xlink">
<g id="graph0" class="graph" transform="scale(1 1) rotate(0) translate(4 216)">
<title>src</title>
<polygon fill="white" stroke="none" points="-4,4 -4,-216 162,-216 162,4 -4,4"/>
<g id="clust1" class="cluster"><title>clusterdir_68267d1309a1af8e8297ef4c3efbcdba</title>
<g id="a_clust1"><a xlink:href="dir_68267d1309a1af8e8297ef4c3efbcdba.html">
<polygon fill="#eeeeff" stroke="black" points="8,-8 8,-204 150,-204 150,-8 8,-8"/>
</a>
</g>
</g>
<!-- dir_68267d1309a1af8e8297ef4c3efbcdba -->
<g id="node1" class="node"><title>dir_68267d1309a1af8e8297ef4c3efbcdba</title>
<text text-anchor="middle" x="115" y="-175.5" font-family="Helvetica,sans-Serif" font-size="10.00">src</text>
</g>
<!-- dir_aebb8dcc11953d78e620bbef0b9e2183 -->
<g id="node2" class="node"><title>dir_aebb8dcc11953d78e620bbef0b9e2183</title>
<g id="a_node2"><a xlink:href="dir_aebb8dcc11953d78e620bbef0b9e2183.html" xlink:title="core">
<polygon fill="white" stroke="black" points="70,-196 16,-196 16,-160 70,-160 70,-196"/>
<text text-anchor="middle" x="43" y="-175.5" font-family="Helvetica,sans-Serif" font-size="10.00">core</text>
</a>
</g>
</g>
<!-- dir_c184e51c84f2c3f0345bbc8a0d75d3e1 -->
<g id="node3" class="node"><title>dir_c184e51c84f2c3f0345bbc8a0d75d3e1</title>
<g id="a_node3"><a xlink:href="dir_c184e51c84f2c3f0345bbc8a0d75d3e1.html" xlink:title="io">
<polygon fill="white" stroke="black" points="70,-52 16,-52 16,-16 70,-16 70,-52"/>
<text text-anchor="middle" x="43" y="-31.5" font-family="Helvetica,sans-Serif" font-size="10.00">io</text>
</a>
</g>
</g>
<!-- dir_aebb8dcc11953d78e620bbef0b9e2183&#45;&gt;dir_c184e51c84f2c3f0345bbc8a0d75d3e1 -->
<g id="edge2" class="edge"><title>dir_aebb8dcc11953d78e620bbef0b9e2183&#45;&gt;dir_c184e51c84f2c3f0345bbc8a0d75d3e1</title>
<path fill="none" stroke="black" d="M38.4155,-159.871C35.8571,-135.67 35.5656,-91.2108 37.541,-62.3932"/>
<polygon fill="black" stroke="black" points="41.0487,-62.45 38.4091,-52.1893 34.0739,-61.8566 41.0487,-62.45"/>
<g id="a_edge2&#45;headlabel"><a xlink:href="dir_000001_000003.html" xlink:title="6">
<text text-anchor="middle" x="43.5732" y="-63.7723" font-family="Helvetica,sans-Serif" font-size="10.00">6</text>
</a>
</g>
</g>
<!-- dir_da5c6b39c0a2f54e57df6799511cd3ab -->
<g id="node4" class="node"><title>dir_da5c6b39c0a2f54e57df6799511cd3ab</title>
<g id="a_node4"><a xlink:href="dir_da5c6b39c0a2f54e57df6799511cd3ab.html" xlink:title="ui">
<polygon fill="white" stroke="black" points="116,-124 62,-124 62,-88 116,-88 116,-124"/>
<text text-anchor="middle" x="89" y="-103.5" font-family="Helvetica,sans-Serif" font-size="10.00">ui</text>
</a>
</g>
</g>
<!-- dir_aebb8dcc11953d78e620bbef0b9e2183&#45;&gt;dir_da5c6b39c0a2f54e57df6799511cd3ab -->
<g id="edge3" class="edge"><title>dir_aebb8dcc11953d78e620bbef0b9e2183&#45;&gt;dir_da5c6b39c0a2f54e57df6799511cd3ab</title>
<path fill="none" stroke="black" d="M48.4551,-159.697C53.0103,-151.474 59.3742,-141.483 65.7749,-132.421"/>
<polygon fill="black" stroke="black" points="68.7805,-134.24 71.865,-124.104 63.1329,-130.104 68.7805,-134.24"/>
<g id="a_edge3&#45;headlabel"><a xlink:href="dir_000001_000002.html" xlink:title="7">
<text text-anchor="middle" x="68.9475" y="-136.318" font-family="Helvetica,sans-Serif" font-size="10.00">7</text>
</a>
</g>
</g>
<!-- dir_c184e51c84f2c3f0345bbc8a0d75d3e1&#45;&gt;dir_aebb8dcc11953d78e620bbef0b9e2183 -->
<g id="edge1" class="edge"><title>dir_c184e51c84f2c3f0345bbc8a0d75d3e1&#45;&gt;dir_aebb8dcc11953d78e620bbef0b9e2183</title>
<path fill="none" stroke="black" d="M47.5909,-52.1893C50.1455,-76.4244 50.4332,-120.888 48.454,-149.679"/>
<polygon fill="black" stroke="black" points="44.9473,-149.61 47.5845,-159.871 51.9219,-150.205 44.9473,-149.61"/>
<g id="a_edge1&#45;headlabel"><a xlink:href="dir_000003_000001.html" xlink:title="3">
<text text-anchor="middle" x="42.4237" y="-143.287" font-family="Helvetica,sans-Serif" font-size="10.00">3</text>
</a>
</g>
</g>
<!-- dir_da5c6b39c0a2f54e57df6799511cd3ab&#45;&gt;dir_aebb8dcc11953d78e620bbef0b9e2183 -->
<g id="edge5" class="edge"><title>dir_da5c6b39c0a2f54e57df6799511cd3ab&#45;&gt;dir_aebb8dcc11953d78e620bbef0b9e2183</title>
<path fill="none" stroke="black" d="M83.655,-124.104C79.1292,-132.298 72.7802,-142.282 66.3803,-151.359"/>
<polygon fill="black" stroke="black" points="63.3618,-149.558 60.2865,-159.697 69.0132,-153.689 63.3618,-149.558"/>
<g id="a_edge5&#45;headlabel"><a xlink:href="dir_000002_000001.html" xlink:title="20">
<text text-anchor="middle" x="63.1907" y="-142.48" font-family="Helvetica,sans-Serif" font-size="10.00">20</text>
</a>
</g>
</g>
<!-- dir_da5c6b39c0a2f54e57df6799511cd3ab&#45;&gt;dir_c184e51c84f2c3f0345bbc8a0d75d3e1 -->
<g id="edge4" class="edge"><title>dir_da5c6b39c0a2f54e57df6799511cd3ab&#45;&gt;dir_c184e51c84f2c3f0345bbc8a0d75d3e1</title>
<path fill="none" stroke="black" d="M77.6292,-87.6966C72.2815,-79.5589 65.7957,-69.689 59.8894,-60.7013"/>
<polygon fill="black" stroke="black" points="62.6568,-58.5393 54.24,-52.1043 56.8068,-62.3835 62.6568,-58.5393"/>
<g id="a_edge4&#45;headlabel"><a xlink:href="dir_000002_000003.html" xlink:title="1">
<text text-anchor="middle" x="67.0036" y="-57.484" font-family="Helvetica,sans-Serif" font-size="10.00">1</text>
</a>
</g>
</g>
</g>
</svg>
