<?xml version="1.0" encoding="UTF-8" standalone="no"?>
<!DOCTYPE svg PUBLIC "-//W3C//DTD SVG 1.1//EN"
 "http://www.w3.org/Graphics/SVG/1.1/DTD/svg11.dtd">
<!-- Generated by graphviz version 2.38.0 (20140413.2041)
 -->
<!-- Title: ADB_mod.h Pages: 1 -->
<svg width="190pt" height="84pt"
 viewBox="0.00 0.00 189.50 84.00" xmlns="http://www.w3.org/2000/svg" xmlns:xlink="http://www.w3.org/1999/xlink">
<g id="graph0" class="graph" transform="scale(1 1) rotate(0) translate(4 80)">
<title>ADB_mod.h</title>
<polygon fill="white" stroke="none" points="-4,4 -4,-80 185.5,-80 185.5,4 -4,4"/>
<!-- Node2 -->
<g id="node1" class="node"><title>Node2</title>
<polygon fill="#bfbfbf" stroke="black" points="55.5,-56.5 55.5,-75.5 124.5,-75.5 124.5,-56.5 55.5,-56.5"/>
<text text-anchor="middle" x="90" y="-63.5" font-family="Helvetica,sans-Serif" font-size="10.00">ADB_mod.h</text>
</g>
<!-- Node3 -->
<g id="node2" class="node"><title>Node3</title>
<g id="a_node2"><a xlink:href="_a_d_b__mod_8cpp.html" target="_top" xlink:title="Модуль работы с adb. ">
<polygon fill="white" stroke="black" points="0,-0.5 0,-19.5 80,-19.5 80,-0.5 0,-0.5"/>
<text text-anchor="middle" x="40" y="-7.5" font-family="Helvetica,sans-Serif" font-size="10.00">ADB_mod.cpp</text>
</a>
</g>
</g>
<!-- Node2&#45;&gt;Node3 -->
<g id="edge1" class="edge"><title>Node2&#45;&gt;Node3</title>
<path fill="none" stroke="midnightblue" d="M74.9237,-48.7175C66.1109,-39.1997 55.3341,-27.5608 48.1028,-19.7511"/>
<polygon fill="midnightblue" stroke="midnightblue" points="72.3812,-51.1233 81.7435,-56.083 77.5176,-46.3674 72.3812,-51.1233"/>
</g>
<!-- Node4 -->
<g id="node3" class="node"><title>Node4</title>
<g id="a_node3"><a xlink:href="_operations_8cpp.html" target="_top" xlink:title="Модуль проверки стандартных файлов программы и вызова алгоритма рутирования. ">
<polygon fill="white" stroke="black" points="98.5,-0.5 98.5,-19.5 181.5,-19.5 181.5,-0.5 98.5,-0.5"/>
<text text-anchor="middle" x="140" y="-7.5" font-family="Helvetica,sans-Serif" font-size="10.00">Operations.cpp</text>
</a>
</g>
</g>
<!-- Node2&#45;&gt;Node4 -->
<g id="edge2" class="edge"><title>Node2&#45;&gt;Node4</title>
<path fill="none" stroke="midnightblue" d="M105.076,-48.7175C113.889,-39.1997 124.666,-27.5608 131.897,-19.7511"/>
<polygon fill="midnightblue" stroke="midnightblue" points="102.482,-46.3674 98.2565,-56.083 107.619,-51.1233 102.482,-46.3674"/>
</g>
</g>
</svg>
