<?xml version="1.0" encoding="UTF-8" standalone="no"?>
<!DOCTYPE svg PUBLIC "-//W3C//DTD SVG 1.1//EN"
 "http://www.w3.org/Graphics/SVG/1.1/DTD/svg11.dtd">
<!-- Generated by graphviz version 2.38.0 (20140413.2041)
 -->
<!-- Title: CheckingFiles.cpp Pages: 1 -->
<svg width="621pt" height="140pt"
 viewBox="0.00 0.00 620.85 140.00" xmlns="http://www.w3.org/2000/svg" xmlns:xlink="http://www.w3.org/1999/xlink">
<g id="graph0" class="graph" transform="scale(1 1) rotate(0) translate(4 136)">
<title>CheckingFiles.cpp</title>
<polygon fill="white" stroke="none" points="-4,4 -4,-136 616.852,-136 616.852,4 -4,4"/>
<!-- Node0 -->
<g id="node1" class="node"><title>Node0</title>
<polygon fill="#bfbfbf" stroke="black" points="191.852,-112.5 191.852,-131.5 288.852,-131.5 288.852,-112.5 191.852,-112.5"/>
<text text-anchor="middle" x="240.352" y="-119.5" font-family="Helvetica,sans-Serif" font-size="10.00">CheckingFiles.cpp</text>
</g>
<!-- Node1 -->
<g id="node2" class="node"><title>Node1</title>
<polygon fill="white" stroke="#bfbfbf" points="333.852,-0.5 333.852,-19.5 374.852,-19.5 374.852,-0.5 333.852,-0.5"/>
<text text-anchor="middle" x="354.352" y="-7.5" font-family="Helvetica,sans-Serif" font-size="10.00">string</text>
</g>
<!-- Node0&#45;&gt;Node1 -->
<g id="edge1" class="edge"><title>Node0&#45;&gt;Node1</title>
<path fill="none" stroke="midnightblue" d="M191.676,-118.798C129.648,-114.854 27.6502,-104.16 4.35205,-76 -1.31421,-69.1512 -1.51892,-62.6741 4.35205,-56 25.3121,-32.1726 241.618,-17.4371 323.328,-12.6848"/>
<polygon fill="midnightblue" stroke="midnightblue" points="323.705,-16.1691 333.49,-12.1052 323.307,-9.18044 323.705,-16.1691"/>
</g>
<!-- Node2 -->
<g id="node3" class="node"><title>Node2</title>
<polygon fill="white" stroke="#bfbfbf" points="13.3521,-56.5 13.3521,-75.5 45.3521,-75.5 45.3521,-56.5 13.3521,-56.5"/>
<text text-anchor="middle" x="29.3521" y="-63.5" font-family="Helvetica,sans-Serif" font-size="10.00">io.h</text>
</g>
<!-- Node0&#45;&gt;Node2 -->
<g id="edge2" class="edge"><title>Node0&#45;&gt;Node2</title>
<path fill="none" stroke="midnightblue" d="M199.374,-112.424C163.606,-104.64 110.158,-92.2964 55.2982,-76.0387"/>
<polygon fill="midnightblue" stroke="midnightblue" points="55.9889,-72.5918 45.4048,-73.0681 53.9758,-79.2961 55.9889,-72.5918"/>
</g>
<!-- Node3 -->
<g id="node4" class="node"><title>Node3</title>
<g id="a_node4"><a xlink:href="_constants_8h.html" target="_top" xlink:title="Заголовочный файл с константами. ">
<polygon fill="white" stroke="black" points="63.3521,-56.5 63.3521,-75.5 163.352,-75.5 163.352,-56.5 63.3521,-56.5"/>
<text text-anchor="middle" x="113.352" y="-63.5" font-family="Helvetica,sans-Serif" font-size="10.00">..\core\Constants.h</text>
</a>
</g>
</g>
<!-- Node0&#45;&gt;Node3 -->
<g id="edge3" class="edge"><title>Node0&#45;&gt;Node3</title>
<path fill="none" stroke="midnightblue" d="M220.229,-112.444C199.328,-103.557 166.417,-89.5632 142.636,-79.4514"/>
<polygon fill="midnightblue" stroke="midnightblue" points="143.954,-76.2085 133.381,-75.5164 141.215,-82.6504 143.954,-76.2085"/>
</g>
<!-- Node4 -->
<g id="node5" class="node"><title>Node4</title>
<g id="a_node5"><a xlink:href="_checking_files_8h.html" target="_top" xlink:title="Заголовочный файл с вызовом модуля проверки файлов для рутирования телефона. ">
<polygon fill="white" stroke="black" points="181.852,-56.5 181.852,-75.5 298.852,-75.5 298.852,-56.5 181.852,-56.5"/>
<text text-anchor="middle" x="240.352" y="-63.5" font-family="Helvetica,sans-Serif" font-size="10.00">..\core\CheckingFiles.h</text>
</a>
</g>
</g>
<!-- Node0&#45;&gt;Node4 -->
<g id="edge4" class="edge"><title>Node0&#45;&gt;Node4</title>
<path fill="none" stroke="midnightblue" d="M240.352,-112.083C240.352,-105.006 240.352,-94.8611 240.352,-85.9865"/>
<polygon fill="midnightblue" stroke="midnightblue" points="243.852,-85.751 240.352,-75.7511 236.852,-85.7511 243.852,-85.751"/>
</g>
<!-- Node5 -->
<g id="node6" class="node"><title>Node5</title>
<g id="a_node6"><a xlink:href="_logger_8h.html" target="_top" xlink:title="Заголовочный файл с подключением модуля логирования. ">
<polygon fill="white" stroke="black" points="317.352,-56.5 317.352,-75.5 391.352,-75.5 391.352,-56.5 317.352,-56.5"/>
<text text-anchor="middle" x="354.352" y="-63.5" font-family="Helvetica,sans-Serif" font-size="10.00">..\io\Logger.h</text>
</a>
</g>
</g>
<!-- Node0&#45;&gt;Node5 -->
<g id="edge5" class="edge"><title>Node0&#45;&gt;Node5</title>
<path fill="none" stroke="midnightblue" d="M258.416,-112.444C276.927,-103.675 305.933,-89.9355 327.208,-79.8579"/>
<polygon fill="midnightblue" stroke="midnightblue" points="328.834,-82.9604 336.373,-75.5164 325.837,-76.6343 328.834,-82.9604"/>
</g>
<!-- Node6 -->
<g id="node7" class="node"><title>Node6</title>
<g id="a_node7"><a xlink:href="_load_scale_8h.html" target="_top" xlink:title="Заголовочный файл с подключением модуля вывода шкалы загрузки. ">
<polygon fill="white" stroke="black" points="409.352,-56.5 409.352,-75.5 499.352,-75.5 499.352,-56.5 409.352,-56.5"/>
<text text-anchor="middle" x="454.352" y="-63.5" font-family="Helvetica,sans-Serif" font-size="10.00">..\ui\LoadScale.h</text>
</a>
</g>
</g>
<!-- Node0&#45;&gt;Node6 -->
<g id="edge7" class="edge"><title>Node0&#45;&gt;Node6</title>
<path fill="none" stroke="midnightblue" d="M274.261,-112.444C311.201,-103.122 370.406,-88.1828 410.77,-77.9972"/>
<polygon fill="midnightblue" stroke="midnightblue" points="411.762,-81.3568 420.602,-75.5164 410.049,-74.5695 411.762,-81.3568"/>
</g>
<!-- Node7 -->
<g id="node8" class="node"><title>Node7</title>
<g id="a_node8"><a xlink:href="_query_menu_8h.html" target="_top" xlink:title="Заголовочный файл с подключением модуля сообщения с вопросом для пользователя. ">
<polygon fill="white" stroke="black" points="517.852,-56.5 517.852,-75.5 612.852,-75.5 612.852,-56.5 517.852,-56.5"/>
<text text-anchor="middle" x="565.352" y="-63.5" font-family="Helvetica,sans-Serif" font-size="10.00">..\ui\QueryMenu.h</text>
</a>
</g>
</g>
<!-- Node0&#45;&gt;Node7 -->
<g id="edge8" class="edge"><title>Node0&#45;&gt;Node7</title>
<path fill="none" stroke="midnightblue" d="M289.008,-112.916C347.465,-103.203 445.424,-86.9266 507.642,-76.5887"/>
<polygon fill="midnightblue" stroke="midnightblue" points="508.397,-80.0113 517.688,-74.9195 507.25,-73.106 508.397,-80.0113"/>
</g>
<!-- Node5&#45;&gt;Node1 -->
<g id="edge6" class="edge"><title>Node5&#45;&gt;Node1</title>
<path fill="none" stroke="midnightblue" d="M354.352,-56.083C354.352,-49.0059 354.352,-38.8611 354.352,-29.9865"/>
<polygon fill="midnightblue" stroke="midnightblue" points="357.852,-29.751 354.352,-19.7511 350.852,-29.7511 357.852,-29.751"/>
</g>
<!-- Node7&#45;&gt;Node1 -->
<g id="edge9" class="edge"><title>Node7&#45;&gt;Node1</title>
<path fill="none" stroke="midnightblue" d="M531.918,-56.4435C491.383,-46.0696 423.66,-28.7375 384.61,-18.7438"/>
<polygon fill="midnightblue" stroke="midnightblue" points="385.424,-15.3393 374.868,-16.2506 383.688,-22.1208 385.424,-15.3393"/>
</g>
</g>
</svg>
