<?xml version="1.0" encoding="UTF-8" standalone="no"?>
<!DOCTYPE svg PUBLIC "-//W3C//DTD SVG 1.1//EN"
 "http://www.w3.org/Graphics/SVG/1.1/DTD/svg11.dtd">
<!-- Generated by graphviz version 2.38.0 (20140413.2041)
 -->
<!-- Title: Color.h Pages: 1 -->
<svg width="653pt" height="84pt"
 viewBox="0.00 0.00 653.00 84.00" xmlns="http://www.w3.org/2000/svg" xmlns:xlink="http://www.w3.org/1999/xlink">
<g id="graph0" class="graph" transform="scale(1 1) rotate(0) translate(4 80)">
<title>Color.h</title>
<polygon fill="white" stroke="none" points="-4,4 -4,-80 649,-80 649,4 -4,4"/>
<!-- Node1 -->
<g id="node1" class="node"><title>Node1</title>
<polygon fill="#bfbfbf" stroke="black" points="292.5,-56.5 292.5,-75.5 339.5,-75.5 339.5,-56.5 292.5,-56.5"/>
<text text-anchor="middle" x="316" y="-63.5" font-family="Helvetica,sans-Serif" font-size="10.00">Color.h</text>
</g>
<!-- Node2 -->
<g id="node2" class="node"><title>Node2</title>
<g id="a_node2"><a xlink:href="_color_8cpp.html" target="_top" xlink:title="Модуль работы с цветом в консоли. ">
<polygon fill="white" stroke="black" points="0,-0.5 0,-19.5 58,-19.5 58,-0.5 0,-0.5"/>
<text text-anchor="middle" x="29" y="-7.5" font-family="Helvetica,sans-Serif" font-size="10.00">Color.cpp</text>
</a>
</g>
</g>
<!-- Node1&#45;&gt;Node2 -->
<g id="edge1" class="edge"><title>Node1&#45;&gt;Node2</title>
<path fill="none" stroke="midnightblue" d="M282.086,-59.4653C234.063,-51.4932 143.561,-35.9726 67,-20 64.0798,-19.3908 61.0408,-18.7251 58.0102,-18.0404"/>
<polygon fill="midnightblue" stroke="midnightblue" points="281.791,-62.9641 292.228,-61.1415 282.933,-56.0578 281.791,-62.9641"/>
</g>
<!-- Node3 -->
<g id="node3" class="node"><title>Node3</title>
<g id="a_node3"><a xlink:href="_check_agreement_8cpp.html" target="_top" xlink:title="Модуль проверки согласия пользователя с правилами. ">
<polygon fill="white" stroke="black" points="76,-0.5 76,-19.5 186,-19.5 186,-0.5 76,-0.5"/>
<text text-anchor="middle" x="131" y="-7.5" font-family="Helvetica,sans-Serif" font-size="10.00">CheckAgreement.cpp</text>
</a>
</g>
</g>
<!-- Node1&#45;&gt;Node3 -->
<g id="edge2" class="edge"><title>Node1&#45;&gt;Node3</title>
<path fill="none" stroke="midnightblue" d="M282.453,-55.208C247.537,-45.0162 193.406,-29.2159 160.197,-19.5225"/>
<polygon fill="midnightblue" stroke="midnightblue" points="281.613,-58.6087 292.193,-58.051 283.575,-51.8891 281.613,-58.6087"/>
</g>
<!-- Node4 -->
<g id="node4" class="node"><title>Node4</title>
<g id="a_node4"><a xlink:href="_exit_8cpp.html" target="_top" xlink:title="Модуль выхода из программы. ">
<polygon fill="white" stroke="black" points="204.5,-0.5 204.5,-19.5 257.5,-19.5 257.5,-0.5 204.5,-0.5"/>
<text text-anchor="middle" x="231" y="-7.5" font-family="Helvetica,sans-Serif" font-size="10.00">Exit.cpp</text>
</a>
</g>
</g>
<!-- Node1&#45;&gt;Node4 -->
<g id="edge3" class="edge"><title>Node1&#45;&gt;Node4</title>
<path fill="none" stroke="midnightblue" d="M293.806,-50.9005C278.22,-40.9986 257.87,-28.0705 244.623,-19.6545"/>
<polygon fill="midnightblue" stroke="midnightblue" points="292.026,-53.9158 302.343,-56.324 295.779,-48.0073 292.026,-53.9158"/>
</g>
<!-- Node5 -->
<g id="node5" class="node"><title>Node5</title>
<g id="a_node5"><a xlink:href="_load_scale_8cpp.html" target="_top" xlink:title="Модуль вывода шкалы загрузки. ">
<polygon fill="white" stroke="black" points="275.5,-0.5 275.5,-19.5 356.5,-19.5 356.5,-0.5 275.5,-0.5"/>
<text text-anchor="middle" x="316" y="-7.5" font-family="Helvetica,sans-Serif" font-size="10.00">LoadScale.cpp</text>
</a>
</g>
</g>
<!-- Node1&#45;&gt;Node5 -->
<g id="edge4" class="edge"><title>Node1&#45;&gt;Node5</title>
<path fill="none" stroke="midnightblue" d="M316,-45.8045C316,-36.9102 316,-26.7798 316,-19.7511"/>
<polygon fill="midnightblue" stroke="midnightblue" points="312.5,-46.083 316,-56.083 319.5,-46.083 312.5,-46.083"/>
</g>
<!-- Node6 -->
<g id="node6" class="node"><title>Node6</title>
<g id="a_node6"><a xlink:href="_main_menu_8cpp.html" target="_top" xlink:title="Модуль вывода главного меню программы. ">
<polygon fill="white" stroke="black" points="375,-0.5 375,-19.5 455,-19.5 455,-0.5 375,-0.5"/>
<text text-anchor="middle" x="415" y="-7.5" font-family="Helvetica,sans-Serif" font-size="10.00">MainMenu.cpp</text>
</a>
</g>
</g>
<!-- Node1&#45;&gt;Node6 -->
<g id="edge5" class="edge"><title>Node1&#45;&gt;Node6</title>
<path fill="none" stroke="midnightblue" d="M340.837,-51.4526C359.114,-41.4835 383.416,-28.2279 399.133,-19.6545"/>
<polygon fill="midnightblue" stroke="midnightblue" points="339.009,-48.4628 331.906,-56.324 342.361,-54.608 339.009,-48.4628"/>
</g>
<!-- Node7 -->
<g id="node7" class="node"><title>Node7</title>
<g id="a_node7"><a xlink:href="_manual_8cpp.html" target="_top" xlink:title="Модуль инструкции. ">
<polygon fill="white" stroke="black" points="473.5,-0.5 473.5,-19.5 540.5,-19.5 540.5,-0.5 473.5,-0.5"/>
<text text-anchor="middle" x="507" y="-7.5" font-family="Helvetica,sans-Serif" font-size="10.00">Manual.cpp</text>
</a>
</g>
</g>
<!-- Node1&#45;&gt;Node7 -->
<g id="edge6" class="edge"><title>Node1&#45;&gt;Node7</title>
<path fill="none" stroke="midnightblue" d="M349.837,-55.4336C385.874,-45.2451 442.376,-29.2707 476.911,-19.5069"/>
<polygon fill="midnightblue" stroke="midnightblue" points="348.475,-52.1814 339.804,-58.27 350.379,-58.9174 348.475,-52.1814"/>
</g>
<!-- Node8 -->
<g id="node8" class="node"><title>Node8</title>
<g id="a_node8"><a xlink:href="_query_menu_8cpp.html" target="_top" xlink:title="Модуль сообщения с вопросом для пользователя. ">
<polygon fill="white" stroke="black" points="559,-0.5 559,-19.5 645,-19.5 645,-0.5 559,-0.5"/>
<text text-anchor="middle" x="602" y="-7.5" font-family="Helvetica,sans-Serif" font-size="10.00">QueryMenu.cpp</text>
</a>
</g>
</g>
<!-- Node1&#45;&gt;Node8 -->
<g id="edge7" class="edge"><title>Node1&#45;&gt;Node8</title>
<path fill="none" stroke="midnightblue" d="M349.961,-58.5878C402.096,-48.7441 501.802,-29.9185 558.938,-19.1306"/>
<polygon fill="midnightblue" stroke="midnightblue" points="349.069,-55.1942 339.892,-60.4889 350.368,-62.0727 349.069,-55.1942"/>
</g>
</g>
</svg>
