<?xml version="1.0" encoding="UTF-8" standalone="no"?>
<!DOCTYPE svg PUBLIC "-//W3C//DTD SVG 1.1//EN"
 "http://www.w3.org/Graphics/SVG/1.1/DTD/svg11.dtd">
<!-- Generated by graphviz version 2.38.0 (20140413.2041)
 -->
<!-- Title: Color.h Pages: 1 -->
<svg width="221pt" height="84pt"
 viewBox="0.00 0.00 220.50 84.00" xmlns="http://www.w3.org/2000/svg" xmlns:xlink="http://www.w3.org/1999/xlink">
<g id="graph0" class="graph" transform="scale(1 1) rotate(0) translate(4 80)">
<title>Color.h</title>
<polygon fill="white" stroke="none" points="-4,4 -4,-80 216.5,-80 216.5,4 -4,4"/>
<!-- Node1 -->
<g id="node1" class="node"><title>Node1</title>
<polygon fill="#bfbfbf" stroke="black" points="82.5,-56.5 82.5,-75.5 129.5,-75.5 129.5,-56.5 82.5,-56.5"/>
<text text-anchor="middle" x="106" y="-63.5" font-family="Helvetica,sans-Serif" font-size="10.00">Color.h</text>
</g>
<!-- Node2 -->
<g id="node2" class="node"><title>Node2</title>
<g id="a_node2"><a xlink:href="_color_8cpp.html" target="_top" xlink:title="Модуль работы с цветом в консоли. ">
<polygon fill="white" stroke="black" points="0,-0.5 0,-19.5 58,-19.5 58,-0.5 0,-0.5"/>
<text text-anchor="middle" x="29" y="-7.5" font-family="Helvetica,sans-Serif" font-size="10.00">Color.cpp</text>
</a>
</g>
</g>
<!-- Node1&#45;&gt;Node2 -->
<g id="edge1" class="edge"><title>Node1&#45;&gt;Node2</title>
<path fill="none" stroke="midnightblue" d="M85.099,-50.3422C71.0889,-40.5169 53.117,-27.9132 41.3407,-19.6545"/>
<polygon fill="midnightblue" stroke="midnightblue" points="83.4317,-53.4477 93.6286,-56.324 87.4509,-47.7166 83.4317,-53.4477"/>
</g>
<!-- Node3 -->
<g id="node3" class="node"><title>Node3</title>
<g id="a_node3"><a xlink:href="_items_8cpp.html" target="_top" xlink:title="Создание меню. ">
<polygon fill="white" stroke="black" points="76.5,-0.5 76.5,-19.5 135.5,-19.5 135.5,-0.5 76.5,-0.5"/>
<text text-anchor="middle" x="106" y="-7.5" font-family="Helvetica,sans-Serif" font-size="10.00">Items.cpp</text>
</a>
</g>
</g>
<!-- Node1&#45;&gt;Node3 -->
<g id="edge2" class="edge"><title>Node1&#45;&gt;Node3</title>
<path fill="none" stroke="midnightblue" d="M106,-45.8045C106,-36.9102 106,-26.7798 106,-19.7511"/>
<polygon fill="midnightblue" stroke="midnightblue" points="102.5,-46.083 106,-56.083 109.5,-46.083 102.5,-46.083"/>
</g>
<!-- Node4 -->
<g id="node4" class="node"><title>Node4</title>
<g id="a_node4"><a xlink:href="_menu_8cpp.html" target="_top" xlink:title="Модуль создания меню. ">
<polygon fill="white" stroke="black" points="153.5,-0.5 153.5,-19.5 212.5,-19.5 212.5,-0.5 153.5,-0.5"/>
<text text-anchor="middle" x="183" y="-7.5" font-family="Helvetica,sans-Serif" font-size="10.00">Menu.cpp</text>
</a>
</g>
</g>
<!-- Node1&#45;&gt;Node4 -->
<g id="edge3" class="edge"><title>Node1&#45;&gt;Node4</title>
<path fill="none" stroke="midnightblue" d="M126.901,-50.3422C140.911,-40.5169 158.883,-27.9132 170.659,-19.6545"/>
<polygon fill="midnightblue" stroke="midnightblue" points="124.549,-47.7166 118.371,-56.324 128.568,-53.4477 124.549,-47.7166"/>
</g>
</g>
</svg>
