<?xml version="1.0" encoding="UTF-8" standalone="no"?>
<!DOCTYPE svg PUBLIC "-//W3C//DTD SVG 1.1//EN"
 "http://www.w3.org/Graphics/SVG/1.1/DTD/svg11.dtd">
<!-- Generated by graphviz version 2.38.0 (20140413.2041)
 -->
<!-- Title: Constants.h Pages: 1 -->
<svg width="376pt" height="84pt"
 viewBox="0.00 0.00 376.00 84.00" xmlns="http://www.w3.org/2000/svg" xmlns:xlink="http://www.w3.org/1999/xlink">
<g id="graph0" class="graph" transform="scale(1 1) rotate(0) translate(4 80)">
<title>Constants.h</title>
<polygon fill="white" stroke="none" points="-4,4 -4,-80 372,-80 372,4 -4,4"/>
<!-- Node1 -->
<g id="node1" class="node"><title>Node1</title>
<polygon fill="#bfbfbf" stroke="black" points="153.5,-56.5 153.5,-75.5 222.5,-75.5 222.5,-56.5 153.5,-56.5"/>
<text text-anchor="middle" x="188" y="-63.5" font-family="Helvetica,sans-Serif" font-size="10.00">Constants.h</text>
</g>
<!-- Node2 -->
<g id="node2" class="node"><title>Node2</title>
<g id="a_node2"><a xlink:href="_initialization_8cpp.html" target="_top" xlink:title="Модуль проверки стандартных файлов программы. ">
<polygon fill="white" stroke="black" points="0,-0.5 0,-19.5 86,-19.5 86,-0.5 0,-0.5"/>
<text text-anchor="middle" x="43" y="-7.5" font-family="Helvetica,sans-Serif" font-size="10.00">Initialization.cpp</text>
</a>
</g>
</g>
<!-- Node1&#45;&gt;Node2 -->
<g id="edge1" class="edge"><title>Node1&#45;&gt;Node2</title>
<path fill="none" stroke="midnightblue" d="M155.525,-52.9058C128.264,-42.7536 90.0076,-28.5063 65.8682,-19.5164"/>
<polygon fill="midnightblue" stroke="midnightblue" points="154.432,-56.2334 165.024,-56.4435 156.875,-49.6736 154.432,-56.2334"/>
</g>
<!-- Node3 -->
<g id="node3" class="node"><title>Node3</title>
<g id="a_node3"><a xlink:href="_rules_list_8cpp.html" target="_top" xlink:title="Модуль чтения правил. ">
<polygon fill="white" stroke="black" points="104,-0.5 104,-19.5 180,-19.5 180,-0.5 104,-0.5"/>
<text text-anchor="middle" x="142" y="-7.5" font-family="Helvetica,sans-Serif" font-size="10.00">RulesList.cpp</text>
</a>
</g>
</g>
<!-- Node1&#45;&gt;Node3 -->
<g id="edge2" class="edge"><title>Node1&#45;&gt;Node3</title>
<path fill="none" stroke="midnightblue" d="M173.886,-48.4314C165.824,-38.9673 156.041,-27.4827 149.455,-19.7511"/>
<polygon fill="midnightblue" stroke="midnightblue" points="171.255,-50.7402 180.404,-56.083 176.584,-46.2009 171.255,-50.7402"/>
</g>
<!-- Node4 -->
<g id="node4" class="node"><title>Node4</title>
<g id="a_node4"><a xlink:href="_settings_8cpp.html" target="_top" xlink:title="Модуль настроек. Парсит переменные в файлах ">
<polygon fill="white" stroke="black" points="198.5,-0.5 198.5,-19.5 269.5,-19.5 269.5,-0.5 198.5,-0.5"/>
<text text-anchor="middle" x="234" y="-7.5" font-family="Helvetica,sans-Serif" font-size="10.00">Settings.cpp</text>
</a>
</g>
</g>
<!-- Node1&#45;&gt;Node4 -->
<g id="edge3" class="edge"><title>Node1&#45;&gt;Node4</title>
<path fill="none" stroke="midnightblue" d="M202.114,-48.4314C210.176,-38.9673 219.959,-27.4827 226.545,-19.7511"/>
<polygon fill="midnightblue" stroke="midnightblue" points="199.416,-46.2009 195.596,-56.083 204.745,-50.7402 199.416,-46.2009"/>
</g>
<!-- Node5 -->
<g id="node5" class="node"><title>Node5</title>
<g id="a_node5"><a xlink:href="_templates_8cpp.html" target="_top" xlink:title="Функции для создания стандартных файлов программы. ">
<polygon fill="white" stroke="black" points="288,-0.5 288,-19.5 368,-19.5 368,-0.5 288,-0.5"/>
<text text-anchor="middle" x="328" y="-7.5" font-family="Helvetica,sans-Serif" font-size="10.00">Templates.cpp</text>
</a>
</g>
</g>
<!-- Node1&#45;&gt;Node5 -->
<g id="edge4" class="edge"><title>Node1&#45;&gt;Node5</title>
<path fill="none" stroke="midnightblue" d="M219.702,-52.772C246,-42.6287 282.716,-28.4669 305.92,-19.5164"/>
<polygon fill="midnightblue" stroke="midnightblue" points="218.254,-49.5792 210.183,-56.4435 220.773,-56.1103 218.254,-49.5792"/>
</g>
</g>
</svg>
