<?xml version="1.0" encoding="UTF-8" standalone="no"?>
<!DOCTYPE svg PUBLIC "-//W3C//DTD SVG 1.1//EN"
 "http://www.w3.org/Graphics/SVG/1.1/DTD/svg11.dtd">
<!-- Generated by graphviz version 2.38.0 (20140413.2041)
 -->
<!-- Title: Constants.h Pages: 1 -->
<svg width="433pt" height="84pt"
 viewBox="0.00 0.00 433.00 84.00" xmlns="http://www.w3.org/2000/svg" xmlns:xlink="http://www.w3.org/1999/xlink">
<g id="graph0" class="graph" transform="scale(1 1) rotate(0) translate(4 80)">
<title>Constants.h</title>
<polygon fill="white" stroke="none" points="-4,4 -4,-80 429,-80 429,4 -4,4"/>
<!-- Node2 -->
<g id="node1" class="node"><title>Node2</title>
<polygon fill="#bfbfbf" stroke="black" points="196,-56.5 196,-75.5 265,-75.5 265,-56.5 196,-56.5"/>
<text text-anchor="middle" x="230.5" y="-63.5" font-family="Helvetica,sans-Serif" font-size="10.00">Constants.h</text>
</g>
<!-- Node3 -->
<g id="node2" class="node"><title>Node3</title>
<g id="a_node2"><a xlink:href="_operations_8cpp.html" target="_top" xlink:title="Модуль проверки стандартных файлов программы и вызова алгоритма рутирования. ">
<polygon fill="white" stroke="black" points="0,-0.5 0,-19.5 83,-19.5 83,-0.5 0,-0.5"/>
<text text-anchor="middle" x="41.5" y="-7.5" font-family="Helvetica,sans-Serif" font-size="10.00">Operations.cpp</text>
</a>
</g>
</g>
<!-- Node2&#45;&gt;Node3 -->
<g id="edge1" class="edge"><title>Node2&#45;&gt;Node3</title>
<path fill="none" stroke="midnightblue" d="M190.487,-53.5677C154.833,-43.381 103.462,-28.7034 71.3075,-19.5164"/>
<polygon fill="midnightblue" stroke="midnightblue" points="189.976,-57.0616 200.552,-56.4435 191.899,-50.3309 189.976,-57.0616"/>
</g>
<!-- Node4 -->
<g id="node3" class="node"><title>Node4</title>
<g id="a_node3"><a xlink:href="_settings_8cpp.html" target="_top" xlink:title="Модуль настроек. Парсит переменные в файлах ">
<polygon fill="white" stroke="black" points="101,-0.5 101,-19.5 172,-19.5 172,-0.5 101,-0.5"/>
<text text-anchor="middle" x="136.5" y="-7.5" font-family="Helvetica,sans-Serif" font-size="10.00">Settings.cpp</text>
</a>
</g>
</g>
<!-- Node2&#45;&gt;Node4 -->
<g id="edge2" class="edge"><title>Node2&#45;&gt;Node4</title>
<path fill="none" stroke="midnightblue" d="M206.438,-51.1774C189.141,-41.2407 166.352,-28.1492 151.565,-19.6545"/>
<polygon fill="midnightblue" stroke="midnightblue" points="204.983,-54.3775 215.397,-56.324 208.47,-48.3078 204.983,-54.3775"/>
</g>
<!-- Node5 -->
<g id="node4" class="node"><title>Node5</title>
<g id="a_node4"><a xlink:href="_templates_8cpp.html" target="_top" xlink:title="Функции для создания стандартных файлов программы. ">
<polygon fill="white" stroke="black" points="190.5,-0.5 190.5,-19.5 270.5,-19.5 270.5,-0.5 190.5,-0.5"/>
<text text-anchor="middle" x="230.5" y="-7.5" font-family="Helvetica,sans-Serif" font-size="10.00">Templates.cpp</text>
</a>
</g>
</g>
<!-- Node2&#45;&gt;Node5 -->
<g id="edge3" class="edge"><title>Node2&#45;&gt;Node5</title>
<path fill="none" stroke="midnightblue" d="M230.5,-45.8045C230.5,-36.9102 230.5,-26.7798 230.5,-19.7511"/>
<polygon fill="midnightblue" stroke="midnightblue" points="227,-46.083 230.5,-56.083 234,-46.083 227,-46.083"/>
</g>
<!-- Node6 -->
<g id="node5" class="node"><title>Node6</title>
<g id="a_node5"><a xlink:href="_items_8cpp.html" target="_top" xlink:title="Создание меню. ">
<polygon fill="white" stroke="black" points="289,-0.5 289,-19.5 348,-19.5 348,-0.5 289,-0.5"/>
<text text-anchor="middle" x="318.5" y="-7.5" font-family="Helvetica,sans-Serif" font-size="10.00">Items.cpp</text>
</a>
</g>
</g>
<!-- Node2&#45;&gt;Node6 -->
<g id="edge4" class="edge"><title>Node2&#45;&gt;Node6</title>
<path fill="none" stroke="midnightblue" d="M253.477,-50.9005C269.613,-40.9986 290.681,-28.0705 304.396,-19.6545"/>
<polygon fill="midnightblue" stroke="midnightblue" points="251.331,-48.1106 244.639,-56.324 254.993,-54.0769 251.331,-48.1106"/>
</g>
<!-- Node7 -->
<g id="node6" class="node"><title>Node7</title>
<g id="a_node6"><a xlink:href="_menu_8cpp.html" target="_top" xlink:title="Модуль создания меню. ">
<polygon fill="white" stroke="black" points="366,-0.5 366,-19.5 425,-19.5 425,-0.5 366,-0.5"/>
<text text-anchor="middle" x="395.5" y="-7.5" font-family="Helvetica,sans-Serif" font-size="10.00">Menu.cpp</text>
</a>
</g>
</g>
<!-- Node2&#45;&gt;Node7 -->
<g id="edge5" class="edge"><title>Node2&#45;&gt;Node7</title>
<path fill="none" stroke="midnightblue" d="M266.236,-53.3044C297.327,-43.1294 341.647,-28.6246 369.478,-19.5164"/>
<polygon fill="midnightblue" stroke="midnightblue" points="265.06,-50.0067 256.645,-56.4435 267.237,-56.6595 265.06,-50.0067"/>
</g>
</g>
</svg>
