<?xml version="1.0" encoding="UTF-8" standalone="no"?>
<!DOCTYPE svg PUBLIC "-//W3C//DTD SVG 1.1//EN"
 "http://www.w3.org/Graphics/SVG/1.1/DTD/svg11.dtd">
<!-- Generated by graphviz version 2.38.0 (20140413.2041)
 -->
<!-- Title: LoadScale.h Pages: 1 -->
<svg width="210pt" height="84pt"
 viewBox="0.00 0.00 209.50 84.00" xmlns="http://www.w3.org/2000/svg" xmlns:xlink="http://www.w3.org/1999/xlink">
<g id="graph0" class="graph" transform="scale(1 1) rotate(0) translate(4 80)">
<title>LoadScale.h</title>
<polygon fill="white" stroke="none" points="-4,4 -4,-80 205.5,-80 205.5,4 -4,4"/>
<!-- Node1 -->
<g id="node1" class="node"><title>Node1</title>
<polygon fill="#bfbfbf" stroke="black" points="68,-56.5 68,-75.5 139,-75.5 139,-56.5 68,-56.5"/>
<text text-anchor="middle" x="103.5" y="-63.5" font-family="Helvetica,sans-Serif" font-size="10.00">LoadScale.h</text>
</g>
<!-- Node2 -->
<g id="node2" class="node"><title>Node2</title>
<g id="a_node2"><a xlink:href="_checking_files_8cpp.html" target="_top" xlink:title="Модуль проверки файлов для рутирования телефона. ">
<polygon fill="white" stroke="black" points="0,-0.5 0,-19.5 97,-19.5 97,-0.5 0,-0.5"/>
<text text-anchor="middle" x="48.5" y="-7.5" font-family="Helvetica,sans-Serif" font-size="10.00">CheckingFiles.cpp</text>
</a>
</g>
</g>
<!-- Node1&#45;&gt;Node2 -->
<g id="edge1" class="edge"><title>Node1&#45;&gt;Node2</title>
<path fill="none" stroke="midnightblue" d="M87.2062,-49.0024C77.4594,-39.4329 65.447,-27.6389 57.4131,-19.7511"/>
<polygon fill="midnightblue" stroke="midnightblue" points="84.8301,-51.5746 94.4179,-56.083 89.7343,-46.5796 84.8301,-51.5746"/>
</g>
<!-- Node3 -->
<g id="node3" class="node"><title>Node3</title>
<g id="a_node3"><a xlink:href="_initialization_8cpp.html" target="_top" xlink:title="Модуль проверки стандартных файлов программы. ">
<polygon fill="white" stroke="black" points="115.5,-0.5 115.5,-19.5 201.5,-19.5 201.5,-0.5 115.5,-0.5"/>
<text text-anchor="middle" x="158.5" y="-7.5" font-family="Helvetica,sans-Serif" font-size="10.00">Initialization.cpp</text>
</a>
</g>
</g>
<!-- Node1&#45;&gt;Node3 -->
<g id="edge2" class="edge"><title>Node1&#45;&gt;Node3</title>
<path fill="none" stroke="midnightblue" d="M119.794,-49.0024C129.541,-39.4329 141.553,-27.6389 149.587,-19.7511"/>
<polygon fill="midnightblue" stroke="midnightblue" points="117.266,-46.5796 112.582,-56.083 122.17,-51.5746 117.266,-46.5796"/>
</g>
</g>
</svg>
