<?xml version="1.0" encoding="UTF-8" standalone="no"?>
<!DOCTYPE svg PUBLIC "-//W3C//DTD SVG 1.1//EN"
 "http://www.w3.org/Graphics/SVG/1.1/DTD/svg11.dtd">
<!-- Generated by graphviz version 2.38.0 (20140413.2041)
 -->
<!-- Title: Logger.h Pages: 1 -->
<svg width="546pt" height="84pt"
 viewBox="0.00 0.00 546.00 84.00" xmlns="http://www.w3.org/2000/svg" xmlns:xlink="http://www.w3.org/1999/xlink">
<g id="graph0" class="graph" transform="scale(1 1) rotate(0) translate(4 80)">
<title>Logger.h</title>
<polygon fill="white" stroke="none" points="-4,4 -4,-80 542,-80 542,4 -4,4"/>
<!-- Node2 -->
<g id="node1" class="node"><title>Node2</title>
<polygon fill="#bfbfbf" stroke="black" points="276.5,-56.5 276.5,-75.5 330.5,-75.5 330.5,-56.5 276.5,-56.5"/>
<text text-anchor="middle" x="303.5" y="-63.5" font-family="Helvetica,sans-Serif" font-size="10.00">Logger.h</text>
</g>
<!-- Node3 -->
<g id="node2" class="node"><title>Node3</title>
<g id="a_node2"><a xlink:href="_a_d_b__slave_8cpp.html" target="_top" xlink:title="Модуль работы с adb. ">
<polygon fill="white" stroke="black" points="0,-0.5 0,-19.5 83,-19.5 83,-0.5 0,-0.5"/>
<text text-anchor="middle" x="41.5" y="-7.5" font-family="Helvetica,sans-Serif" font-size="10.00">ADB_slave.cpp</text>
</a>
</g>
</g>
<!-- Node2&#45;&gt;Node3 -->
<g id="edge1" class="edge"><title>Node2&#45;&gt;Node3</title>
<path fill="none" stroke="midnightblue" d="M266.399,-57.3532C217.972,-47.3722 133.463,-29.9541 82.9717,-19.5476"/>
<polygon fill="midnightblue" stroke="midnightblue" points="265.948,-60.8337 276.448,-59.4244 267.361,-53.9778 265.948,-60.8337"/>
</g>
<!-- Node4 -->
<g id="node3" class="node"><title>Node4</title>
<g id="a_node3"><a xlink:href="_checking_files_8cpp.html" target="_top" xlink:title="Модуль проверки файлов для рутирования телефона. ">
<polygon fill="white" stroke="black" points="101,-0.5 101,-19.5 198,-19.5 198,-0.5 101,-0.5"/>
<text text-anchor="middle" x="149.5" y="-7.5" font-family="Helvetica,sans-Serif" font-size="10.00">CheckingFiles.cpp</text>
</a>
</g>
</g>
<!-- Node2&#45;&gt;Node4 -->
<g id="edge2" class="edge"><title>Node2&#45;&gt;Node4</title>
<path fill="none" stroke="midnightblue" d="M269.389,-53.0392C240.413,-42.8786 199.538,-28.5457 173.788,-19.5164"/>
<polygon fill="midnightblue" stroke="midnightblue" points="268.503,-56.4373 279.098,-56.4435 270.82,-49.8317 268.503,-56.4373"/>
</g>
<!-- Node5 -->
<g id="node4" class="node"><title>Node5</title>
<g id="a_node4"><a xlink:href="_initialization_8cpp.html" target="_top" xlink:title="Модуль проверки стандартных файлов программы. ">
<polygon fill="white" stroke="black" points="216.5,-0.5 216.5,-19.5 302.5,-19.5 302.5,-0.5 216.5,-0.5"/>
<text text-anchor="middle" x="259.5" y="-7.5" font-family="Helvetica,sans-Serif" font-size="10.00">Initialization.cpp</text>
</a>
</g>
</g>
<!-- Node2&#45;&gt;Node5 -->
<g id="edge3" class="edge"><title>Node2&#45;&gt;Node5</title>
<path fill="none" stroke="midnightblue" d="M289.765,-48.144C282.099,-38.7357 272.867,-27.4046 266.631,-19.7511"/>
<polygon fill="midnightblue" stroke="midnightblue" points="287.204,-50.5415 296.234,-56.083 292.631,-46.1198 287.204,-50.5415"/>
</g>
<!-- Node6 -->
<g id="node5" class="node"><title>Node6</title>
<g id="a_node5"><a xlink:href="_main_8cpp.html" target="_top" xlink:title="Главный файл программы ">
<polygon fill="white" stroke="black" points="320.5,-0.5 320.5,-19.5 376.5,-19.5 376.5,-0.5 320.5,-0.5"/>
<text text-anchor="middle" x="348.5" y="-7.5" font-family="Helvetica,sans-Serif" font-size="10.00">Main.cpp</text>
</a>
</g>
</g>
<!-- Node2&#45;&gt;Node6 -->
<g id="edge4" class="edge"><title>Node2&#45;&gt;Node6</title>
<path fill="none" stroke="midnightblue" d="M317.547,-48.144C325.387,-38.7357 334.829,-27.4046 341.207,-19.7511"/>
<polygon fill="midnightblue" stroke="midnightblue" points="314.644,-46.1601 310.931,-56.083 320.021,-50.6414 314.644,-46.1601"/>
</g>
<!-- Node7 -->
<g id="node6" class="node"><title>Node7</title>
<g id="a_node6"><a xlink:href="_radix_8cpp.html" target="_top" xlink:title="Главный файл программы ">
<polygon fill="white" stroke="black" points="394.5,-0.5 394.5,-19.5 454.5,-19.5 454.5,-0.5 394.5,-0.5"/>
<text text-anchor="middle" x="424.5" y="-7.5" font-family="Helvetica,sans-Serif" font-size="10.00">Radix.cpp</text>
</a>
</g>
</g>
<!-- Node2&#45;&gt;Node7 -->
<g id="edge5" class="edge"><title>Node2&#45;&gt;Node7</title>
<path fill="none" stroke="midnightblue" d="M331.806,-52.3678C354.465,-42.2553 385.626,-28.3486 405.417,-19.5164"/>
<polygon fill="midnightblue" stroke="midnightblue" points="330.378,-49.1719 322.673,-56.4435 333.231,-55.5643 330.378,-49.1719"/>
</g>
<!-- Node8 -->
<g id="node7" class="node"><title>Node8</title>
<g id="a_node7"><a xlink:href="_logger_8cpp.html" target="_top" xlink:title="Модуль логирования ">
<polygon fill="white" stroke="black" points="473,-0.5 473,-19.5 538,-19.5 538,-0.5 473,-0.5"/>
<text text-anchor="middle" x="505.5" y="-7.5" font-family="Helvetica,sans-Serif" font-size="10.00">Logger.cpp</text>
</a>
</g>
</g>
<!-- Node2&#45;&gt;Node8 -->
<g id="edge6" class="edge"><title>Node2&#45;&gt;Node8</title>
<path fill="none" stroke="midnightblue" d="M340.416,-55.1313C378.462,-44.9608 437.176,-29.2648 473.367,-19.59"/>
<polygon fill="midnightblue" stroke="midnightblue" points="339.499,-51.7534 330.743,-57.7173 341.307,-58.5159 339.499,-51.7534"/>
</g>
</g>
</svg>
