<?xml version="1.0" encoding="UTF-8" standalone="no"?>
<!DOCTYPE svg PUBLIC "-//W3C//DTD SVG 1.1//EN"
 "http://www.w3.org/Graphics/SVG/1.1/DTD/svg11.dtd">
<!-- Generated by graphviz version 2.38.0 (20140413.2041)
 -->
<!-- Title: Logo.h Pages: 1 -->
<svg width="387pt" height="84pt"
 viewBox="0.00 0.00 387.00 84.00" xmlns="http://www.w3.org/2000/svg" xmlns:xlink="http://www.w3.org/1999/xlink">
<g id="graph0" class="graph" transform="scale(1 1) rotate(0) translate(4 80)">
<title>Logo.h</title>
<polygon fill="white" stroke="none" points="-4,4 -4,-80 383,-80 383,4 -4,4"/>
<!-- Node2 -->
<g id="node1" class="node"><title>Node2</title>
<polygon fill="#bfbfbf" stroke="black" points="174,-56.5 174,-75.5 220,-75.5 220,-56.5 174,-56.5"/>
<text text-anchor="middle" x="197" y="-63.5" font-family="Helvetica,sans-Serif" font-size="10.00">Logo.h</text>
</g>
<!-- Node3 -->
<g id="node2" class="node"><title>Node3</title>
<g id="a_node2"><a xlink:href="_check_agreement_8cpp.html" target="_top" xlink:title="Модуль проверки согласия пользователя с правилами. ">
<polygon fill="white" stroke="black" points="0,-0.5 0,-19.5 110,-19.5 110,-0.5 0,-0.5"/>
<text text-anchor="middle" x="55" y="-7.5" font-family="Helvetica,sans-Serif" font-size="10.00">CheckAgreement.cpp</text>
</a>
</g>
</g>
<!-- Node2&#45;&gt;Node3 -->
<g id="edge1" class="edge"><title>Node2&#45;&gt;Node3</title>
<path fill="none" stroke="midnightblue" d="M164.845,-52.772C138.172,-42.6287 100.931,-28.4669 77.3951,-19.5164"/>
<polygon fill="midnightblue" stroke="midnightblue" points="163.909,-56.1604 174.5,-56.4435 166.397,-49.6176 163.909,-56.1604"/>
</g>
<!-- Node4 -->
<g id="node3" class="node"><title>Node4</title>
<g id="a_node3"><a xlink:href="_exit_8cpp.html" target="_top" xlink:title="Модуль выхода из программы. ">
<polygon fill="white" stroke="black" points="128.5,-0.5 128.5,-19.5 181.5,-19.5 181.5,-0.5 128.5,-0.5"/>
<text text-anchor="middle" x="155" y="-7.5" font-family="Helvetica,sans-Serif" font-size="10.00">Exit.cpp</text>
</a>
</g>
</g>
<!-- Node2&#45;&gt;Node4 -->
<g id="edge2" class="edge"><title>Node2&#45;&gt;Node4</title>
<path fill="none" stroke="midnightblue" d="M183.89,-48.144C176.572,-38.7357 167.759,-27.4046 161.806,-19.7511"/>
<polygon fill="midnightblue" stroke="midnightblue" points="181.162,-50.3383 190.065,-56.083 186.688,-46.0406 181.162,-50.3383"/>
</g>
<!-- Node5 -->
<g id="node4" class="node"><title>Node5</title>
<g id="a_node4"><a xlink:href="_load_scale_8cpp.html" target="_top" xlink:title="Модуль вывода шкалы загрузки. ">
<polygon fill="white" stroke="black" points="199.5,-0.5 199.5,-19.5 280.5,-19.5 280.5,-0.5 199.5,-0.5"/>
<text text-anchor="middle" x="240" y="-7.5" font-family="Helvetica,sans-Serif" font-size="10.00">LoadScale.cpp</text>
</a>
</g>
</g>
<!-- Node2&#45;&gt;Node5 -->
<g id="edge3" class="edge"><title>Node2&#45;&gt;Node5</title>
<path fill="none" stroke="midnightblue" d="M210.422,-48.144C217.914,-38.7357 226.937,-27.4046 233.032,-19.7511"/>
<polygon fill="midnightblue" stroke="midnightblue" points="207.592,-46.0799 204.101,-56.083 213.068,-50.4404 207.592,-46.0799"/>
</g>
<!-- Node6 -->
<g id="node5" class="node"><title>Node6</title>
<g id="a_node5"><a xlink:href="_main_menu_8cpp.html" target="_top" xlink:title="Модуль вывода главного меню программы. ">
<polygon fill="white" stroke="black" points="299,-0.5 299,-19.5 379,-19.5 379,-0.5 299,-0.5"/>
<text text-anchor="middle" x="339" y="-7.5" font-family="Helvetica,sans-Serif" font-size="10.00">MainMenu.cpp</text>
</a>
</g>
</g>
<!-- Node2&#45;&gt;Node6 -->
<g id="edge4" class="edge"><title>Node2&#45;&gt;Node6</title>
<path fill="none" stroke="midnightblue" d="M229.155,-52.772C255.828,-42.6287 293.069,-28.4669 316.605,-19.5164"/>
<polygon fill="midnightblue" stroke="midnightblue" points="227.603,-49.6176 219.5,-56.4435 230.091,-56.1604 227.603,-49.6176"/>
</g>
</g>
</svg>
