<?xml version="1.0" encoding="UTF-8" standalone="no"?>
<!DOCTYPE svg PUBLIC "-//W3C//DTD SVG 1.1//EN"
 "http://www.w3.org/Graphics/SVG/1.1/DTD/svg11.dtd">
<!-- Generated by graphviz version 2.38.0 (20140413.2041)
 -->
<!-- Title: MainMenu.cpp Pages: 1 -->
<svg width="659pt" height="196pt"
 viewBox="0.00 0.00 658.50 196.00" xmlns="http://www.w3.org/2000/svg" xmlns:xlink="http://www.w3.org/1999/xlink">
<g id="graph0" class="graph" transform="scale(1 1) rotate(0) translate(4 192)">
<title>MainMenu.cpp</title>
<polygon fill="white" stroke="none" points="-4,4 -4,-192 654.5,-192 654.5,4 -4,4"/>
<!-- Node0 -->
<g id="node1" class="node"><title>Node0</title>
<polygon fill="#bfbfbf" stroke="black" points="179,-168.5 179,-187.5 259,-187.5 259,-168.5 179,-168.5"/>
<text text-anchor="middle" x="219" y="-175.5" font-family="Helvetica,sans-Serif" font-size="10.00">MainMenu.cpp</text>
</g>
<!-- Node1 -->
<g id="node2" class="node"><title>Node1</title>
<polygon fill="white" stroke="#bfbfbf" points="0,-112.5 0,-131.5 54,-131.5 54,-112.5 0,-112.5"/>
<text text-anchor="middle" x="27" y="-119.5" font-family="Helvetica,sans-Serif" font-size="10.00">iostream</text>
</g>
<!-- Node0&#45;&gt;Node1 -->
<g id="edge1" class="edge"><title>Node0&#45;&gt;Node1</title>
<path fill="none" stroke="midnightblue" d="M188.577,-168.444C154.749,-158.929 100.11,-143.562 63.8756,-133.371"/>
<polygon fill="midnightblue" stroke="midnightblue" points="64.7504,-129.982 54.1763,-130.643 62.8552,-136.72 64.7504,-129.982"/>
</g>
<!-- Node2 -->
<g id="node3" class="node"><title>Node2</title>
<polygon fill="white" stroke="#bfbfbf" points="72,-112.5 72,-131.5 120,-131.5 120,-112.5 72,-112.5"/>
<text text-anchor="middle" x="96" y="-119.5" font-family="Helvetica,sans-Serif" font-size="10.00">conio.h</text>
</g>
<!-- Node0&#45;&gt;Node2 -->
<g id="edge2" class="edge"><title>Node0&#45;&gt;Node2</title>
<path fill="none" stroke="midnightblue" d="M199.51,-168.444C179.358,-159.596 147.677,-145.687 124.669,-135.586"/>
<polygon fill="midnightblue" stroke="midnightblue" points="125.962,-132.332 115.399,-131.516 123.148,-138.741 125.962,-132.332"/>
</g>
<!-- Node3 -->
<g id="node4" class="node"><title>Node3</title>
<polygon fill="white" stroke="#bfbfbf" points="351.5,-56.5 351.5,-75.5 392.5,-75.5 392.5,-56.5 351.5,-56.5"/>
<text text-anchor="middle" x="372" y="-63.5" font-family="Helvetica,sans-Serif" font-size="10.00">string</text>
</g>
<!-- Node0&#45;&gt;Node3 -->
<g id="edge3" class="edge"><title>Node0&#45;&gt;Node3</title>
<path fill="none" stroke="midnightblue" d="M213.235,-168.468C204.966,-155.063 192.082,-128.86 205,-112 221.492,-90.4759 297.835,-76.9244 341.371,-70.8094"/>
<polygon fill="midnightblue" stroke="midnightblue" points="341.979,-74.2591 351.418,-69.4482 341.039,-67.3224 341.979,-74.2591"/>
</g>
<!-- Node4 -->
<g id="node5" class="node"><title>Node4</title>
<polygon fill="white" stroke="#bfbfbf" points="306.5,-0.5 306.5,-19.5 371.5,-19.5 371.5,-0.5 306.5,-0.5"/>
<text text-anchor="middle" x="339" y="-7.5" font-family="Helvetica,sans-Serif" font-size="10.00">Windows.h</text>
</g>
<!-- Node0&#45;&gt;Node4 -->
<g id="edge4" class="edge"><title>Node0&#45;&gt;Node4</title>
<path fill="none" stroke="midnightblue" d="M211.502,-168.274C201.487,-155.495 186.09,-131.132 196,-112 219.001,-67.5953 271.504,-38.549 306.087,-23.4614"/>
<polygon fill="midnightblue" stroke="midnightblue" points="307.466,-26.6785 315.327,-19.5749 304.752,-20.2261 307.466,-26.6785"/>
</g>
<!-- Node5 -->
<g id="node6" class="node"><title>Node5</title>
<g id="a_node6"><a xlink:href="_color_8h.html" target="_top" xlink:title="Заголовочный файл с цветами и модулем смены цвета в консоли. ">
<polygon fill="white" stroke="black" points="214,-112.5 214,-131.5 292,-131.5 292,-112.5 214,-112.5"/>
<text text-anchor="middle" x="253" y="-119.5" font-family="Helvetica,sans-Serif" font-size="10.00">..\core\Color.h</text>
</a>
</g>
</g>
<!-- Node0&#45;&gt;Node5 -->
<g id="edge5" class="edge"><title>Node0&#45;&gt;Node5</title>
<path fill="none" stroke="midnightblue" d="M224.614,-168.083C229.367,-160.534 236.318,-149.495 242.152,-140.23"/>
<polygon fill="midnightblue" stroke="midnightblue" points="245.124,-142.078 247.49,-131.751 239.2,-138.349 245.124,-142.078"/>
</g>
<!-- Node6 -->
<g id="node7" class="node"><title>Node6</title>
<g id="a_node7"><a xlink:href="_constants_menu_8h.html" target="_top" xlink:title="Заголовочный файл с константами меню. ">
<polygon fill="white" stroke="black" points="310,-112.5 310,-131.5 434,-131.5 434,-112.5 310,-112.5"/>
<text text-anchor="middle" x="372" y="-119.5" font-family="Helvetica,sans-Serif" font-size="10.00">..\core\ConstantsMenu.h</text>
</a>
</g>
</g>
<!-- Node0&#45;&gt;Node6 -->
<g id="edge6" class="edge"><title>Node0&#45;&gt;Node6</title>
<path fill="none" stroke="midnightblue" d="M243.243,-168.444C268.871,-159.399 309.485,-145.064 338.238,-134.916"/>
<polygon fill="midnightblue" stroke="midnightblue" points="339.605,-138.145 347.87,-131.516 337.275,-131.544 339.605,-138.145"/>
</g>
<!-- Node7 -->
<g id="node8" class="node"><title>Node7</title>
<g id="a_node8"><a xlink:href="_logo_8h.html" target="_top" xlink:title="Заголовочный файл с логотипами. ">
<polygon fill="white" stroke="black" points="452.5,-112.5 452.5,-131.5 529.5,-131.5 529.5,-112.5 452.5,-112.5"/>
<text text-anchor="middle" x="491" y="-119.5" font-family="Helvetica,sans-Serif" font-size="10.00">..\core\Logo.h</text>
</a>
</g>
</g>
<!-- Node0&#45;&gt;Node7 -->
<g id="edge8" class="edge"><title>Node0&#45;&gt;Node7</title>
<path fill="none" stroke="midnightblue" d="M259.135,-169.032C307.901,-159.351 390.126,-143.026 442.421,-132.644"/>
<polygon fill="midnightblue" stroke="midnightblue" points="443.335,-136.031 452.462,-130.651 441.972,-129.165 443.335,-136.031"/>
</g>
<!-- Node8 -->
<g id="node9" class="node"><title>Node8</title>
<g id="a_node9"><a xlink:href="_a_d_b__slave_8h.html" target="_top" xlink:title="Заголовочный файл с подключением модуля работы с adb. ">
<polygon fill="white" stroke="black" points="547.5,-112.5 547.5,-131.5 650.5,-131.5 650.5,-112.5 547.5,-112.5"/>
<text text-anchor="middle" x="599" y="-119.5" font-family="Helvetica,sans-Serif" font-size="10.00">..\core\ADB_slave.h</text>
</a>
</g>
</g>
<!-- Node0&#45;&gt;Node8 -->
<g id="edge10" class="edge"><title>Node0&#45;&gt;Node8</title>
<path fill="none" stroke="midnightblue" d="M259.178,-171.471C317.991,-163.35 431.247,-147.612 537.377,-132.226"/>
<polygon fill="midnightblue" stroke="midnightblue" points="537.9,-135.687 547.294,-130.787 536.895,-128.76 537.9,-135.687"/>
</g>
<!-- Node6&#45;&gt;Node3 -->
<g id="edge7" class="edge"><title>Node6&#45;&gt;Node3</title>
<path fill="none" stroke="midnightblue" d="M372,-112.083C372,-105.006 372,-94.8611 372,-85.9865"/>
<polygon fill="midnightblue" stroke="midnightblue" points="375.5,-85.751 372,-75.7511 368.5,-85.7511 375.5,-85.751"/>
</g>
<!-- Node7&#45;&gt;Node3 -->
<g id="edge9" class="edge"><title>Node7&#45;&gt;Node3</title>
<path fill="none" stroke="midnightblue" d="M472.144,-112.444C452.734,-103.636 422.27,-89.8116 400.035,-79.722"/>
<polygon fill="midnightblue" stroke="midnightblue" points="401.32,-76.4615 390.768,-75.5164 398.428,-82.836 401.32,-76.4615"/>
</g>
<!-- Node9 -->
<g id="node10" class="node"><title>Node9</title>
<g id="a_node10"><a xlink:href="_a_d_b__mod_8h.html" target="_top" xlink:title="Заголовочный файл с подключением модуля работы с adb. ">
<polygon fill="white" stroke="black" points="480,-56.5 480,-75.5 580,-75.5 580,-56.5 480,-56.5"/>
<text text-anchor="middle" x="530" y="-63.5" font-family="Helvetica,sans-Serif" font-size="10.00">..\core\ADB_mod.h</text>
</a>
</g>
</g>
<!-- Node8&#45;&gt;Node9 -->
<g id="edge11" class="edge"><title>Node8&#45;&gt;Node9</title>
<path fill="none" stroke="midnightblue" d="M587.914,-112.324C577.514,-104.185 561.739,-91.8395 549.278,-82.0874"/>
<polygon fill="midnightblue" stroke="midnightblue" points="551.32,-79.2407 541.288,-75.8339 547.006,-84.7533 551.32,-79.2407"/>
</g>
<!-- Node9&#45;&gt;Node4 -->
<g id="edge12" class="edge"><title>Node9&#45;&gt;Node4</title>
<path fill="none" stroke="midnightblue" d="M499.735,-56.4435C467.045,-47.2011 414.818,-32.4356 378.817,-22.2572"/>
<polygon fill="midnightblue" stroke="midnightblue" points="379.698,-18.8691 369.123,-19.5164 377.794,-25.6051 379.698,-18.8691"/>
</g>
</g>
</svg>
