<?xml version="1.0" encoding="UTF-8" standalone="no"?>
<!DOCTYPE svg PUBLIC "-//W3C//DTD SVG 1.1//EN"
 "http://www.w3.org/Graphics/SVG/1.1/DTD/svg11.dtd">
<!-- Generated by graphviz version 2.38.0 (20140413.2041)
 -->
<!-- Title: Main.cpp Pages: 1 -->
<svg width="506pt" height="140pt"
 viewBox="0.00 0.00 505.50 140.00" xmlns="http://www.w3.org/2000/svg" xmlns:xlink="http://www.w3.org/1999/xlink">
<g id="graph0" class="graph" transform="scale(1 1) rotate(0) translate(4 136)">
<title>Main.cpp</title>
<polygon fill="white" stroke="none" points="-4,4 -4,-136 501.5,-136 501.5,4 -4,4"/>
<!-- Node0 -->
<g id="node1" class="node"><title>Node0</title>
<polygon fill="#bfbfbf" stroke="black" points="201.5,-112.5 201.5,-131.5 257.5,-131.5 257.5,-112.5 201.5,-112.5"/>
<text text-anchor="middle" x="229.5" y="-119.5" font-family="Helvetica,sans-Serif" font-size="10.00">Main.cpp</text>
</g>
<!-- Node1 -->
<g id="node2" class="node"><title>Node1</title>
<polygon fill="white" stroke="#bfbfbf" points="0,-56.5 0,-75.5 65,-75.5 65,-56.5 0,-56.5"/>
<text text-anchor="middle" x="32.5" y="-63.5" font-family="Helvetica,sans-Serif" font-size="10.00">Windows.h</text>
</g>
<!-- Node0&#45;&gt;Node1 -->
<g id="edge1" class="edge"><title>Node0&#45;&gt;Node1</title>
<path fill="none" stroke="midnightblue" d="M201.275,-113.263C167.776,-104.081 111.651,-88.6961 73.3964,-78.2102"/>
<polygon fill="midnightblue" stroke="midnightblue" points="74.1676,-74.7925 63.598,-75.5243 72.317,-81.5435 74.1676,-74.7925"/>
</g>
<!-- Node2 -->
<g id="node3" class="node"><title>Node2</title>
<polygon fill="white" stroke="#bfbfbf" points="83.5,-56.5 83.5,-75.5 137.5,-75.5 137.5,-56.5 83.5,-56.5"/>
<text text-anchor="middle" x="110.5" y="-63.5" font-family="Helvetica,sans-Serif" font-size="10.00">iostream</text>
</g>
<!-- Node0&#45;&gt;Node2 -->
<g id="edge2" class="edge"><title>Node0&#45;&gt;Node2</title>
<path fill="none" stroke="midnightblue" d="M210.644,-112.444C191.234,-103.636 160.77,-89.8116 138.535,-79.722"/>
<polygon fill="midnightblue" stroke="midnightblue" points="139.82,-76.4615 129.268,-75.5164 136.928,-82.836 139.82,-76.4615"/>
</g>
<!-- Node3 -->
<g id="node4" class="node"><title>Node3</title>
<polygon fill="white" stroke="#bfbfbf" points="155.5,-56.5 155.5,-75.5 201.5,-75.5 201.5,-56.5 155.5,-56.5"/>
<text text-anchor="middle" x="178.5" y="-63.5" font-family="Helvetica,sans-Serif" font-size="10.00">cstring</text>
</g>
<!-- Node0&#45;&gt;Node3 -->
<g id="edge3" class="edge"><title>Node0&#45;&gt;Node3</title>
<path fill="none" stroke="midnightblue" d="M221.078,-112.083C213.652,-104.22 202.648,-92.5688 193.688,-83.0813"/>
<polygon fill="midnightblue" stroke="midnightblue" points="196.176,-80.618 186.765,-75.7511 191.087,-85.4244 196.176,-80.618"/>
</g>
<!-- Node4 -->
<g id="node5" class="node"><title>Node4</title>
<polygon fill="white" stroke="#bfbfbf" points="324,-0.5 324,-19.5 365,-19.5 365,-0.5 324,-0.5"/>
<text text-anchor="middle" x="344.5" y="-7.5" font-family="Helvetica,sans-Serif" font-size="10.00">string</text>
</g>
<!-- Node0&#45;&gt;Node4 -->
<g id="edge4" class="edge"><title>Node0&#45;&gt;Node4</title>
<path fill="none" stroke="midnightblue" d="M229.823,-112.366C230.767,-98.8197 234.425,-72.4277 248.5,-56 265.379,-36.2998 292.77,-24.6519 313.982,-18.161"/>
<polygon fill="midnightblue" stroke="midnightblue" points="315.156,-21.4663 323.826,-15.3762 313.251,-14.7306 315.156,-21.4663"/>
</g>
<!-- Node5 -->
<g id="node6" class="node"><title>Node5</title>
<g id="a_node6"><a xlink:href="_settings_8h.html" target="_top" xlink:title="Заголовочный файл с подключением модуля настроек. ">
<polygon fill="white" stroke="black" points="257.5,-56.5 257.5,-75.5 337.5,-75.5 337.5,-56.5 257.5,-56.5"/>
<text text-anchor="middle" x="297.5" y="-63.5" font-family="Helvetica,sans-Serif" font-size="10.00">..\io\Settings.h</text>
</a>
</g>
</g>
<!-- Node0&#45;&gt;Node5 -->
<g id="edge5" class="edge"><title>Node0&#45;&gt;Node5</title>
<path fill="none" stroke="midnightblue" d="M240.425,-112.324C250.675,-104.185 266.221,-91.8395 278.501,-82.0874"/>
<polygon fill="midnightblue" stroke="midnightblue" points="280.721,-84.7937 286.376,-75.8339 276.368,-79.3119 280.721,-84.7937"/>
</g>
<!-- Node6 -->
<g id="node7" class="node"><title>Node6</title>
<g id="a_node7"><a xlink:href="_radix_8h.html" target="_top" xlink:title="Заголовочный файл с вызовом главной функции программы ">
<polygon fill="white" stroke="black" points="355.5,-56.5 355.5,-75.5 405.5,-75.5 405.5,-56.5 355.5,-56.5"/>
<text text-anchor="middle" x="380.5" y="-63.5" font-family="Helvetica,sans-Serif" font-size="10.00">Radix.h</text>
</a>
</g>
</g>
<!-- Node0&#45;&gt;Node6 -->
<g id="edge6" class="edge"><title>Node0&#45;&gt;Node6</title>
<path fill="none" stroke="midnightblue" d="M253.426,-112.444C278.719,-103.399 318.802,-89.064 347.18,-78.9158"/>
<polygon fill="midnightblue" stroke="midnightblue" points="348.448,-82.1794 356.686,-75.5164 346.091,-75.5882 348.448,-82.1794"/>
</g>
<!-- Node7 -->
<g id="node8" class="node"><title>Node7</title>
<g id="a_node8"><a xlink:href="_logger_8h.html" target="_top" xlink:title="Заголовочный файл с подключением модуля логирования. ">
<polygon fill="white" stroke="black" points="423.5,-56.5 423.5,-75.5 497.5,-75.5 497.5,-56.5 423.5,-56.5"/>
<text text-anchor="middle" x="460.5" y="-63.5" font-family="Helvetica,sans-Serif" font-size="10.00">..\io\Logger.h</text>
</a>
</g>
</g>
<!-- Node0&#45;&gt;Node7 -->
<g id="edge7" class="edge"><title>Node0&#45;&gt;Node7</title>
<path fill="none" stroke="midnightblue" d="M257.825,-114.379C296.772,-105.274 367.338,-88.7782 414.066,-77.8547"/>
<polygon fill="midnightblue" stroke="midnightblue" points="415.004,-81.2298 423.945,-75.5453 413.411,-74.4135 415.004,-81.2298"/>
</g>
<!-- Node7&#45;&gt;Node4 -->
<g id="edge8" class="edge"><title>Node7&#45;&gt;Node4</title>
<path fill="none" stroke="midnightblue" d="M442.119,-56.4435C423.284,-47.6751 393.769,-33.9355 372.121,-23.8579"/>
<polygon fill="midnightblue" stroke="midnightblue" points="373.338,-20.5637 362.795,-19.5164 370.383,-26.9098 373.338,-20.5637"/>
</g>
</g>
</svg>
