<?xml version="1.0" encoding="UTF-8" standalone="no"?>
<!DOCTYPE svg PUBLIC "-//W3C//DTD SVG 1.1//EN"
 "http://www.w3.org/Graphics/SVG/1.1/DTD/svg11.dtd">
<!-- Generated by graphviz version 2.38.0 (20140413.2041)
 -->
<!-- Title: Menu.cpp Pages: 1 -->
<svg width="642pt" height="140pt"
 viewBox="0.00 0.00 642.00 140.00" xmlns="http://www.w3.org/2000/svg" xmlns:xlink="http://www.w3.org/1999/xlink">
<g id="graph0" class="graph" transform="scale(1 1) rotate(0) translate(4 136)">
<title>Menu.cpp</title>
<polygon fill="white" stroke="none" points="-4,4 -4,-136 638,-136 638,4 -4,4"/>
<!-- Node0 -->
<g id="node1" class="node"><title>Node0</title>
<polygon fill="#bfbfbf" stroke="black" points="229.5,-112.5 229.5,-131.5 288.5,-131.5 288.5,-112.5 229.5,-112.5"/>
<text text-anchor="middle" x="259" y="-119.5" font-family="Helvetica,sans-Serif" font-size="10.00">Menu.cpp</text>
</g>
<!-- Node1 -->
<g id="node2" class="node"><title>Node1</title>
<polygon fill="white" stroke="#bfbfbf" points="0,-56.5 0,-75.5 54,-75.5 54,-56.5 0,-56.5"/>
<text text-anchor="middle" x="27" y="-63.5" font-family="Helvetica,sans-Serif" font-size="10.00">iostream</text>
</g>
<!-- Node0&#45;&gt;Node1 -->
<g id="edge1" class="edge"><title>Node0&#45;&gt;Node1</title>
<path fill="none" stroke="midnightblue" d="M229.406,-114.392C192.869,-106.194 128.578,-91.6352 64.049,-76.2181"/>
<polygon fill="midnightblue" stroke="midnightblue" points="64.6533,-72.7639 54.1131,-73.8378 63.0224,-79.5713 64.6533,-72.7639"/>
</g>
<!-- Node2 -->
<g id="node3" class="node"><title>Node2</title>
<polygon fill="white" stroke="#bfbfbf" points="72,-56.5 72,-75.5 120,-75.5 120,-56.5 72,-56.5"/>
<text text-anchor="middle" x="96" y="-63.5" font-family="Helvetica,sans-Serif" font-size="10.00">conio.h</text>
</g>
<!-- Node0&#45;&gt;Node2 -->
<g id="edge2" class="edge"><title>Node0&#45;&gt;Node2</title>
<path fill="none" stroke="midnightblue" d="M233.172,-112.444C205.267,-103.199 160.681,-88.4281 129.957,-78.2495"/>
<polygon fill="midnightblue" stroke="midnightblue" points="130.706,-74.8108 120.113,-74.9883 128.505,-81.4556 130.706,-74.8108"/>
</g>
<!-- Node3 -->
<g id="node4" class="node"><title>Node3</title>
<polygon fill="white" stroke="#bfbfbf" points="389.5,-0.5 389.5,-19.5 430.5,-19.5 430.5,-0.5 389.5,-0.5"/>
<text text-anchor="middle" x="410" y="-7.5" font-family="Helvetica,sans-Serif" font-size="10.00">string</text>
</g>
<!-- Node0&#45;&gt;Node3 -->
<g id="edge3" class="edge"><title>Node0&#45;&gt;Node3</title>
<path fill="none" stroke="midnightblue" d="M229.435,-113.135C194.985,-102.55 145.364,-82.0104 167,-56 193.669,-23.9386 319.961,-14.6212 379.195,-11.9935"/>
<polygon fill="midnightblue" stroke="midnightblue" points="379.586,-15.4806 389.435,-11.5768 379.301,-8.48639 379.586,-15.4806"/>
</g>
<!-- Node4 -->
<g id="node5" class="node"><title>Node4</title>
<polygon fill="white" stroke="#bfbfbf" points="176.5,-56.5 176.5,-75.5 241.5,-75.5 241.5,-56.5 176.5,-56.5"/>
<text text-anchor="middle" x="209" y="-63.5" font-family="Helvetica,sans-Serif" font-size="10.00">Windows.h</text>
</g>
<!-- Node0&#45;&gt;Node4 -->
<g id="edge4" class="edge"><title>Node0&#45;&gt;Node4</title>
<path fill="none" stroke="midnightblue" d="M250.744,-112.083C243.535,-104.298 232.89,-92.8015 224.154,-83.3665"/>
<polygon fill="midnightblue" stroke="midnightblue" points="226.465,-80.7108 217.103,-75.7511 221.329,-85.4666 226.465,-80.7108"/>
</g>
<!-- Node5 -->
<g id="node6" class="node"><title>Node5</title>
<g id="a_node6"><a xlink:href="_constants_8h.html" target="_top" xlink:title="Заголовочный файл с константами. ">
<polygon fill="white" stroke="black" points="260,-56.5 260,-75.5 360,-75.5 360,-56.5 260,-56.5"/>
<text text-anchor="middle" x="310" y="-63.5" font-family="Helvetica,sans-Serif" font-size="10.00">..\core\Constants.h</text>
</a>
</g>
</g>
<!-- Node0&#45;&gt;Node5 -->
<g id="edge5" class="edge"><title>Node0&#45;&gt;Node5</title>
<path fill="none" stroke="midnightblue" d="M267.422,-112.083C274.848,-104.22 285.852,-92.5688 294.812,-83.0813"/>
<polygon fill="midnightblue" stroke="midnightblue" points="297.413,-85.4244 301.735,-75.7511 292.324,-80.618 297.413,-85.4244"/>
</g>
<!-- Node6 -->
<g id="node7" class="node"><title>Node6</title>
<g id="a_node7"><a xlink:href="_color_8h.html" target="_top" xlink:title="Заголовочный файл с цветами и модулем смены цвета в консоли. ">
<polygon fill="white" stroke="black" points="378,-56.5 378,-75.5 456,-75.5 456,-56.5 378,-56.5"/>
<text text-anchor="middle" x="417" y="-63.5" font-family="Helvetica,sans-Serif" font-size="10.00">..\core\Color.h</text>
</a>
</g>
</g>
<!-- Node0&#45;&gt;Node6 -->
<g id="edge7" class="edge"><title>Node0&#45;&gt;Node6</title>
<path fill="none" stroke="midnightblue" d="M284.036,-112.444C310.616,-103.359 352.809,-88.9388 382.523,-78.7831"/>
<polygon fill="midnightblue" stroke="midnightblue" points="383.751,-82.0625 392.082,-75.5164 381.487,-75.4386 383.751,-82.0625"/>
</g>
<!-- Node7 -->
<g id="node8" class="node"><title>Node7</title>
<g id="a_node8"><a xlink:href="_menu_8h.html" target="_top" xlink:title="Заголовочный файл с подключением модуля создания меню. ">
<polygon fill="white" stroke="black" points="566,-56.5 566,-75.5 634,-75.5 634,-56.5 566,-56.5"/>
<text text-anchor="middle" x="600" y="-63.5" font-family="Helvetica,sans-Serif" font-size="10.00">..\ui\Menu.h</text>
</a>
</g>
</g>
<!-- Node0&#45;&gt;Node7 -->
<g id="edge8" class="edge"><title>Node0&#45;&gt;Node7</title>
<path fill="none" stroke="midnightblue" d="M288.699,-117.081C340.722,-110.094 451.924,-94.6192 555.745,-76.144"/>
<polygon fill="midnightblue" stroke="midnightblue" points="556.541,-79.5571 565.766,-74.347 555.306,-72.667 556.541,-79.5571"/>
</g>
<!-- Node9 -->
<g id="node10" class="node"><title>Node9</title>
<g id="a_node10"><a xlink:href="_logger_8h.html" target="_top" xlink:title="Заголовочный файл с подключением модуля логирования. ">
<polygon fill="white" stroke="black" points="474,-56.5 474,-75.5 548,-75.5 548,-56.5 474,-56.5"/>
<text text-anchor="middle" x="511" y="-63.5" font-family="Helvetica,sans-Serif" font-size="10.00">..\io\Logger.h</text>
</a>
</g>
</g>
<!-- Node0&#45;&gt;Node9 -->
<g id="edge11" class="edge"><title>Node0&#45;&gt;Node9</title>
<path fill="none" stroke="midnightblue" d="M288.897,-114.593C332.166,-105.322 412.659,-88.0731 463.94,-77.0843"/>
<polygon fill="midnightblue" stroke="midnightblue" points="464.742,-80.4919 473.787,-74.9742 463.275,-73.6473 464.742,-80.4919"/>
</g>
<!-- Node5&#45;&gt;Node3 -->
<g id="edge6" class="edge"><title>Node5&#45;&gt;Node3</title>
<path fill="none" stroke="midnightblue" d="M326.067,-56.324C341.958,-47.7428 366.507,-34.486 384.958,-24.5224"/>
<polygon fill="midnightblue" stroke="midnightblue" points="386.837,-27.4857 393.973,-19.6545 383.511,-21.3264 386.837,-27.4857"/>
</g>
<!-- Node7&#45;&gt;Node3 -->
<g id="edge9" class="edge"><title>Node7&#45;&gt;Node3</title>
<path fill="none" stroke="midnightblue" d="M569.894,-56.4435C534.466,-46.3745 475.972,-29.7501 440.412,-19.6434"/>
<polygon fill="midnightblue" stroke="midnightblue" points="441.172,-16.2208 430.596,-16.8536 439.258,-22.9541 441.172,-16.2208"/>
</g>
<!-- Node8 -->
<g id="node9" class="node"><title>Node8</title>
<polygon fill="white" stroke="#bfbfbf" points="579,-0.5 579,-19.5 621,-19.5 621,-0.5 579,-0.5"/>
<text text-anchor="middle" x="600" y="-7.5" font-family="Helvetica,sans-Serif" font-size="10.00">vector</text>
</g>
<!-- Node7&#45;&gt;Node8 -->
<g id="edge10" class="edge"><title>Node7&#45;&gt;Node8</title>
<path fill="none" stroke="midnightblue" d="M600,-56.083C600,-49.0059 600,-38.8611 600,-29.9865"/>
<polygon fill="midnightblue" stroke="midnightblue" points="603.5,-29.751 600,-19.7511 596.5,-29.7511 603.5,-29.751"/>
</g>
<!-- Node9&#45;&gt;Node3 -->
<g id="edge12" class="edge"><title>Node9&#45;&gt;Node3</title>
<path fill="none" stroke="midnightblue" d="M494.773,-56.324C478.649,-47.7034 453.7,-34.3643 435.036,-24.3855"/>
<polygon fill="midnightblue" stroke="midnightblue" points="436.656,-21.283 426.187,-19.6545 433.356,-27.456 436.656,-21.283"/>
</g>
</g>
</svg>
