<?xml version="1.0" encoding="UTF-8" standalone="no"?>
<!DOCTYPE svg PUBLIC "-//W3C//DTD SVG 1.1//EN"
 "http://www.w3.org/Graphics/SVG/1.1/DTD/svg11.dtd">
<!-- Generated by graphviz version 2.38.0 (20140413.2041)
 -->
<!-- Title: Templates.cpp Pages: 1 -->
<svg width="264pt" height="140pt"
 viewBox="0.00 0.00 263.50 140.00" xmlns="http://www.w3.org/2000/svg" xmlns:xlink="http://www.w3.org/1999/xlink">
<g id="graph0" class="graph" transform="scale(1 1) rotate(0) translate(4 136)">
<title>Templates.cpp</title>
<polygon fill="white" stroke="none" points="-4,4 -4,-136 259.5,-136 259.5,4 -4,4"/>
<!-- Node0 -->
<g id="node1" class="node"><title>Node0</title>
<polygon fill="#bfbfbf" stroke="black" points="62.5,-112.5 62.5,-131.5 142.5,-131.5 142.5,-112.5 62.5,-112.5"/>
<text text-anchor="middle" x="102.5" y="-119.5" font-family="Helvetica,sans-Serif" font-size="10.00">Templates.cpp</text>
</g>
<!-- Node1 -->
<g id="node2" class="node"><title>Node1</title>
<polygon fill="white" stroke="#bfbfbf" points="0,-56.5 0,-75.5 49,-75.5 49,-56.5 0,-56.5"/>
<text text-anchor="middle" x="24.5" y="-63.5" font-family="Helvetica,sans-Serif" font-size="10.00">fstream</text>
</g>
<!-- Node0&#45;&gt;Node1 -->
<g id="edge1" class="edge"><title>Node0&#45;&gt;Node1</title>
<path fill="none" stroke="midnightblue" d="M89.968,-112.324C77.9141,-103.979 59.4732,-91.2122 45.2313,-81.3524"/>
<polygon fill="midnightblue" stroke="midnightblue" points="47.2151,-78.469 37.0009,-75.6545 43.2306,-84.2243 47.2151,-78.469"/>
</g>
<!-- Node2 -->
<g id="node3" class="node"><title>Node2</title>
<g id="a_node3"><a xlink:href="_templates_8h.html" target="_top" xlink:title="Заголовочный файл с подключением модуля создания стандартных файлов программы. ">
<polygon fill="white" stroke="black" points="67.5,-56.5 67.5,-75.5 137.5,-75.5 137.5,-56.5 67.5,-56.5"/>
<text text-anchor="middle" x="102.5" y="-63.5" font-family="Helvetica,sans-Serif" font-size="10.00">Templates.h</text>
</a>
</g>
</g>
<!-- Node0&#45;&gt;Node2 -->
<g id="edge2" class="edge"><title>Node0&#45;&gt;Node2</title>
<path fill="none" stroke="midnightblue" d="M102.5,-112.083C102.5,-105.006 102.5,-94.8611 102.5,-85.9865"/>
<polygon fill="midnightblue" stroke="midnightblue" points="106,-85.751 102.5,-75.7511 99.0001,-85.7511 106,-85.751"/>
</g>
<!-- Node3 -->
<g id="node4" class="node"><title>Node3</title>
<g id="a_node4"><a xlink:href="_constants_8h.html" target="_top" xlink:title="Заголовочный файл с константами. ">
<polygon fill="white" stroke="black" points="155.5,-56.5 155.5,-75.5 255.5,-75.5 255.5,-56.5 155.5,-56.5"/>
<text text-anchor="middle" x="205.5" y="-63.5" font-family="Helvetica,sans-Serif" font-size="10.00">..\core\Constants.h</text>
</a>
</g>
</g>
<!-- Node0&#45;&gt;Node3 -->
<g id="edge3" class="edge"><title>Node0&#45;&gt;Node3</title>
<path fill="none" stroke="midnightblue" d="M119.049,-112.324C135.492,-103.703 160.935,-90.3643 179.968,-80.3855"/>
<polygon fill="midnightblue" stroke="midnightblue" points="181.761,-83.3977 188.992,-75.6545 178.511,-77.198 181.761,-83.3977"/>
</g>
<!-- Node4 -->
<g id="node5" class="node"><title>Node4</title>
<polygon fill="white" stroke="#bfbfbf" points="185,-0.5 185,-19.5 226,-19.5 226,-0.5 185,-0.5"/>
<text text-anchor="middle" x="205.5" y="-7.5" font-family="Helvetica,sans-Serif" font-size="10.00">string</text>
</g>
<!-- Node3&#45;&gt;Node4 -->
<g id="edge4" class="edge"><title>Node3&#45;&gt;Node4</title>
<path fill="none" stroke="midnightblue" d="M205.5,-56.083C205.5,-49.0059 205.5,-38.8611 205.5,-29.9865"/>
<polygon fill="midnightblue" stroke="midnightblue" points="209,-29.751 205.5,-19.7511 202,-29.7511 209,-29.751"/>
</g>
</g>
</svg>
