<?xml version="1.0" encoding="UTF-8" standalone="no"?>
<!DOCTYPE svg PUBLIC "-//W3C//DTD SVG 1.1//EN"
 "http://www.w3.org/Graphics/SVG/1.1/DTD/svg11.dtd">
<!-- Generated by graphviz version 2.38.0 (20140413.2041)
 -->
<!-- Title: ADB_slave.cpp Pages: 1 -->
<svg width="170pt" height="140pt"
 viewBox="0.00 0.00 169.50 140.00" xmlns="http://www.w3.org/2000/svg" xmlns:xlink="http://www.w3.org/1999/xlink">
<g id="graph0" class="graph" transform="scale(1 1) rotate(0) translate(4 136)">
<title>ADB_slave.cpp</title>
<polygon fill="white" stroke="none" points="-4,4 -4,-136 165.5,-136 165.5,4 -4,4"/>
<!-- Node0 -->
<g id="node1" class="node"><title>Node0</title>
<polygon fill="#bfbfbf" stroke="black" points="38,-112.5 38,-131.5 121,-131.5 121,-112.5 38,-112.5"/>
<text text-anchor="middle" x="79.5" y="-119.5" font-family="Helvetica,sans-Serif" font-size="10.00">ADB_slave.cpp</text>
</g>
<!-- Node1 -->
<g id="node2" class="node"><title>Node1</title>
<g id="a_node2"><a xlink:href="$_a_d_b__mod_8h.html" xlink:title="Заголовочный файл с подключением модуля работы с adb. ">
<polygon fill="white" stroke="black" points="0,-56.5 0,-75.5 69,-75.5 69,-56.5 0,-56.5"/>
<text text-anchor="middle" x="34.5" y="-63.5" font-family="Helvetica,sans-Serif" font-size="10.00">ADB_mod.h</text>
</a>
</g>
</g>
<!-- Node0&#45;&gt;Node1 -->
<g id="edge1" class="edge"><title>Node0&#45;&gt;Node1</title>
<path fill="none" stroke="midnightblue" d="M72.0692,-112.083C65.6473,-104.377 56.1944,-93.0333 48.3775,-83.6531"/>
<polygon fill="midnightblue" stroke="midnightblue" points="50.8832,-81.1927 41.7926,-75.7511 45.5057,-85.674 50.8832,-81.1927"/>
</g>
<!-- Node3 -->
<g id="node4" class="node"><title>Node3</title>
<g id="a_node4"><a xlink:href="$_logger_8h.html" xlink:title="Заголовочный файл с подключением модуля логирования. ">
<polygon fill="white" stroke="black" points="87.5,-56.5 87.5,-75.5 161.5,-75.5 161.5,-56.5 87.5,-56.5"/>
<text text-anchor="middle" x="124.5" y="-63.5" font-family="Helvetica,sans-Serif" font-size="10.00">..\io\Logger.h</text>
</a>
</g>
</g>
<!-- Node0&#45;&gt;Node3 -->
<g id="edge3" class="edge"><title>Node0&#45;&gt;Node3</title>
<path fill="none" stroke="midnightblue" d="M86.9308,-112.083C93.3527,-104.377 102.806,-93.0333 110.622,-83.6531"/>
<polygon fill="midnightblue" stroke="midnightblue" points="113.494,-85.674 117.207,-75.7511 108.117,-81.1927 113.494,-85.674"/>
</g>
<!-- Node2 -->
<g id="node3" class="node"><title>Node2</title>
<polygon fill="white" stroke="#bfbfbf" points="2,-0.5 2,-19.5 67,-19.5 67,-0.5 2,-0.5"/>
<text text-anchor="middle" x="34.5" y="-7.5" font-family="Helvetica,sans-Serif" font-size="10.00">Windows.h</text>
</g>
<!-- Node1&#45;&gt;Node2 -->
<g id="edge2" class="edge"><title>Node1&#45;&gt;Node2</title>
<path fill="none" stroke="midnightblue" d="M34.5,-56.083C34.5,-49.0059 34.5,-38.8611 34.5,-29.9865"/>
<polygon fill="midnightblue" stroke="midnightblue" points="38.0001,-29.751 34.5,-19.7511 31.0001,-29.7511 38.0001,-29.751"/>
</g>
<!-- Node4 -->
<g id="node5" class="node"><title>Node4</title>
<polygon fill="white" stroke="#bfbfbf" points="104,-0.5 104,-19.5 145,-19.5 145,-0.5 104,-0.5"/>
<text text-anchor="middle" x="124.5" y="-7.5" font-family="Helvetica,sans-Serif" font-size="10.00">string</text>
</g>
<!-- Node3&#45;&gt;Node4 -->
<g id="edge4" class="edge"><title>Node3&#45;&gt;Node4</title>
<path fill="none" stroke="midnightblue" d="M124.5,-56.083C124.5,-49.0059 124.5,-38.8611 124.5,-29.9865"/>
<polygon fill="midnightblue" stroke="midnightblue" points="128,-29.751 124.5,-19.7511 121,-29.7511 128,-29.751"/>
</g>
</g>
</svg>
