<?xml version="1.0" encoding="UTF-8" standalone="no"?>
<!DOCTYPE svg PUBLIC "-//W3C//DTD SVG 1.1//EN"
 "http://www.w3.org/Graphics/SVG/1.1/DTD/svg11.dtd">
<!-- Generated by graphviz version 2.38.0 (20140413.2041)
 -->
<!-- Title: Constants.h Pages: 1 -->
<svg width="492pt" height="84pt"
 viewBox="0.00 0.00 491.50 84.00" xmlns="http://www.w3.org/2000/svg" xmlns:xlink="http://www.w3.org/1999/xlink">
<g id="graph0" class="graph" transform="scale(1 1) rotate(0) translate(4 80)">
<title>Constants.h</title>
<polygon fill="white" stroke="none" points="-4,4 -4,-80 487.5,-80 487.5,4 -4,4"/>
<!-- Node1 -->
<g id="node1" class="node"><title>Node1</title>
<polygon fill="#bfbfbf" stroke="black" points="223,-56.5 223,-75.5 292,-75.5 292,-56.5 223,-56.5"/>
<text text-anchor="middle" x="257.5" y="-63.5" font-family="Helvetica,sans-Serif" font-size="10.00">Constants.h</text>
</g>
<!-- Node2 -->
<g id="node2" class="node"><title>Node2</title>
<g id="a_node2"><a xlink:href="$_checking_files_8cpp.html" xlink:title="Модуль проверки файлов для рутирования телефона. ">
<polygon fill="white" stroke="black" points="0,-0.5 0,-19.5 97,-19.5 97,-0.5 0,-0.5"/>
<text text-anchor="middle" x="48.5" y="-7.5" font-family="Helvetica,sans-Serif" font-size="10.00">CheckingFiles.cpp</text>
</a>
</g>
</g>
<!-- Node1&#45;&gt;Node2 -->
<g id="edge1" class="edge"><title>Node1&#45;&gt;Node2</title>
<path fill="none" stroke="midnightblue" d="M214.516,-53.8941C175.048,-43.6966 117.4,-28.802 81.4617,-19.5164"/>
<polygon fill="midnightblue" stroke="midnightblue" points="213.826,-57.3306 224.383,-56.4435 215.577,-50.5532 213.826,-57.3306"/>
</g>
<!-- Node3 -->
<g id="node3" class="node"><title>Node3</title>
<g id="a_node3"><a xlink:href="$_initialization_8cpp.html" xlink:title="Модуль проверки стандартных файлов программы. ">
<polygon fill="white" stroke="black" points="115.5,-0.5 115.5,-19.5 201.5,-19.5 201.5,-0.5 115.5,-0.5"/>
<text text-anchor="middle" x="158.5" y="-7.5" font-family="Helvetica,sans-Serif" font-size="10.00">Initialization.cpp</text>
</a>
</g>
</g>
<!-- Node1&#45;&gt;Node3 -->
<g id="edge2" class="edge"><title>Node1&#45;&gt;Node3</title>
<path fill="none" stroke="midnightblue" d="M232.663,-51.4526C214.386,-41.4835 190.084,-28.2279 174.367,-19.6545"/>
<polygon fill="midnightblue" stroke="midnightblue" points="231.139,-54.608 241.594,-56.324 234.491,-48.4628 231.139,-54.608"/>
</g>
<!-- Node4 -->
<g id="node4" class="node"><title>Node4</title>
<g id="a_node4"><a xlink:href="$_rules_list_8cpp.html" xlink:title="Модуль чтения правил. ">
<polygon fill="white" stroke="black" points="219.5,-0.5 219.5,-19.5 295.5,-19.5 295.5,-0.5 219.5,-0.5"/>
<text text-anchor="middle" x="257.5" y="-7.5" font-family="Helvetica,sans-Serif" font-size="10.00">RulesList.cpp</text>
</a>
</g>
</g>
<!-- Node1&#45;&gt;Node4 -->
<g id="edge3" class="edge"><title>Node1&#45;&gt;Node4</title>
<path fill="none" stroke="midnightblue" d="M257.5,-45.8045C257.5,-36.9102 257.5,-26.7798 257.5,-19.7511"/>
<polygon fill="midnightblue" stroke="midnightblue" points="254,-46.083 257.5,-56.083 261,-46.083 254,-46.083"/>
</g>
<!-- Node5 -->
<g id="node5" class="node"><title>Node5</title>
<g id="a_node5"><a xlink:href="$_settings_8cpp.html" xlink:title="Модуль настроек. Парсит переменные в файлах ">
<polygon fill="white" stroke="black" points="314,-0.5 314,-19.5 385,-19.5 385,-0.5 314,-0.5"/>
<text text-anchor="middle" x="349.5" y="-7.5" font-family="Helvetica,sans-Serif" font-size="10.00">Settings.cpp</text>
</a>
</g>
</g>
<!-- Node1&#45;&gt;Node5 -->
<g id="edge4" class="edge"><title>Node1&#45;&gt;Node5</title>
<path fill="none" stroke="midnightblue" d="M281.05,-51.1774C297.979,-41.2407 320.283,-28.1492 334.755,-19.6545"/>
<polygon fill="midnightblue" stroke="midnightblue" points="279.134,-48.2435 272.281,-56.324 282.677,-54.2804 279.134,-48.2435"/>
</g>
<!-- Node6 -->
<g id="node6" class="node"><title>Node6</title>
<g id="a_node6"><a xlink:href="$_templates_8cpp.html" xlink:title="Функции для создания стандартных файлов программы. ">
<polygon fill="white" stroke="black" points="403.5,-0.5 403.5,-19.5 483.5,-19.5 483.5,-0.5 403.5,-0.5"/>
<text text-anchor="middle" x="443.5" y="-7.5" font-family="Helvetica,sans-Serif" font-size="10.00">Templates.cpp</text>
</a>
</g>
</g>
<!-- Node1&#45;&gt;Node6 -->
<g id="edge5" class="edge"><title>Node1&#45;&gt;Node6</title>
<path fill="none" stroke="midnightblue" d="M296.878,-53.5677C331.966,-43.381 382.521,-28.7034 414.166,-19.5164"/>
<polygon fill="midnightblue" stroke="midnightblue" points="295.6,-50.2942 286.972,-56.4435 297.552,-57.0166 295.6,-50.2942"/>
</g>
</g>
</svg>
