<?xml version="1.0" encoding="UTF-8" standalone="no"?>
<!DOCTYPE svg PUBLIC "-//W3C//DTD SVG 1.1//EN"
 "http://www.w3.org/Graphics/SVG/1.1/DTD/svg11.dtd">
<!-- Generated by graphviz version 2.38.0 (20140413.2041)
 -->
<!-- Title: ConstantsMenu.h Pages: 1 -->
<svg width="577pt" height="84pt"
 viewBox="0.00 0.00 577.00 84.00" xmlns="http://www.w3.org/2000/svg" xmlns:xlink="http://www.w3.org/1999/xlink">
<g id="graph0" class="graph" transform="scale(1 1) rotate(0) translate(4 80)">
<title>ConstantsMenu.h</title>
<polygon fill="white" stroke="none" points="-4,4 -4,-80 573,-80 573,4 -4,4"/>
<!-- Node2 -->
<g id="node1" class="node"><title>Node2</title>
<polygon fill="#bfbfbf" stroke="black" points="242.5,-56.5 242.5,-75.5 335.5,-75.5 335.5,-56.5 242.5,-56.5"/>
<text text-anchor="middle" x="289" y="-63.5" font-family="Helvetica,sans-Serif" font-size="10.00">ConstantsMenu.h</text>
</g>
<!-- Node3 -->
<g id="node2" class="node"><title>Node3</title>
<g id="a_node2"><a xlink:href="$_check_agreement_8cpp.html" xlink:title="Модуль проверки согласия пользователя с правилами. ">
<polygon fill="white" stroke="black" points="0,-0.5 0,-19.5 110,-19.5 110,-0.5 0,-0.5"/>
<text text-anchor="middle" x="55" y="-7.5" font-family="Helvetica,sans-Serif" font-size="10.00">CheckAgreement.cpp</text>
</a>
</g>
</g>
<!-- Node2&#45;&gt;Node3 -->
<g id="edge1" class="edge"><title>Node2&#45;&gt;Node3</title>
<path fill="none" stroke="midnightblue" d="M241.996,-54.1529C197.783,-43.95 132.484,-28.8809 91.9045,-19.5164"/>
<polygon fill="midnightblue" stroke="midnightblue" points="241.391,-57.6052 251.922,-56.4435 242.965,-50.7845 241.391,-57.6052"/>
</g>
<!-- Node4 -->
<g id="node3" class="node"><title>Node4</title>
<g id="a_node3"><a xlink:href="$_exit_8cpp.html" xlink:title="Модуль выхода из программы. ">
<polygon fill="white" stroke="black" points="128.5,-0.5 128.5,-19.5 181.5,-19.5 181.5,-0.5 128.5,-0.5"/>
<text text-anchor="middle" x="155" y="-7.5" font-family="Helvetica,sans-Serif" font-size="10.00">Exit.cpp</text>
</a>
</g>
</g>
<!-- Node2&#45;&gt;Node4 -->
<g id="edge2" class="edge"><title>Node2&#45;&gt;Node4</title>
<path fill="none" stroke="midnightblue" d="M258.323,-52.6377C233.177,-42.504 198.246,-28.4274 176.133,-19.5164"/>
<polygon fill="midnightblue" stroke="midnightblue" points="257.184,-55.952 267.767,-56.4435 259.8,-49.4594 257.184,-55.952"/>
</g>
<!-- Node5 -->
<g id="node4" class="node"><title>Node5</title>
<g id="a_node4"><a xlink:href="$_load_scale_8cpp.html" xlink:title="Модуль вывода шкалы загрузки. ">
<polygon fill="white" stroke="black" points="199.5,-0.5 199.5,-19.5 280.5,-19.5 280.5,-0.5 199.5,-0.5"/>
<text text-anchor="middle" x="240" y="-7.5" font-family="Helvetica,sans-Serif" font-size="10.00">LoadScale.cpp</text>
</a>
</g>
</g>
<!-- Node2&#45;&gt;Node5 -->
<g id="edge3" class="edge"><title>Node2&#45;&gt;Node5</title>
<path fill="none" stroke="midnightblue" d="M273.966,-48.4314C265.378,-38.9673 254.957,-27.4827 247.941,-19.7511"/>
<polygon fill="midnightblue" stroke="midnightblue" points="271.597,-51.0293 280.909,-56.083 276.781,-46.3254 271.597,-51.0293"/>
</g>
<!-- Node6 -->
<g id="node5" class="node"><title>Node6</title>
<g id="a_node5"><a xlink:href="$_main_menu_8cpp.html" xlink:title="Модуль вывода главного меню программы. ">
<polygon fill="white" stroke="black" points="299,-0.5 299,-19.5 379,-19.5 379,-0.5 299,-0.5"/>
<text text-anchor="middle" x="339" y="-7.5" font-family="Helvetica,sans-Serif" font-size="10.00">MainMenu.cpp</text>
</a>
</g>
</g>
<!-- Node2&#45;&gt;Node6 -->
<g id="edge4" class="edge"><title>Node2&#45;&gt;Node6</title>
<path fill="none" stroke="midnightblue" d="M304.076,-48.7175C312.889,-39.1997 323.666,-27.5608 330.897,-19.7511"/>
<polygon fill="midnightblue" stroke="midnightblue" points="301.482,-46.3674 297.256,-56.083 306.619,-51.1233 301.482,-46.3674"/>
</g>
<!-- Node7 -->
<g id="node6" class="node"><title>Node7</title>
<g id="a_node6"><a xlink:href="$_manual_8cpp.html" xlink:title="Модуль инструкции. ">
<polygon fill="white" stroke="black" points="397.5,-0.5 397.5,-19.5 464.5,-19.5 464.5,-0.5 397.5,-0.5"/>
<text text-anchor="middle" x="431" y="-7.5" font-family="Helvetica,sans-Serif" font-size="10.00">Manual.cpp</text>
</a>
</g>
</g>
<!-- Node2&#45;&gt;Node7 -->
<g id="edge5" class="edge"><title>Node2&#45;&gt;Node7</title>
<path fill="none" stroke="midnightblue" d="M321.155,-52.772C347.828,-42.6287 385.069,-28.4669 408.605,-19.5164"/>
<polygon fill="midnightblue" stroke="midnightblue" points="319.603,-49.6176 311.5,-56.4435 322.091,-56.1604 319.603,-49.6176"/>
</g>
<!-- Node8 -->
<g id="node7" class="node"><title>Node8</title>
<g id="a_node7"><a xlink:href="$_query_menu_8cpp.html" xlink:title="Модуль сообщения с вопросом для пользователя. ">
<polygon fill="white" stroke="black" points="483,-0.5 483,-19.5 569,-19.5 569,-0.5 483,-0.5"/>
<text text-anchor="middle" x="526" y="-7.5" font-family="Helvetica,sans-Serif" font-size="10.00">QueryMenu.cpp</text>
</a>
</g>
</g>
<!-- Node2&#45;&gt;Node8 -->
<g id="edge6" class="edge"><title>Node2&#45;&gt;Node8</title>
<path fill="none" stroke="midnightblue" d="M336.324,-54.2172C381.108,-44.0134 447.436,-28.9006 488.622,-19.5164"/>
<polygon fill="midnightblue" stroke="midnightblue" points="335.526,-50.8094 326.553,-56.4435 337.081,-57.6345 335.526,-50.8094"/>
</g>
</g>
</svg>
