<?xml version="1.0" encoding="UTF-8" standalone="no"?>
<!DOCTYPE svg PUBLIC "-//W3C//DTD SVG 1.1//EN"
 "http://www.w3.org/Graphics/SVG/1.1/DTD/svg11.dtd">
<!-- Generated by graphviz version 2.38.0 (20140413.2041)
 -->
<!-- Title: LoadScale.cpp Pages: 1 -->
<svg width="476pt" height="140pt"
 viewBox="0.00 0.00 476.00 140.00" xmlns="http://www.w3.org/2000/svg" xmlns:xlink="http://www.w3.org/1999/xlink">
<g id="graph0" class="graph" transform="scale(1 1) rotate(0) translate(4 136)">
<title>LoadScale.cpp</title>
<polygon fill="white" stroke="none" points="-4,4 -4,-136 472,-136 472,4 -4,4"/>
<!-- Node0 -->
<g id="node1" class="node"><title>Node0</title>
<polygon fill="#bfbfbf" stroke="black" points="150.5,-112.5 150.5,-131.5 231.5,-131.5 231.5,-112.5 150.5,-112.5"/>
<text text-anchor="middle" x="191" y="-119.5" font-family="Helvetica,sans-Serif" font-size="10.00">LoadScale.cpp</text>
</g>
<!-- Node1 -->
<g id="node2" class="node"><title>Node1</title>
<polygon fill="white" stroke="#bfbfbf" points="0,-56.5 0,-75.5 54,-75.5 54,-56.5 0,-56.5"/>
<text text-anchor="middle" x="27" y="-63.5" font-family="Helvetica,sans-Serif" font-size="10.00">iostream</text>
</g>
<!-- Node0&#45;&gt;Node1 -->
<g id="edge1" class="edge"><title>Node0&#45;&gt;Node1</title>
<path fill="none" stroke="midnightblue" d="M165.014,-112.444C137.304,-103.32 93.2477,-88.8133 62.3843,-78.6509"/>
<polygon fill="midnightblue" stroke="midnightblue" points="63.4577,-75.3196 52.8647,-75.5164 61.2684,-81.9684 63.4577,-75.3196"/>
</g>
<!-- Node2 -->
<g id="node3" class="node"><title>Node2</title>
<polygon fill="white" stroke="#bfbfbf" points="72,-56.5 72,-75.5 134,-75.5 134,-56.5 72,-56.5"/>
<text text-anchor="middle" x="103" y="-63.5" font-family="Helvetica,sans-Serif" font-size="10.00">windows.h</text>
</g>
<!-- Node0&#45;&gt;Node2 -->
<g id="edge2" class="edge"><title>Node0&#45;&gt;Node2</title>
<path fill="none" stroke="midnightblue" d="M176.861,-112.324C163.134,-103.9 142.064,-90.9709 125.936,-81.0741"/>
<polygon fill="midnightblue" stroke="midnightblue" points="127.457,-77.9016 117.104,-75.6545 123.796,-83.8678 127.457,-77.9016"/>
</g>
<!-- Node3 -->
<g id="node4" class="node"><title>Node3</title>
<g id="a_node4"><a xlink:href="$_color_8h.html" xlink:title="Заголовочный файл с цветами и модулем смены цвета в консоли. ">
<polygon fill="white" stroke="black" points="152,-56.5 152,-75.5 230,-75.5 230,-56.5 152,-56.5"/>
<text text-anchor="middle" x="191" y="-63.5" font-family="Helvetica,sans-Serif" font-size="10.00">..\core\Color.h</text>
</a>
</g>
</g>
<!-- Node0&#45;&gt;Node3 -->
<g id="edge3" class="edge"><title>Node0&#45;&gt;Node3</title>
<path fill="none" stroke="midnightblue" d="M191,-112.083C191,-105.006 191,-94.8611 191,-85.9865"/>
<polygon fill="midnightblue" stroke="midnightblue" points="194.5,-85.751 191,-75.7511 187.5,-85.7511 194.5,-85.751"/>
</g>
<!-- Node4 -->
<g id="node5" class="node"><title>Node4</title>
<g id="a_node5"><a xlink:href="$_logo_8h.html" xlink:title="Заголовочный файл с логотипами. ">
<polygon fill="white" stroke="black" points="248.5,-56.5 248.5,-75.5 325.5,-75.5 325.5,-56.5 248.5,-56.5"/>
<text text-anchor="middle" x="287" y="-63.5" font-family="Helvetica,sans-Serif" font-size="10.00">..\core\Logo.h</text>
</a>
</g>
</g>
<!-- Node0&#45;&gt;Node4 -->
<g id="edge4" class="edge"><title>Node0&#45;&gt;Node4</title>
<path fill="none" stroke="midnightblue" d="M206.424,-112.324C221.54,-103.822 244.815,-90.7288 262.471,-80.7975"/>
<polygon fill="midnightblue" stroke="midnightblue" points="264.614,-83.6077 271.614,-75.6545 261.183,-77.5066 264.614,-83.6077"/>
</g>
<!-- Node6 -->
<g id="node7" class="node"><title>Node6</title>
<g id="a_node7"><a xlink:href="$_constants_menu_8h.html" xlink:title="Заголовочный файл с константами меню. ">
<polygon fill="white" stroke="black" points="344,-56.5 344,-75.5 468,-75.5 468,-56.5 344,-56.5"/>
<text text-anchor="middle" x="406" y="-63.5" font-family="Helvetica,sans-Serif" font-size="10.00">..\core\ConstantsMenu.h</text>
</a>
</g>
</g>
<!-- Node0&#45;&gt;Node6 -->
<g id="edge6" class="edge"><title>Node0&#45;&gt;Node6</title>
<path fill="none" stroke="midnightblue" d="M225.067,-112.444C262.18,-103.122 321.661,-88.1828 362.215,-77.9972"/>
<polygon fill="midnightblue" stroke="midnightblue" points="363.246,-81.347 372.092,-75.5164 361.541,-74.5579 363.246,-81.347"/>
</g>
<!-- Node5 -->
<g id="node6" class="node"><title>Node5</title>
<polygon fill="white" stroke="#bfbfbf" points="325.5,-0.5 325.5,-19.5 366.5,-19.5 366.5,-0.5 325.5,-0.5"/>
<text text-anchor="middle" x="346" y="-7.5" font-family="Helvetica,sans-Serif" font-size="10.00">string</text>
</g>
<!-- Node4&#45;&gt;Node5 -->
<g id="edge5" class="edge"><title>Node4&#45;&gt;Node5</title>
<path fill="none" stroke="midnightblue" d="M296.479,-56.324C305.201,-48.3414 318.343,-36.3128 328.898,-26.6529"/>
<polygon fill="midnightblue" stroke="midnightblue" points="331.334,-29.1674 336.348,-19.8339 326.608,-24.0036 331.334,-29.1674"/>
</g>
<!-- Node6&#45;&gt;Node5 -->
<g id="edge7" class="edge"><title>Node6&#45;&gt;Node5</title>
<path fill="none" stroke="midnightblue" d="M396.36,-56.324C387.49,-48.3414 374.125,-36.3128 363.392,-26.6529"/>
<polygon fill="midnightblue" stroke="midnightblue" points="365.59,-23.922 355.815,-19.8339 360.907,-29.1251 365.59,-23.922"/>
</g>
</g>
</svg>
