<?xml version="1.0" encoding="UTF-8" standalone="no"?>
<!DOCTYPE svg PUBLIC "-//W3C//DTD SVG 1.1//EN"
 "http://www.w3.org/Graphics/SVG/1.1/DTD/svg11.dtd">
<!-- Generated by graphviz version 2.38.0 (20140413.2041)
 -->
<!-- Title: Logger.h Pages: 1 -->
<svg width="523pt" height="84pt"
 viewBox="0.00 0.00 522.50 84.00" xmlns="http://www.w3.org/2000/svg" xmlns:xlink="http://www.w3.org/1999/xlink">
<g id="graph0" class="graph" transform="scale(1 1) rotate(0) translate(4 80)">
<title>Logger.h</title>
<polygon fill="white" stroke="none" points="-4,4 -4,-80 518.5,-80 518.5,4 -4,4"/>
<!-- Node2 -->
<g id="node1" class="node"><title>Node2</title>
<polygon fill="#bfbfbf" stroke="black" points="233,-56.5 233,-75.5 287,-75.5 287,-56.5 233,-56.5"/>
<text text-anchor="middle" x="260" y="-63.5" font-family="Helvetica,sans-Serif" font-size="10.00">Logger.h</text>
</g>
<!-- Node3 -->
<g id="node2" class="node"><title>Node3</title>
<g id="a_node2"><a xlink:href="$_a_d_b__mod_8cpp.html" xlink:title="Модуль работы с adb. ">
<polygon fill="white" stroke="black" points="0,-0.5 0,-19.5 80,-19.5 80,-0.5 0,-0.5"/>
<text text-anchor="middle" x="40" y="-7.5" font-family="Helvetica,sans-Serif" font-size="10.00">ADB_mod.cpp</text>
</a>
</g>
</g>
<!-- Node2&#45;&gt;Node3 -->
<g id="edge1" class="edge"><title>Node2&#45;&gt;Node3</title>
<path fill="none" stroke="midnightblue" d="M222.617,-55.8242C181.197,-45.6575 114.948,-29.3964 74.6577,-19.5069"/>
<polygon fill="midnightblue" stroke="midnightblue" points="222.036,-59.2853 232.582,-58.27 223.704,-52.4871 222.036,-59.2853"/>
</g>
<!-- Node4 -->
<g id="node3" class="node"><title>Node4</title>
<g id="a_node3"><a xlink:href="$_main_8cpp.html" xlink:title="Главный файл программы ">
<polygon fill="white" stroke="black" points="98,-0.5 98,-19.5 154,-19.5 154,-0.5 98,-0.5"/>
<text text-anchor="middle" x="126" y="-7.5" font-family="Helvetica,sans-Serif" font-size="10.00">Main.cpp</text>
</a>
</g>
</g>
<!-- Node2&#45;&gt;Node4 -->
<g id="edge2" class="edge"><title>Node2&#45;&gt;Node4</title>
<path fill="none" stroke="midnightblue" d="M229.323,-52.6377C204.177,-42.504 169.246,-28.4274 147.133,-19.5164"/>
<polygon fill="midnightblue" stroke="midnightblue" points="228.184,-55.952 238.767,-56.4435 230.8,-49.4594 228.184,-55.952"/>
</g>
<!-- Node5 -->
<g id="node4" class="node"><title>Node5</title>
<g id="a_node4"><a xlink:href="$_operations_8cpp.html" xlink:title="Модуль проверки стандартных файлов программы и вызова алгоритма рутирования. ">
<polygon fill="white" stroke="black" points="172.5,-0.5 172.5,-19.5 255.5,-19.5 255.5,-0.5 172.5,-0.5"/>
<text text-anchor="middle" x="214" y="-7.5" font-family="Helvetica,sans-Serif" font-size="10.00">Operations.cpp</text>
</a>
</g>
</g>
<!-- Node2&#45;&gt;Node5 -->
<g id="edge3" class="edge"><title>Node2&#45;&gt;Node5</title>
<path fill="none" stroke="midnightblue" d="M245.886,-48.4314C237.824,-38.9673 228.041,-27.4827 221.455,-19.7511"/>
<polygon fill="midnightblue" stroke="midnightblue" points="243.255,-50.7402 252.404,-56.083 248.584,-46.2009 243.255,-50.7402"/>
</g>
<!-- Node6 -->
<g id="node5" class="node"><title>Node6</title>
<g id="a_node5"><a xlink:href="$_logger_8cpp.html" xlink:title="Модуль логирования. ">
<polygon fill="white" stroke="black" points="273.5,-0.5 273.5,-19.5 338.5,-19.5 338.5,-0.5 273.5,-0.5"/>
<text text-anchor="middle" x="306" y="-7.5" font-family="Helvetica,sans-Serif" font-size="10.00">Logger.cpp</text>
</a>
</g>
</g>
<!-- Node2&#45;&gt;Node6 -->
<g id="edge4" class="edge"><title>Node2&#45;&gt;Node6</title>
<path fill="none" stroke="midnightblue" d="M274.114,-48.4314C282.176,-38.9673 291.959,-27.4827 298.545,-19.7511"/>
<polygon fill="midnightblue" stroke="midnightblue" points="271.416,-46.2009 267.596,-56.083 276.745,-50.7402 271.416,-46.2009"/>
</g>
<!-- Node7 -->
<g id="node6" class="node"><title>Node7</title>
<g id="a_node6"><a xlink:href="$_templates_8cpp.html" xlink:title="Функции для создания стандартных файлов программы. ">
<polygon fill="white" stroke="black" points="357,-0.5 357,-19.5 437,-19.5 437,-0.5 357,-0.5"/>
<text text-anchor="middle" x="397" y="-7.5" font-family="Helvetica,sans-Serif" font-size="10.00">Templates.cpp</text>
</a>
</g>
</g>
<!-- Node2&#45;&gt;Node7 -->
<g id="edge5" class="edge"><title>Node2&#45;&gt;Node7</title>
<path fill="none" stroke="midnightblue" d="M291.023,-52.772C316.757,-42.6287 352.686,-28.4669 375.394,-19.5164"/>
<polygon fill="midnightblue" stroke="midnightblue" points="289.728,-49.5203 281.708,-56.4435 292.295,-56.0326 289.728,-49.5203"/>
</g>
<!-- Node8 -->
<g id="node7" class="node"><title>Node8</title>
<g id="a_node7"><a xlink:href="$_menu_8cpp.html" xlink:title="Модуль создания меню. ">
<polygon fill="white" stroke="black" points="455.5,-0.5 455.5,-19.5 514.5,-19.5 514.5,-0.5 455.5,-0.5"/>
<text text-anchor="middle" x="485" y="-7.5" font-family="Helvetica,sans-Serif" font-size="10.00">Menu.cpp</text>
</a>
</g>
</g>
<!-- Node2&#45;&gt;Node8 -->
<g id="edge6" class="edge"><title>Node2&#45;&gt;Node8</title>
<path fill="none" stroke="midnightblue" d="M296.925,-56.138C341.182,-45.5162 414.468,-27.9276 455.262,-18.137"/>
<polygon fill="midnightblue" stroke="midnightblue" points="296.047,-52.7492 287.14,-58.4863 297.681,-59.5559 296.047,-52.7492"/>
</g>
</g>
</svg>
