<?xml version="1.0" encoding="UTF-8" standalone="no"?>
<!DOCTYPE svg PUBLIC "-//W3C//DTD SVG 1.1//EN"
 "http://www.w3.org/Graphics/SVG/1.1/DTD/svg11.dtd">
<!-- Generated by graphviz version 2.38.0 (20140413.2041)
 -->
<!-- Title: Main.cpp Pages: 1 -->
<svg width="150pt" height="140pt"
 viewBox="0.00 0.00 150.00 140.00" xmlns="http://www.w3.org/2000/svg" xmlns:xlink="http://www.w3.org/1999/xlink">
<g id="graph0" class="graph" transform="scale(1 1) rotate(0) translate(4 136)">
<title>Main.cpp</title>
<polygon fill="white" stroke="none" points="-4,4 -4,-136 146,-136 146,4 -4,4"/>
<!-- Node0 -->
<g id="node1" class="node"><title>Node0</title>
<polygon fill="#bfbfbf" stroke="black" points="37,-112.5 37,-131.5 93,-131.5 93,-112.5 37,-112.5"/>
<text text-anchor="middle" x="65" y="-119.5" font-family="Helvetica,sans-Serif" font-size="10.00">Main.cpp</text>
</g>
<!-- Node1 -->
<g id="node2" class="node"><title>Node1</title>
<g id="a_node2"><a xlink:href="$_radix_8h.html" xlink:title="Заголовочный файл с вызовом главной функции программы ">
<polygon fill="white" stroke="black" points="0,-56.5 0,-75.5 50,-75.5 50,-56.5 0,-56.5"/>
<text text-anchor="middle" x="25" y="-63.5" font-family="Helvetica,sans-Serif" font-size="10.00">Radix.h</text>
</a>
</g>
</g>
<!-- Node0&#45;&gt;Node1 -->
<g id="edge1" class="edge"><title>Node0&#45;&gt;Node1</title>
<path fill="none" stroke="midnightblue" d="M58.3948,-112.083C52.7448,-104.455 44.4552,-93.2645 37.5488,-83.9408"/>
<polygon fill="midnightblue" stroke="midnightblue" points="40.2471,-81.7034 31.4823,-75.7511 34.6221,-85.87 40.2471,-81.7034"/>
</g>
<!-- Node2 -->
<g id="node3" class="node"><title>Node2</title>
<g id="a_node3"><a xlink:href="$_logger_8h.html" xlink:title="Заголовочный файл с подключением модуля логирования. ">
<polygon fill="white" stroke="black" points="68,-56.5 68,-75.5 142,-75.5 142,-56.5 68,-56.5"/>
<text text-anchor="middle" x="105" y="-63.5" font-family="Helvetica,sans-Serif" font-size="10.00">..\io\Logger.h</text>
</a>
</g>
</g>
<!-- Node0&#45;&gt;Node2 -->
<g id="edge2" class="edge"><title>Node0&#45;&gt;Node2</title>
<path fill="none" stroke="midnightblue" d="M71.6052,-112.083C77.2552,-104.455 85.5448,-93.2645 92.4512,-83.9408"/>
<polygon fill="midnightblue" stroke="midnightblue" points="95.3779,-85.87 98.5177,-75.7511 89.7529,-81.7034 95.3779,-85.87"/>
</g>
<!-- Node3 -->
<g id="node4" class="node"><title>Node3</title>
<polygon fill="white" stroke="#bfbfbf" points="84.5,-0.5 84.5,-19.5 125.5,-19.5 125.5,-0.5 84.5,-0.5"/>
<text text-anchor="middle" x="105" y="-7.5" font-family="Helvetica,sans-Serif" font-size="10.00">string</text>
</g>
<!-- Node2&#45;&gt;Node3 -->
<g id="edge3" class="edge"><title>Node2&#45;&gt;Node3</title>
<path fill="none" stroke="midnightblue" d="M105,-56.083C105,-49.0059 105,-38.8611 105,-29.9865"/>
<polygon fill="midnightblue" stroke="midnightblue" points="108.5,-29.751 105,-19.7511 101.5,-29.7511 108.5,-29.751"/>
</g>
</g>
</svg>
