<?xml version="1.0" encoding="UTF-8" standalone="no"?>
<!DOCTYPE svg PUBLIC "-//W3C//DTD SVG 1.1//EN"
 "http://www.w3.org/Graphics/SVG/1.1/DTD/svg11.dtd">
<!-- Generated by graphviz version 2.38.0 (20140413.2041)
 -->
<!-- Title: Menu.h Pages: 1 -->
<svg width="320pt" height="84pt"
 viewBox="0.00 0.00 319.50 84.00" xmlns="http://www.w3.org/2000/svg" xmlns:xlink="http://www.w3.org/1999/xlink">
<g id="graph0" class="graph" transform="scale(1 1) rotate(0) translate(4 80)">
<title>Menu.h</title>
<polygon fill="white" stroke="none" points="-4,4 -4,-80 315.5,-80 315.5,4 -4,4"/>
<!-- Node3 -->
<g id="node1" class="node"><title>Node3</title>
<polygon fill="#bfbfbf" stroke="black" points="135.5,-56.5 135.5,-75.5 184.5,-75.5 184.5,-56.5 135.5,-56.5"/>
<text text-anchor="middle" x="160" y="-63.5" font-family="Helvetica,sans-Serif" font-size="10.00">Menu.h</text>
</g>
<!-- Node4 -->
<g id="node2" class="node"><title>Node4</title>
<g id="a_node2"><a xlink:href="$_main_8cpp.html" xlink:title="Главный файл программы ">
<polygon fill="white" stroke="black" points="0,-0.5 0,-19.5 56,-19.5 56,-0.5 0,-0.5"/>
<text text-anchor="middle" x="28" y="-7.5" font-family="Helvetica,sans-Serif" font-size="10.00">Main.cpp</text>
</a>
</g>
</g>
<!-- Node3&#45;&gt;Node4 -->
<g id="edge1" class="edge"><title>Node3&#45;&gt;Node4</title>
<path fill="none" stroke="midnightblue" d="M129.781,-52.6377C105.01,-42.504 70.6004,-28.4274 48.8179,-19.5164"/>
<polygon fill="midnightblue" stroke="midnightblue" points="128.503,-55.8966 139.084,-56.4435 131.154,-49.4177 128.503,-55.8966"/>
</g>
<!-- Node5 -->
<g id="node3" class="node"><title>Node5</title>
<g id="a_node3"><a xlink:href="$_operations_8cpp.html" xlink:title="Модуль проверки стандартных файлов программы и вызова алгоритма рутирования. ">
<polygon fill="white" stroke="black" points="74.5,-0.5 74.5,-19.5 157.5,-19.5 157.5,-0.5 74.5,-0.5"/>
<text text-anchor="middle" x="116" y="-7.5" font-family="Helvetica,sans-Serif" font-size="10.00">Operations.cpp</text>
</a>
</g>
</g>
<!-- Node3&#45;&gt;Node5 -->
<g id="edge2" class="edge"><title>Node3&#45;&gt;Node5</title>
<path fill="none" stroke="midnightblue" d="M146.265,-48.144C138.599,-38.7357 129.367,-27.4046 123.131,-19.7511"/>
<polygon fill="midnightblue" stroke="midnightblue" points="143.704,-50.5415 152.734,-56.083 149.131,-46.1198 143.704,-50.5415"/>
</g>
<!-- Node6 -->
<g id="node4" class="node"><title>Node6</title>
<g id="a_node4"><a xlink:href="$_items_8cpp.html" xlink:title="Создание меню. ">
<polygon fill="white" stroke="black" points="175.5,-0.5 175.5,-19.5 234.5,-19.5 234.5,-0.5 175.5,-0.5"/>
<text text-anchor="middle" x="205" y="-7.5" font-family="Helvetica,sans-Serif" font-size="10.00">Items.cpp</text>
</a>
</g>
</g>
<!-- Node3&#45;&gt;Node6 -->
<g id="edge3" class="edge"><title>Node3&#45;&gt;Node6</title>
<path fill="none" stroke="midnightblue" d="M174.047,-48.144C181.887,-38.7357 191.329,-27.4046 197.707,-19.7511"/>
<polygon fill="midnightblue" stroke="midnightblue" points="171.144,-46.1601 167.431,-56.083 176.521,-50.6414 171.144,-46.1601"/>
</g>
<!-- Node7 -->
<g id="node5" class="node"><title>Node7</title>
<g id="a_node5"><a xlink:href="$_menu_8cpp.html" xlink:title="Модуль создания меню. ">
<polygon fill="white" stroke="black" points="252.5,-0.5 252.5,-19.5 311.5,-19.5 311.5,-0.5 252.5,-0.5"/>
<text text-anchor="middle" x="282" y="-7.5" font-family="Helvetica,sans-Serif" font-size="10.00">Menu.cpp</text>
</a>
</g>
</g>
<!-- Node3&#45;&gt;Node7 -->
<g id="edge4" class="edge"><title>Node3&#45;&gt;Node7</title>
<path fill="none" stroke="midnightblue" d="M188.539,-52.3678C211.386,-42.2553 242.805,-28.3486 262.759,-19.5164"/>
<polygon fill="midnightblue" stroke="midnightblue" points="187.059,-49.1955 179.331,-56.4435 189.892,-55.5965 187.059,-49.1955"/>
</g>
</g>
</svg>
