<?xml version="1.0" encoding="UTF-8" standalone="no"?>
<!DOCTYPE svg PUBLIC "-//W3C//DTD SVG 1.1//EN"
 "http://www.w3.org/Graphics/SVG/1.1/DTD/svg11.dtd">
<!-- Generated by graphviz version 2.38.0 (20140413.2041)
 -->
<!-- Title: Operations.cpp Pages: 1 -->
<svg width="846pt" height="140pt"
 viewBox="0.00 0.00 846.00 140.00" xmlns="http://www.w3.org/2000/svg" xmlns:xlink="http://www.w3.org/1999/xlink">
<g id="graph0" class="graph" transform="scale(1 1) rotate(0) translate(4 136)">
<title>Operations.cpp</title>
<polygon fill="white" stroke="none" points="-4,4 -4,-136 842,-136 842,4 -4,4"/>
<!-- Node0 -->
<g id="node1" class="node"><title>Node0</title>
<polygon fill="#bfbfbf" stroke="black" points="342.5,-112.5 342.5,-131.5 425.5,-131.5 425.5,-112.5 342.5,-112.5"/>
<text text-anchor="middle" x="384" y="-119.5" font-family="Helvetica,sans-Serif" font-size="10.00">Operations.cpp</text>
</g>
<!-- Node1 -->
<g id="node2" class="node"><title>Node1</title>
<polygon fill="white" stroke="#bfbfbf" points="495.5,-0.5 495.5,-19.5 536.5,-19.5 536.5,-0.5 495.5,-0.5"/>
<text text-anchor="middle" x="516" y="-7.5" font-family="Helvetica,sans-Serif" font-size="10.00">string</text>
</g>
<!-- Node0&#45;&gt;Node1 -->
<g id="edge1" class="edge"><title>Node0&#45;&gt;Node1</title>
<path fill="none" stroke="midnightblue" d="M425.752,-113.785C449.677,-107.594 478.528,-96.3071 497,-76 508.486,-63.3728 513.055,-44.1613 514.858,-29.8955"/>
<polygon fill="midnightblue" stroke="midnightblue" points="518.362,-30.0132 515.791,-19.7351 511.391,-29.3733 518.362,-30.0132"/>
</g>
<!-- Node2 -->
<g id="node3" class="node"><title>Node2</title>
<polygon fill="white" stroke="#bfbfbf" points="118,-56.5 118,-75.5 150,-75.5 150,-56.5 118,-56.5"/>
<text text-anchor="middle" x="134" y="-63.5" font-family="Helvetica,sans-Serif" font-size="10.00">io.h</text>
</g>
<!-- Node0&#45;&gt;Node2 -->
<g id="edge2" class="edge"><title>Node0&#45;&gt;Node2</title>
<path fill="none" stroke="midnightblue" d="M342.391,-113.64C297.964,-105.514 225.623,-91.5127 164,-76 162.725,-75.6789 161.422,-75.3382 160.11,-74.9844"/>
<polygon fill="midnightblue" stroke="midnightblue" points="160.696,-71.5116 150.118,-72.1251 158.77,-78.2414 160.696,-71.5116"/>
</g>
<!-- Node3 -->
<g id="node4" class="node"><title>Node3</title>
<polygon fill="white" stroke="#bfbfbf" points="81.5,-0.5 81.5,-19.5 146.5,-19.5 146.5,-0.5 81.5,-0.5"/>
<text text-anchor="middle" x="114" y="-7.5" font-family="Helvetica,sans-Serif" font-size="10.00">Windows.h</text>
</g>
<!-- Node0&#45;&gt;Node3 -->
<g id="edge3" class="edge"><title>Node0&#45;&gt;Node3</title>
<path fill="none" stroke="midnightblue" d="M342.159,-116.143C303.081,-110.421 243.9,-98.6703 197,-76 170.9,-63.3837 145.324,-41.4967 129.615,-26.6405"/>
<polygon fill="midnightblue" stroke="midnightblue" points="131.965,-24.0448 122.349,-19.5988 127.094,-29.0716 131.965,-24.0448"/>
</g>
<!-- Node4 -->
<g id="node5" class="node"><title>Node4</title>
<g id="a_node5"><a xlink:href="$_a_d_b__mod_8h.html" xlink:title="Заголовочный файл с подключением модуля работы с adb. ">
<polygon fill="white" stroke="black" points="0,-56.5 0,-75.5 100,-75.5 100,-56.5 0,-56.5"/>
<text text-anchor="middle" x="50" y="-63.5" font-family="Helvetica,sans-Serif" font-size="10.00">..\core\ADB_mod.h</text>
</a>
</g>
</g>
<!-- Node0&#45;&gt;Node4 -->
<g id="edge4" class="edge"><title>Node0&#45;&gt;Node4</title>
<path fill="none" stroke="midnightblue" d="M342.374,-114.27C283.908,-104.817 177.127,-87.5535 110.061,-76.7105"/>
<polygon fill="midnightblue" stroke="midnightblue" points="110.489,-73.2343 100.059,-75.0934 109.372,-80.1446 110.489,-73.2343"/>
</g>
<!-- Node5 -->
<g id="node6" class="node"><title>Node5</title>
<g id="a_node6"><a xlink:href="$_constants_8h.html" xlink:title="Заголовочный файл с константами. ">
<polygon fill="white" stroke="black" points="652,-56.5 652,-75.5 752,-75.5 752,-56.5 652,-56.5"/>
<text text-anchor="middle" x="702" y="-63.5" font-family="Helvetica,sans-Serif" font-size="10.00">..\core\Constants.h</text>
</a>
</g>
</g>
<!-- Node0&#45;&gt;Node5 -->
<g id="edge6" class="edge"><title>Node0&#45;&gt;Node5</title>
<path fill="none" stroke="midnightblue" d="M425.573,-113.94C480.672,-104.584 578.279,-88.0092 641.536,-77.2674"/>
<polygon fill="midnightblue" stroke="midnightblue" points="642.495,-80.6548 651.768,-75.5299 641.323,-73.7535 642.495,-80.6548"/>
</g>
<!-- Node6 -->
<g id="node7" class="node"><title>Node6</title>
<g id="a_node7"><a xlink:href="$_operations_8h.html" xlink:title="Заголовочный файл с вызовом модуля проверки стандартных файлов программы и вызова алгоритма рутирован...">
<polygon fill="white" stroke="black" points="384.5,-56.5 384.5,-75.5 487.5,-75.5 487.5,-56.5 384.5,-56.5"/>
<text text-anchor="middle" x="436" y="-63.5" font-family="Helvetica,sans-Serif" font-size="10.00">..\core\Operations.h</text>
</a>
</g>
</g>
<!-- Node0&#45;&gt;Node6 -->
<g id="edge8" class="edge"><title>Node0&#45;&gt;Node6</title>
<path fill="none" stroke="midnightblue" d="M392.587,-112.083C400.159,-104.22 411.378,-92.5688 420.514,-83.0813"/>
<polygon fill="midnightblue" stroke="midnightblue" points="423.158,-85.3821 427.573,-75.7511 418.115,-80.5266 423.158,-85.3821"/>
</g>
<!-- Node7 -->
<g id="node8" class="node"><title>Node7</title>
<g id="a_node8"><a xlink:href="$_logger_8h.html" xlink:title="Заголовочный файл с подключением модуля логирования. ">
<polygon fill="white" stroke="black" points="206,-56.5 206,-75.5 280,-75.5 280,-56.5 206,-56.5"/>
<text text-anchor="middle" x="243" y="-63.5" font-family="Helvetica,sans-Serif" font-size="10.00">..\io\Logger.h</text>
</a>
</g>
</g>
<!-- Node0&#45;&gt;Node7 -->
<g id="edge9" class="edge"><title>Node0&#45;&gt;Node7</title>
<path fill="none" stroke="midnightblue" d="M361.658,-112.444C338.247,-103.478 301.264,-89.314 274.81,-79.1827"/>
<polygon fill="midnightblue" stroke="midnightblue" points="275.828,-75.8245 265.237,-75.5164 273.324,-82.3615 275.828,-75.8245"/>
</g>
<!-- Node8 -->
<g id="node9" class="node"><title>Node8</title>
<g id="a_node9"><a xlink:href="$_templates_8h.html" xlink:title="Заголовочный файл с подключением модуля создания стандартных файлов программы. ">
<polygon fill="white" stroke="black" points="544.5,-56.5 544.5,-75.5 633.5,-75.5 633.5,-56.5 544.5,-56.5"/>
<text text-anchor="middle" x="589" y="-63.5" font-family="Helvetica,sans-Serif" font-size="10.00">..\io\Templates.h</text>
</a>
</g>
</g>
<!-- Node0&#45;&gt;Node8 -->
<g id="edge11" class="edge"><title>Node0&#45;&gt;Node8</title>
<path fill="none" stroke="midnightblue" d="M416.483,-112.444C451.72,-103.162 508.104,-88.3093 546.759,-78.127"/>
<polygon fill="midnightblue" stroke="midnightblue" points="547.891,-81.4483 556.669,-75.5164 546.107,-74.6792 547.891,-81.4483"/>
</g>
<!-- Node9 -->
<g id="node10" class="node"><title>Node9</title>
<g id="a_node10"><a xlink:href="$_menu_8h.html" xlink:title="Заголовочный файл с подключением модуля создания меню. ">
<polygon fill="white" stroke="black" points="770,-56.5 770,-75.5 838,-75.5 838,-56.5 770,-56.5"/>
<text text-anchor="middle" x="804" y="-63.5" font-family="Helvetica,sans-Serif" font-size="10.00">..\ui\Menu.h</text>
</a>
</g>
</g>
<!-- Node0&#45;&gt;Node9 -->
<g id="edge12" class="edge"><title>Node0&#45;&gt;Node9</title>
<path fill="none" stroke="midnightblue" d="M425.729,-117.224C493.662,-110.814 632.564,-96.6149 759.859,-76.0627"/>
<polygon fill="midnightblue" stroke="midnightblue" points="760.477,-79.5082 769.783,-74.4435 759.35,-72.5996 760.477,-79.5082"/>
</g>
<!-- Node11 -->
<g id="node12" class="node"><title>Node11</title>
<g id="a_node12"><a xlink:href="$_items_8h.html" xlink:title="Заголовочный файл с подключением меню. ">
<polygon fill="white" stroke="black" points="298,-56.5 298,-75.5 366,-75.5 366,-56.5 298,-56.5"/>
<text text-anchor="middle" x="332" y="-63.5" font-family="Helvetica,sans-Serif" font-size="10.00">..\ui\Items.h</text>
</a>
</g>
</g>
<!-- Node0&#45;&gt;Node11 -->
<g id="edge15" class="edge"><title>Node0&#45;&gt;Node11</title>
<path fill="none" stroke="midnightblue" d="M375.413,-112.083C367.841,-104.22 356.622,-92.5688 347.486,-83.0813"/>
<polygon fill="midnightblue" stroke="midnightblue" points="349.885,-80.5266 340.427,-75.7511 344.842,-85.3821 349.885,-80.5266"/>
</g>
<!-- Node4&#45;&gt;Node3 -->
<g id="edge5" class="edge"><title>Node4&#45;&gt;Node3</title>
<path fill="none" stroke="midnightblue" d="M60.2827,-56.324C69.8363,-48.2631 84.2797,-36.0765 95.7843,-26.3695"/>
<polygon fill="midnightblue" stroke="midnightblue" points="98.1443,-28.9577 103.53,-19.8339 93.6302,-23.6076 98.1443,-28.9577"/>
</g>
<!-- Node5&#45;&gt;Node1 -->
<g id="edge7" class="edge"><title>Node5&#45;&gt;Node1</title>
<path fill="none" stroke="midnightblue" d="M672.528,-56.4435C638.032,-46.4286 581.199,-29.9286 546.335,-19.807"/>
<polygon fill="midnightblue" stroke="midnightblue" points="547.275,-16.4354 536.696,-17.0084 545.323,-23.1578 547.275,-16.4354"/>
</g>
<!-- Node7&#45;&gt;Node1 -->
<g id="edge10" class="edge"><title>Node7&#45;&gt;Node1</title>
<path fill="none" stroke="midnightblue" d="M280.102,-57.6611C334.545,-46.8923 435.063,-27.0096 485.482,-17.0366"/>
<polygon fill="midnightblue" stroke="midnightblue" points="486.315,-20.4397 495.446,-15.0657 484.957,-13.5727 486.315,-20.4397"/>
</g>
<!-- Node9&#45;&gt;Node1 -->
<g id="edge13" class="edge"><title>Node9&#45;&gt;Node1</title>
<path fill="none" stroke="midnightblue" d="M769.748,-57.7515C766.791,-57.1499 763.844,-56.5587 761,-56 684.035,-40.8796 593.149,-24.5966 546.7,-16.388"/>
<polygon fill="midnightblue" stroke="midnightblue" points="547.139,-12.9113 536.683,-14.6212 545.923,-19.8049 547.139,-12.9113"/>
</g>
<!-- Node10 -->
<g id="node11" class="node"><title>Node10</title>
<polygon fill="white" stroke="#bfbfbf" points="783,-0.5 783,-19.5 825,-19.5 825,-0.5 783,-0.5"/>
<text text-anchor="middle" x="804" y="-7.5" font-family="Helvetica,sans-Serif" font-size="10.00">vector</text>
</g>
<!-- Node9&#45;&gt;Node10 -->
<g id="edge14" class="edge"><title>Node9&#45;&gt;Node10</title>
<path fill="none" stroke="midnightblue" d="M804,-56.083C804,-49.0059 804,-38.8611 804,-29.9865"/>
<polygon fill="midnightblue" stroke="midnightblue" points="807.5,-29.751 804,-19.7511 800.5,-29.7511 807.5,-29.751"/>
</g>
<!-- Node11&#45;&gt;Node1 -->
<g id="edge16" class="edge"><title>Node11&#45;&gt;Node1</title>
<path fill="none" stroke="midnightblue" d="M361.155,-56.4435C395.042,-46.4985 450.718,-30.1587 485.265,-20.02"/>
<polygon fill="midnightblue" stroke="midnightblue" points="486.651,-23.2609 495.261,-17.0865 484.68,-16.5442 486.651,-23.2609"/>
</g>
</g>
</svg>
