<?xml version="1.0" encoding="UTF-8" standalone="no"?>
<!DOCTYPE svg PUBLIC "-//W3C//DTD SVG 1.1//EN"
 "http://www.w3.org/Graphics/SVG/1.1/DTD/svg11.dtd">
<!-- Generated by graphviz version 2.38.0 (20140413.2041)
 -->
<!-- Title: Radix.cpp Pages: 1 -->
<svg width="409pt" height="84pt"
 viewBox="0.00 0.00 409.00 84.00" xmlns="http://www.w3.org/2000/svg" xmlns:xlink="http://www.w3.org/1999/xlink">
<g id="graph0" class="graph" transform="scale(1 1) rotate(0) translate(4 80)">
<title>Radix.cpp</title>
<polygon fill="white" stroke="none" points="-4,4 -4,-80 405,-80 405,4 -4,4"/>
<!-- Node0 -->
<g id="node1" class="node"><title>Node0</title>
<polygon fill="#bfbfbf" stroke="black" points="170,-56.5 170,-75.5 230,-75.5 230,-56.5 170,-56.5"/>
<text text-anchor="middle" x="200" y="-63.5" font-family="Helvetica,sans-Serif" font-size="10.00">Radix.cpp</text>
</g>
<!-- Node1 -->
<g id="node2" class="node"><title>Node1</title>
<g id="a_node2"><a xlink:href="$_initialization_8h.html" xlink:title="Заголовочный файл с вызовом модуля инициализации ">
<polygon fill="white" stroke="black" points="0,-0.5 0,-19.5 76,-19.5 76,-0.5 0,-0.5"/>
<text text-anchor="middle" x="38" y="-7.5" font-family="Helvetica,sans-Serif" font-size="10.00">Initialization.h</text>
</a>
</g>
</g>
<!-- Node0&#45;&gt;Node1 -->
<g id="edge1" class="edge"><title>Node0&#45;&gt;Node1</title>
<path fill="none" stroke="midnightblue" d="M174.331,-56.4435C147.077,-47.3591 103.816,-32.9388 73.3494,-22.7831"/>
<polygon fill="midnightblue" stroke="midnightblue" points="74.1429,-19.3584 63.5493,-19.5164 71.9293,-25.9992 74.1429,-19.3584"/>
</g>
<!-- Node2 -->
<g id="node3" class="node"><title>Node2</title>
<g id="a_node3"><a xlink:href="$_main_menu_8h.html" xlink:title="Заголовочный файл с подключением модуля главного меню. ">
<polygon fill="white" stroke="black" points="94.5,-0.5 94.5,-19.5 183.5,-19.5 183.5,-0.5 94.5,-0.5"/>
<text text-anchor="middle" x="139" y="-7.5" font-family="Helvetica,sans-Serif" font-size="10.00">..\ui\MainMenu.h</text>
</a>
</g>
</g>
<!-- Node0&#45;&gt;Node2 -->
<g id="edge2" class="edge"><title>Node0&#45;&gt;Node2</title>
<path fill="none" stroke="midnightblue" d="M190.199,-56.324C181.182,-48.3414 167.594,-36.3128 156.682,-26.6529"/>
<polygon fill="midnightblue" stroke="midnightblue" points="158.787,-23.8416 148.979,-19.8339 154.147,-29.083 158.787,-23.8416"/>
</g>
<!-- Node3 -->
<g id="node4" class="node"><title>Node3</title>
<g id="a_node4"><a xlink:href="$_check_agreement_8h.html" xlink:title="Заголовочный файл с подключением модуля проверки согласия с лицензией. ">
<polygon fill="white" stroke="black" points="201.5,-0.5 201.5,-19.5 320.5,-19.5 320.5,-0.5 201.5,-0.5"/>
<text text-anchor="middle" x="261" y="-7.5" font-family="Helvetica,sans-Serif" font-size="10.00">..\ui\CheckAgreement.h</text>
</a>
</g>
</g>
<!-- Node0&#45;&gt;Node3 -->
<g id="edge3" class="edge"><title>Node0&#45;&gt;Node3</title>
<path fill="none" stroke="midnightblue" d="M209.801,-56.324C218.818,-48.3414 232.406,-36.3128 243.318,-26.6529"/>
<polygon fill="midnightblue" stroke="midnightblue" points="245.853,-29.083 251.021,-19.8339 241.213,-23.8416 245.853,-29.083"/>
</g>
<!-- Node4 -->
<g id="node5" class="node"><title>Node4</title>
<g id="a_node5"><a xlink:href="$_exit_8h.html" xlink:title="Заголовочный файл с подключением модуля выхода из программы. ">
<polygon fill="white" stroke="black" points="339,-0.5 339,-19.5 401,-19.5 401,-0.5 339,-0.5"/>
<text text-anchor="middle" x="370" y="-7.5" font-family="Helvetica,sans-Serif" font-size="10.00">..\ui\Exit.h</text>
</a>
</g>
</g>
<!-- Node0&#45;&gt;Node4 -->
<g id="edge4" class="edge"><title>Node0&#45;&gt;Node4</title>
<path fill="none" stroke="midnightblue" d="M226.937,-56.4435C255.66,-47.3196 301.329,-32.8133 333.321,-22.6509"/>
<polygon fill="midnightblue" stroke="midnightblue" points="334.718,-25.8797 343.189,-19.5164 332.599,-19.2081 334.718,-25.8797"/>
</g>
</g>
</svg>
