<?xml version="1.0" encoding="UTF-8" standalone="no"?>
<!DOCTYPE svg PUBLIC "-//W3C//DTD SVG 1.1//EN"
 "http://www.w3.org/Graphics/SVG/1.1/DTD/svg11.dtd">
<!-- Generated by graphviz version 2.38.0 (20140413.2041)
 -->
<!-- Title: Radix.cpp Pages: 1 -->
<svg width="595pt" height="140pt"
 viewBox="0.00 0.00 595.00 140.00" xmlns="http://www.w3.org/2000/svg" xmlns:xlink="http://www.w3.org/1999/xlink">
<g id="graph0" class="graph" transform="scale(1 1) rotate(0) translate(4 136)">
<title>Radix.cpp</title>
<polygon fill="white" stroke="none" points="-4,4 -4,-136 591,-136 591,4 -4,4"/>
<!-- Node0 -->
<g id="node1" class="node"><title>Node0</title>
<polygon fill="#bfbfbf" stroke="black" points="289,-112.5 289,-131.5 349,-131.5 349,-112.5 289,-112.5"/>
<text text-anchor="middle" x="319" y="-119.5" font-family="Helvetica,sans-Serif" font-size="10.00">Radix.cpp</text>
</g>
<!-- Node1 -->
<g id="node2" class="node"><title>Node1</title>
<g id="a_node2"><a xlink:href="$_initialization_8h.html" xlink:title="Заголовочный файл с вызовом модуля инициализации ">
<polygon fill="white" stroke="black" points="0,-56.5 0,-75.5 76,-75.5 76,-56.5 0,-56.5"/>
<text text-anchor="middle" x="38" y="-63.5" font-family="Helvetica,sans-Serif" font-size="10.00">Initialization.h</text>
</a>
</g>
</g>
<!-- Node0&#45;&gt;Node1 -->
<g id="edge1" class="edge"><title>Node0&#45;&gt;Node1</title>
<path fill="none" stroke="midnightblue" d="M288.928,-115.221C240.445,-105.904 144.568,-87.4792 86.3814,-76.2975"/>
<polygon fill="midnightblue" stroke="midnightblue" points="86.8076,-72.8154 76.3267,-74.3653 85.4865,-79.6896 86.8076,-72.8154"/>
</g>
<!-- Node2 -->
<g id="node3" class="node"><title>Node2</title>
<g id="a_node3"><a xlink:href="$_main_menu_8h.html" xlink:title="Заголовочный файл с подключением модуля главного меню. ">
<polygon fill="white" stroke="black" points="94.5,-56.5 94.5,-75.5 183.5,-75.5 183.5,-56.5 94.5,-56.5"/>
<text text-anchor="middle" x="139" y="-63.5" font-family="Helvetica,sans-Serif" font-size="10.00">..\ui\MainMenu.h</text>
</a>
</g>
</g>
<!-- Node0&#45;&gt;Node2 -->
<g id="edge2" class="edge"><title>Node0&#45;&gt;Node2</title>
<path fill="none" stroke="midnightblue" d="M290.478,-112.444C259.934,-103.28 211.292,-88.6876 177.397,-78.5192"/>
<polygon fill="midnightblue" stroke="midnightblue" points="177.972,-75.0376 167.388,-75.5164 175.961,-81.7424 177.972,-75.0376"/>
</g>
<!-- Node3 -->
<g id="node4" class="node"><title>Node3</title>
<g id="a_node4"><a xlink:href="$_check_agreement_8h.html" xlink:title="Заголовочный файл с подключением модуля проверки согласия с лицензией. ">
<polygon fill="white" stroke="black" points="201.5,-56.5 201.5,-75.5 320.5,-75.5 320.5,-56.5 201.5,-56.5"/>
<text text-anchor="middle" x="261" y="-63.5" font-family="Helvetica,sans-Serif" font-size="10.00">..\ui\CheckAgreement.h</text>
</a>
</g>
</g>
<!-- Node0&#45;&gt;Node3 -->
<g id="edge3" class="edge"><title>Node0&#45;&gt;Node3</title>
<path fill="none" stroke="midnightblue" d="M309.681,-112.324C301.107,-104.341 288.188,-92.3128 277.812,-82.6529"/>
<polygon fill="midnightblue" stroke="midnightblue" points="280.192,-80.0865 270.488,-75.8339 275.422,-85.2098 280.192,-80.0865"/>
</g>
<!-- Node4 -->
<g id="node5" class="node"><title>Node4</title>
<g id="a_node5"><a xlink:href="$_manual_8h.html" xlink:title="Заголовочный файл с подключением модуля инструкции. ">
<polygon fill="white" stroke="black" points="339,-56.5 339,-75.5 415,-75.5 415,-56.5 339,-56.5"/>
<text text-anchor="middle" x="377" y="-63.5" font-family="Helvetica,sans-Serif" font-size="10.00">..\ui\Manual.h</text>
</a>
</g>
</g>
<!-- Node0&#45;&gt;Node4 -->
<g id="edge4" class="edge"><title>Node0&#45;&gt;Node4</title>
<path fill="none" stroke="midnightblue" d="M328.319,-112.324C336.893,-104.341 349.812,-92.3128 360.188,-82.6529"/>
<polygon fill="midnightblue" stroke="midnightblue" points="362.578,-85.2098 367.512,-75.8339 357.808,-80.0865 362.578,-85.2098"/>
</g>
<!-- Node5 -->
<g id="node6" class="node"><title>Node5</title>
<g id="a_node6"><a xlink:href="$_exit_8h.html" xlink:title="Заголовочный файл с подключением модуля выхода из программы. ">
<polygon fill="white" stroke="black" points="433,-56.5 433,-75.5 495,-75.5 495,-56.5 433,-56.5"/>
<text text-anchor="middle" x="464" y="-63.5" font-family="Helvetica,sans-Serif" font-size="10.00">..\ui\Exit.h</text>
</a>
</g>
</g>
<!-- Node0&#45;&gt;Node5 -->
<g id="edge5" class="edge"><title>Node0&#45;&gt;Node5</title>
<path fill="none" stroke="midnightblue" d="M341.976,-112.444C366.157,-103.438 404.418,-89.1891 431.646,-79.049"/>
<polygon fill="midnightblue" stroke="midnightblue" points="432.982,-82.2864 441.132,-75.5164 430.539,-75.7265 432.982,-82.2864"/>
</g>
<!-- Node6 -->
<g id="node7" class="node"><title>Node6</title>
<g id="a_node7"><a xlink:href="$_logger_8h.html" xlink:title="Заголовочный файл с подключением модуля логирования. ">
<polygon fill="white" stroke="black" points="513,-56.5 513,-75.5 587,-75.5 587,-56.5 513,-56.5"/>
<text text-anchor="middle" x="550" y="-63.5" font-family="Helvetica,sans-Serif" font-size="10.00">..\io\Logger.h</text>
</a>
</g>
</g>
<!-- Node0&#45;&gt;Node6 -->
<g id="edge6" class="edge"><title>Node0&#45;&gt;Node6</title>
<path fill="none" stroke="midnightblue" d="M349.199,-113.94C388.425,-104.771 457.307,-88.6686 503.295,-77.9181"/>
<polygon fill="midnightblue" stroke="midnightblue" points="504.373,-81.2605 513.314,-75.576 502.779,-74.4443 504.373,-81.2605"/>
</g>
<!-- Node7 -->
<g id="node8" class="node"><title>Node7</title>
<polygon fill="white" stroke="#bfbfbf" points="529.5,-0.5 529.5,-19.5 570.5,-19.5 570.5,-0.5 529.5,-0.5"/>
<text text-anchor="middle" x="550" y="-7.5" font-family="Helvetica,sans-Serif" font-size="10.00">string</text>
</g>
<!-- Node6&#45;&gt;Node7 -->
<g id="edge7" class="edge"><title>Node6&#45;&gt;Node7</title>
<path fill="none" stroke="midnightblue" d="M550,-56.083C550,-49.0059 550,-38.8611 550,-29.9865"/>
<polygon fill="midnightblue" stroke="midnightblue" points="553.5,-29.751 550,-19.7511 546.5,-29.7511 553.5,-29.751"/>
</g>
</g>
</svg>
