<?xml version="1.0" encoding="UTF-8" standalone="no"?>
<!DOCTYPE svg PUBLIC "-//W3C//DTD SVG 1.1//EN"
 "http://www.w3.org/Graphics/SVG/1.1/DTD/svg11.dtd">
<!-- Generated by graphviz version 2.38.0 (20140413.2041)
 -->
<!-- Title: Templates.cpp Pages: 1 -->
<svg width="356pt" height="140pt"
 viewBox="0.00 0.00 355.50 140.00" xmlns="http://www.w3.org/2000/svg" xmlns:xlink="http://www.w3.org/1999/xlink">
<g id="graph0" class="graph" transform="scale(1 1) rotate(0) translate(4 136)">
<title>Templates.cpp</title>
<polygon fill="white" stroke="none" points="-4,4 -4,-136 351.5,-136 351.5,4 -4,4"/>
<!-- Node0 -->
<g id="node1" class="node"><title>Node0</title>
<polygon fill="#bfbfbf" stroke="black" points="113.5,-112.5 113.5,-131.5 193.5,-131.5 193.5,-112.5 113.5,-112.5"/>
<text text-anchor="middle" x="153.5" y="-119.5" font-family="Helvetica,sans-Serif" font-size="10.00">Templates.cpp</text>
</g>
<!-- Node1 -->
<g id="node2" class="node"><title>Node1</title>
<polygon fill="white" stroke="#bfbfbf" points="0,-56.5 0,-75.5 49,-75.5 49,-56.5 0,-56.5"/>
<text text-anchor="middle" x="24.5" y="-63.5" font-family="Helvetica,sans-Serif" font-size="10.00">fstream</text>
</g>
<!-- Node0&#45;&gt;Node1 -->
<g id="edge1" class="edge"><title>Node0&#45;&gt;Node1</title>
<path fill="none" stroke="midnightblue" d="M133.06,-112.444C111.83,-103.557 78.401,-89.5632 54.245,-79.4514"/>
<polygon fill="midnightblue" stroke="midnightblue" points="55.4207,-76.1493 44.8448,-75.5164 52.7177,-82.6064 55.4207,-76.1493"/>
</g>
<!-- Node2 -->
<g id="node3" class="node"><title>Node2</title>
<g id="a_node3"><a xlink:href="$_templates_8h.html" xlink:title="Заголовочный файл с подключением модуля создания стандартных файлов программы. ">
<polygon fill="white" stroke="black" points="67.5,-56.5 67.5,-75.5 137.5,-75.5 137.5,-56.5 67.5,-56.5"/>
<text text-anchor="middle" x="102.5" y="-63.5" font-family="Helvetica,sans-Serif" font-size="10.00">Templates.h</text>
</a>
</g>
</g>
<!-- Node0&#45;&gt;Node2 -->
<g id="edge2" class="edge"><title>Node0&#45;&gt;Node2</title>
<path fill="none" stroke="midnightblue" d="M145.078,-112.083C137.652,-104.22 126.648,-92.5688 117.688,-83.0813"/>
<polygon fill="midnightblue" stroke="midnightblue" points="120.176,-80.618 110.765,-75.7511 115.087,-85.4244 120.176,-80.618"/>
</g>
<!-- Node3 -->
<g id="node4" class="node"><title>Node3</title>
<g id="a_node4"><a xlink:href="$_constants_8h.html" xlink:title="Заголовочный файл с константами. ">
<polygon fill="white" stroke="black" points="155.5,-56.5 155.5,-75.5 255.5,-75.5 255.5,-56.5 155.5,-56.5"/>
<text text-anchor="middle" x="205.5" y="-63.5" font-family="Helvetica,sans-Serif" font-size="10.00">..\core\Constants.h</text>
</a>
</g>
</g>
<!-- Node0&#45;&gt;Node3 -->
<g id="edge3" class="edge"><title>Node0&#45;&gt;Node3</title>
<path fill="none" stroke="midnightblue" d="M162.087,-112.083C169.659,-104.22 180.878,-92.5688 190.014,-83.0813"/>
<polygon fill="midnightblue" stroke="midnightblue" points="192.658,-85.3821 197.073,-75.7511 187.615,-80.5266 192.658,-85.3821"/>
</g>
<!-- Node5 -->
<g id="node6" class="node"><title>Node5</title>
<g id="a_node6"><a xlink:href="$_logger_8h.html" xlink:title="Заголовочный файл с подключением модуля логирования. ">
<polygon fill="white" stroke="black" points="273.5,-56.5 273.5,-75.5 347.5,-75.5 347.5,-56.5 273.5,-56.5"/>
<text text-anchor="middle" x="310.5" y="-63.5" font-family="Helvetica,sans-Serif" font-size="10.00">..\io\Logger.h</text>
</a>
</g>
</g>
<!-- Node0&#45;&gt;Node5 -->
<g id="edge5" class="edge"><title>Node0&#45;&gt;Node5</title>
<path fill="none" stroke="midnightblue" d="M178.377,-112.444C204.789,-103.359 246.715,-88.9388 276.242,-78.7831"/>
<polygon fill="midnightblue" stroke="midnightblue" points="277.421,-82.0787 285.739,-75.5164 275.145,-75.4593 277.421,-82.0787"/>
</g>
<!-- Node4 -->
<g id="node5" class="node"><title>Node4</title>
<polygon fill="white" stroke="#bfbfbf" points="237,-0.5 237,-19.5 278,-19.5 278,-0.5 237,-0.5"/>
<text text-anchor="middle" x="257.5" y="-7.5" font-family="Helvetica,sans-Serif" font-size="10.00">string</text>
</g>
<!-- Node3&#45;&gt;Node4 -->
<g id="edge4" class="edge"><title>Node3&#45;&gt;Node4</title>
<path fill="none" stroke="midnightblue" d="M214.087,-56.083C221.659,-48.2195 232.878,-36.5688 242.014,-27.0813"/>
<polygon fill="midnightblue" stroke="midnightblue" points="244.658,-29.3821 249.073,-19.7511 239.615,-24.5266 244.658,-29.3821"/>
</g>
<!-- Node5&#45;&gt;Node4 -->
<g id="edge6" class="edge"><title>Node5&#45;&gt;Node4</title>
<path fill="none" stroke="midnightblue" d="M301.748,-56.083C294.03,-48.2195 282.595,-36.5688 273.283,-27.0813"/>
<polygon fill="midnightblue" stroke="midnightblue" points="275.592,-24.4363 266.089,-19.7511 270.596,-29.3396 275.592,-24.4363"/>
</g>
</g>
</svg>
