<?xml version="1.0" encoding="UTF-8" standalone="no"?>
<!DOCTYPE svg PUBLIC "-//W3C//DTD SVG 1.1//EN"
 "http://www.w3.org/Graphics/SVG/1.1/DTD/svg11.dtd">
<!-- Generated by graphviz version 2.38.0 (20140413.2041)
 -->
<!-- Title: Templates.h Pages: 1 -->
<svg width="190pt" height="84pt"
 viewBox="0.00 0.00 189.50 84.00" xmlns="http://www.w3.org/2000/svg" xmlns:xlink="http://www.w3.org/1999/xlink">
<g id="graph0" class="graph" transform="scale(1 1) rotate(0) translate(4 80)">
<title>Templates.h</title>
<polygon fill="white" stroke="none" points="-4,4 -4,-80 185.5,-80 185.5,4 -4,4"/>
<!-- Node1 -->
<g id="node1" class="node"><title>Node1</title>
<polygon fill="#bfbfbf" stroke="black" points="56.5,-56.5 56.5,-75.5 126.5,-75.5 126.5,-56.5 56.5,-56.5"/>
<text text-anchor="middle" x="91.5" y="-63.5" font-family="Helvetica,sans-Serif" font-size="10.00">Templates.h</text>
</g>
<!-- Node2 -->
<g id="node2" class="node"><title>Node2</title>
<g id="a_node2"><a xlink:href="$_operations_8cpp.html" xlink:title="Модуль проверки стандартных файлов программы и вызова алгоритма рутирования. ">
<polygon fill="white" stroke="black" points="0,-0.5 0,-19.5 83,-19.5 83,-0.5 0,-0.5"/>
<text text-anchor="middle" x="41.5" y="-7.5" font-family="Helvetica,sans-Serif" font-size="10.00">Operations.cpp</text>
</a>
</g>
</g>
<!-- Node1&#45;&gt;Node2 -->
<g id="edge1" class="edge"><title>Node1&#45;&gt;Node2</title>
<path fill="none" stroke="midnightblue" d="M76.4237,-48.7175C67.6109,-39.1997 56.8341,-27.5608 49.6028,-19.7511"/>
<polygon fill="midnightblue" stroke="midnightblue" points="73.8812,-51.1233 83.2435,-56.083 79.0176,-46.3674 73.8812,-51.1233"/>
</g>
<!-- Node3 -->
<g id="node3" class="node"><title>Node3</title>
<g id="a_node3"><a xlink:href="$_templates_8cpp.html" xlink:title="Функции для создания стандартных файлов программы. ">
<polygon fill="white" stroke="black" points="101.5,-0.5 101.5,-19.5 181.5,-19.5 181.5,-0.5 101.5,-0.5"/>
<text text-anchor="middle" x="141.5" y="-7.5" font-family="Helvetica,sans-Serif" font-size="10.00">Templates.cpp</text>
</a>
</g>
</g>
<!-- Node1&#45;&gt;Node3 -->
<g id="edge2" class="edge"><title>Node1&#45;&gt;Node3</title>
<path fill="none" stroke="midnightblue" d="M106.576,-48.7175C115.389,-39.1997 126.166,-27.5608 133.397,-19.7511"/>
<polygon fill="midnightblue" stroke="midnightblue" points="103.982,-46.3674 99.7565,-56.083 109.119,-51.1233 103.982,-46.3674"/>
</g>
</g>
</svg>
